{"glyphs":{"0":{"ha":751,"x_min":52,"x_max":699,"o":"m 381 742 q 118 609 209 742 q 52 368 52 510 q 184 46 52 148 q 374 -14 264 -14 q 633 121 545 -14 q 699 362 699 220 q 555 694 699 600 q 381 742 480 742 m 378 23 q 244 144 277 23 q 222 362 222 222 q 321 693 222 644 q 377 705 346 705 q 509 574 477 705 q 528 369 528 496 q 445 42 528 99 q 378 23 416 23 z "},"1":{"ha":589,"x_min":27,"x_max":568,"o":"m 311 728 l 27 545 l 52 507 l 252 631 l 252 47 l 76 35 l 76 0 l 568 0 q 540 34 568 28 q 529 35 534 35 l 411 47 l 411 728 l 311 728 z "},"2":{"ha":658,"x_min":41,"x_max":583,"o":"m 121 122 q 221 229 121 172 q 296 267 244 241 q 500 397 446 345 q 568 544 568 465 q 425 723 568 677 q 297 742 366 742 q 85 671 156 742 q 43 571 43 629 q 92 488 43 505 q 117 484 104 484 q 195 547 182 484 q 199 594 198 562 q 228 686 205 666 q 286 705 248 705 q 401 606 380 705 q 407 553 407 581 q 300 331 407 414 q 184 256 283 319 q 61 134 90 197 q 41 35 41 90 l 41 0 l 582 0 l 583 247 l 553 247 l 530 182 q 476 125 513 133 q 431 122 460 122 l 121 122 z "},"3":{"ha":713,"x_min":53,"x_max":654,"o":"m 623 694 l 623 728 l 90 728 l 87 488 l 119 488 l 144 555 q 203 610 163 604 q 250 613 220 613 l 467 613 l 229 339 l 262 312 q 355 332 311 332 q 488 222 457 332 q 498 142 498 186 q 308 -73 490 -68 q 217 -7 232 -73 q 210 42 213 8 q 183 129 205 110 q 133 144 164 144 q 56 88 69 144 q 53 64 53 76 q 174 -84 53 -38 q 323 -109 240 -109 q 600 7 507 -109 q 654 161 654 76 q 560 335 654 275 q 401 376 495 376 q 313 366 354 376 l 623 694 z "},"4":{"ha":705,"x_min":9,"x_max":648,"o":"m 648 -91 q 631 -56 648 -58 q 616 -54 624 -54 l 529 -54 l 529 117 l 648 117 l 648 157 l 529 157 l 529 438 l 499 438 l 481 381 q 427 323 467 331 q 391 320 412 320 l 377 320 l 377 159 l 71 160 q 387 437 311 361 q 533 666 532 585 q 468 743 533 731 q 444 746 457 746 q 358 693 385 746 q 319 579 355 685 q 87 227 251 382 q 9 160 50 193 l 18 119 l 377 118 l 377 -54 l 225 -54 l 225 -91 l 648 -91 z "},"5":{"ha":689,"x_min":71,"x_max":643,"o":"m 643 155 q 528 368 643 301 q 370 407 460 407 q 172 350 260 406 l 172 606 q 361 594 278 594 q 545 632 506 594 q 582 783 581 674 l 547 783 q 491 726 532 736 q 407 718 463 718 q 126 730 404 718 l 126 332 l 172 297 q 323 355 245 355 q 472 248 434 355 q 487 152 487 205 q 387 -60 487 -16 q 320 -73 357 -73 q 236 -9 250 -73 q 231 38 232 5 q 202 126 225 107 q 149 142 183 142 q 73 85 85 142 q 71 62 71 73 q 174 -80 71 -33 q 315 -109 235 -109 q 574 -16 480 -109 q 643 155 643 54 z "},"6":{"ha":728,"x_min":64,"x_max":677,"o":"m 677 255 q 575 457 677 388 q 408 505 506 505 q 228 450 308 503 q 342 787 237 735 q 401 800 369 800 q 494 741 479 800 q 500 701 498 727 q 532 624 507 640 q 583 610 551 610 q 659 666 644 610 q 663 693 663 680 q 576 804 663 762 q 416 837 509 837 q 119 658 212 837 q 64 401 64 549 q 212 33 64 133 q 370 -14 281 -14 q 625 99 540 -14 q 677 255 677 168 m 227 235 q 365 463 227 450 q 378 463 372 463 q 519 251 518 460 q 373 23 518 24 q 227 235 228 26 z "},"7":{"ha":642,"x_min":47,"x_max":640,"o":"m 640 692 l 640 728 l 50 728 l 47 484 l 80 484 l 104 552 q 165 609 122 602 q 210 612 182 612 l 536 612 q 368 377 473 522 q 168 76 205 151 q 138 -27 138 15 q 199 -106 138 -91 q 228 -109 213 -109 q 308 -60 285 -109 q 349 83 317 -42 q 640 692 427 385 z "},"8":{"ha":736,"x_min":72,"x_max":658,"o":"m 347 -14 q 589 68 496 -14 q 658 220 656 132 q 529 411 658 327 q 472 445 505 427 q 601 605 582 503 q 605 640 605 624 q 486 814 605 765 q 359 837 429 837 q 145 755 221 837 q 94 621 94 700 q 220 435 94 519 q 252 415 235 426 q 81 259 115 370 q 72 199 72 231 q 170 31 72 92 q 347 -14 243 -14 m 229 675 q 320 788 229 764 q 380 796 349 796 q 530 728 480 796 q 557 640 557 690 q 477 492 557 553 q 434 465 456 476 q 274 572 312 533 q 229 675 229 620 m 121 203 q 208 353 121 297 q 298 389 247 377 q 458 288 422 320 q 519 170 518 233 q 416 38 519 72 q 330 26 377 26 q 164 91 227 26 q 121 203 121 138 z "},"9":{"ha":731,"x_min":52,"x_max":667,"o":"m 667 346 q 528 688 667 587 q 350 742 453 742 q 95 629 172 742 q 52 484 52 566 q 178 274 52 335 q 331 241 243 241 q 503 294 429 243 q 420 -38 498 33 q 328 -72 382 -72 q 233 -7 250 -72 q 227 34 229 5 q 195 114 218 96 q 145 127 176 127 q 66 75 83 127 q 64 50 64 62 q 156 -73 64 -26 q 311 -109 224 -109 q 590 38 492 -109 q 667 346 667 156 m 209 505 q 353 705 210 704 q 502 490 500 703 q 366 286 502 297 q 350 285 358 285 q 209 505 210 288 z "},"A":{"ha":863,"x_min":0,"x_max":863,"o":"m 863 0 q 844 35 863 31 q 829 37 838 37 l 787 37 l 469 814 l 385 814 l 87 37 l 0 37 l 0 0 l 247 0 q 228 35 247 31 q 213 37 221 37 l 141 37 l 240 297 l 514 297 l 616 37 l 522 37 l 522 0 l 863 0 m 498 338 l 255 338 l 376 655 l 498 338 z "},"Æ":{"ha":1210,"x_min":0,"x_max":1147,"o":"m 339 359 l 593 774 l 593 359 l 339 359 m 252 0 q 235 34 252 31 q 220 35 228 35 l 142 35 l 315 319 l 593 319 l 593 37 l 481 37 l 481 0 l 1142 0 l 1147 260 l 1112 260 l 1085 171 q 956 38 1048 52 q 929 37 943 37 l 760 37 l 760 399 l 1021 399 l 1021 439 l 760 439 l 760 777 l 929 777 q 1085 643 1046 776 l 1112 553 l 1147 553 l 1142 814 l 559 814 l 81 35 l 0 35 l 0 0 l 252 0 z "},"Á":{"ha":863,"x_min":0,"x_max":863,"o":"m 863 0 q 844 35 863 31 q 829 37 838 37 l 787 37 l 469 814 l 385 814 l 87 37 l 0 37 l 0 0 l 247 0 q 228 35 247 31 q 213 37 221 37 l 141 37 l 240 297 l 514 297 l 616 37 l 522 37 l 522 0 l 863 0 m 498 338 l 255 338 l 376 655 l 498 338 m 559 939 q 585 989 583 959 q 545 1055 585 1032 q 513 1065 529 1065 q 472 1048 492 1065 q 403 966 456 1036 q 304 857 354 903 l 324 830 q 490 903 361 850 q 559 939 540 924 z "},"Ă":{"ha":863,"x_min":0,"x_max":863,"o":"m 863 0 q 844 35 863 31 q 829 37 838 37 l 787 37 l 469 814 l 385 814 l 87 37 l 0 37 l 0 0 l 247 0 q 228 35 247 31 q 213 37 221 37 l 141 37 l 240 297 l 514 297 l 616 37 l 522 37 l 522 0 l 863 0 m 498 338 l 255 338 l 376 655 l 498 338 m 433 966 q 568 1031 545 966 q 572 1046 571 1039 l 601 1046 q 514 879 601 922 q 429 861 476 861 q 266 972 302 861 q 255 1046 255 1006 l 282 1046 q 433 966 300 966 z "},"Â":{"ha":863,"x_min":0,"x_max":863,"o":"m 863 0 q 844 35 863 31 q 829 37 838 37 l 787 37 l 469 814 l 385 814 l 87 37 l 0 37 l 0 0 l 247 0 q 228 35 247 31 q 213 37 221 37 l 141 37 l 240 297 l 514 297 l 616 37 l 522 37 l 522 0 l 863 0 m 498 338 l 255 338 l 376 655 l 498 338 m 597 854 l 614 879 q 509 1002 586 907 q 427 1055 458 1051 q 353 1009 391 1055 q 326 977 345 1000 q 243 878 278 916 l 260 854 q 430 939 336 899 q 597 854 510 905 z "},"Ä":{"ha":863,"x_min":0,"x_max":863,"o":"m 863 0 q 844 35 863 31 q 829 37 838 37 l 787 37 l 469 814 l 385 814 l 87 37 l 0 37 l 0 0 l 247 0 q 228 35 247 31 q 213 37 221 37 l 141 37 l 240 297 l 514 297 l 616 37 l 522 37 l 522 0 l 863 0 m 498 338 l 255 338 l 376 655 l 498 338 m 385 948 q 340 1023 385 998 q 302 1032 321 1032 q 225 985 250 1032 q 217 948 217 967 q 264 873 217 895 q 302 865 283 865 q 376 910 353 865 q 385 948 385 928 m 637 948 q 591 1023 637 1000 q 552 1032 572 1032 q 479 987 503 1032 q 469 948 469 968 q 517 873 469 895 q 552 865 534 865 q 629 913 608 865 q 637 948 637 930 z "},"À":{"ha":863,"x_min":0,"x_max":863,"o":"m 863 0 q 844 35 863 31 q 829 37 838 37 l 787 37 l 469 814 l 385 814 l 87 37 l 0 37 l 0 0 l 247 0 q 228 35 247 31 q 213 37 221 37 l 141 37 l 240 297 l 514 297 l 616 37 l 522 37 l 522 0 l 863 0 m 498 338 l 255 338 l 376 655 l 498 338 m 564 857 q 439 1000 513 905 q 396 1048 414 1035 q 355 1065 376 1065 q 292 1023 313 1065 q 283 989 283 1005 q 309 939 285 958 q 434 882 328 924 q 544 830 500 854 l 564 857 z "},"Ā":{"ha":863,"x_min":0,"x_max":863,"o":"m 863 0 q 844 35 863 31 q 829 37 838 37 l 787 37 l 469 814 l 385 814 l 87 37 l 0 37 l 0 0 l 247 0 q 228 35 247 31 q 213 37 221 37 l 141 37 l 240 297 l 514 297 l 616 37 l 522 37 l 522 0 l 863 0 m 498 338 l 255 338 l 376 655 l 498 338 m 218 909 l 644 909 l 644 981 l 218 981 l 218 909 z "},"Ą":{"ha":863,"x_min":0,"x_max":863,"o":"m 863 0 q 844 35 863 31 q 829 37 838 37 l 787 37 l 469 814 l 385 814 l 87 37 l 0 37 l 0 0 l 247 0 q 228 35 247 31 q 213 37 221 37 l 141 37 l 240 297 l 514 297 l 616 37 l 522 37 l 522 0 l 766 0 q 583 -132 606 -39 q 579 -159 579 -145 q 654 -250 579 -224 q 720 -260 685 -260 q 849 -210 803 -259 l 833 -189 q 761 -220 795 -220 q 711 -152 712 -217 q 780 -34 711 -88 q 838 0 807 -14 l 863 0 m 498 338 l 255 338 l 376 655 l 498 338 z "},"Å":{"ha":863,"x_min":0,"x_max":863,"o":"m 863 0 q 844 35 863 31 q 829 37 838 37 l 787 37 l 473 803 q 585 895 566 819 q 589 928 589 911 q 513 1039 589 1008 q 438 1051 479 1051 q 290 974 323 1051 q 281 926 281 951 q 354 812 281 844 q 381 804 368 807 l 87 37 l 0 37 l 0 0 l 247 0 q 228 35 247 31 q 213 37 221 37 l 141 37 l 240 297 l 514 297 l 616 37 l 522 37 l 522 0 l 863 0 m 498 338 l 255 338 l 376 655 l 498 338 m 376 924 q 434 1019 377 1017 q 494 926 494 1017 q 434 831 492 833 q 376 924 376 833 z "},"Ã":{"ha":863,"x_min":0,"x_max":863,"o":"m 863 0 q 844 35 863 31 q 829 37 838 37 l 787 37 l 469 814 l 385 814 l 87 37 l 0 37 l 0 0 l 247 0 q 228 35 247 31 q 213 37 221 37 l 141 37 l 240 297 l 514 297 l 616 37 l 522 37 l 522 0 l 863 0 m 498 338 l 255 338 l 376 655 l 498 338 m 351 1053 q 458 1008 392 1053 q 543 970 513 970 q 617 1046 598 972 l 646 1040 q 549 879 628 905 q 518 873 534 873 q 411 918 477 873 q 330 956 357 956 q 255 894 275 956 q 252 882 254 887 l 225 886 q 321 1048 241 1024 q 351 1053 336 1053 z "},"B":{"ha":823,"x_min":35,"x_max":780,"o":"m 723 631 q 604 791 723 746 q 457 814 541 814 l 35 814 l 35 777 l 144 777 l 144 37 l 35 37 l 35 0 l 475 0 q 738 110 656 0 q 780 236 780 167 q 643 422 780 372 q 563 442 606 435 q 712 572 677 480 q 723 631 723 602 m 395 777 q 549 620 548 774 q 469 473 549 509 q 401 460 439 460 l 311 460 l 311 777 l 395 777 m 433 422 q 585 320 547 422 q 598 241 598 285 q 506 54 598 102 q 422 37 469 37 l 311 37 l 311 422 l 433 422 z "},"C":{"ha":825,"x_min":49,"x_max":787,"o":"m 741 56 q 762 -4 739 3 q 787 -7 772 -7 l 787 256 l 746 256 q 529 28 689 52 q 483 26 506 26 q 237 411 239 28 q 403 773 237 708 q 491 788 444 788 q 712 637 644 788 q 739 559 727 602 l 783 559 l 779 821 q 738 798 745 821 q 735 758 735 784 q 475 827 623 827 q 133 669 251 827 q 49 408 49 555 q 161 113 49 232 q 475 -14 281 -14 q 741 56 614 -12 z "},"Ć":{"ha":825,"x_min":49,"x_max":787,"o":"m 741 56 q 762 -4 739 3 q 787 -7 772 -7 l 787 256 l 746 256 q 529 28 689 52 q 483 26 506 26 q 237 411 239 28 q 403 773 237 708 q 491 788 444 788 q 712 637 644 788 q 739 559 727 602 l 783 559 l 779 821 q 738 798 745 821 q 735 758 735 784 q 475 827 623 827 q 133 669 251 827 q 49 408 49 555 q 161 113 49 232 q 475 -14 281 -14 q 741 56 614 -12 m 552 1034 q 578 1084 576 1054 q 538 1150 578 1127 q 506 1160 522 1160 q 465 1143 486 1160 q 396 1061 449 1131 q 297 952 347 998 l 317 925 q 483 998 354 945 q 552 1034 533 1019 z "},"Č":{"ha":825,"x_min":49,"x_max":787,"o":"m 741 56 q 762 -4 739 3 q 787 -7 772 -7 l 787 256 l 746 256 q 529 28 689 52 q 483 26 506 26 q 237 411 239 28 q 403 773 237 708 q 491 788 444 788 q 712 637 644 788 q 739 559 727 602 l 783 559 l 779 821 q 738 798 745 821 q 735 758 735 784 q 475 827 623 827 q 133 669 251 827 q 49 408 49 555 q 161 113 49 232 q 475 -14 281 -14 q 741 56 614 -12 m 423 951 q 506 1001 463 951 q 537 1039 515 1012 q 623 1138 587 1100 l 604 1162 q 422 1073 519 1112 q 240 1162 324 1115 l 221 1137 q 332 1009 245 1112 q 423 951 389 955 z "},"Ç":{"ha":825,"x_min":49,"x_max":787,"o":"m 741 56 q 762 -4 739 3 q 787 -7 772 -7 l 787 256 l 746 256 q 529 28 689 52 q 483 26 506 26 q 237 411 239 28 q 403 773 237 708 q 491 788 444 788 q 712 637 644 788 q 739 559 727 602 l 783 559 l 779 821 q 738 798 745 821 q 735 758 735 784 q 475 827 623 827 q 133 669 251 827 q 49 408 49 555 q 163 111 49 232 q 406 -9 259 11 l 351 -115 l 370 -129 q 437 -104 406 -104 q 496 -161 487 -104 q 498 -182 498 -172 q 445 -270 498 -258 q 430 -271 437 -271 q 339 -218 380 -270 l 317 -237 q 467 -309 370 -307 q 616 -241 572 -309 q 633 -183 633 -214 q 563 -83 633 -114 q 481 -68 526 -68 q 408 -83 442 -68 l 438 -12 q 475 -14 452 -14 q 741 56 614 -12 z "},"D":{"ha":913,"x_min":35,"x_max":856,"o":"m 35 814 l 35 777 l 144 777 l 144 37 l 35 37 l 35 0 l 430 0 q 736 114 616 0 q 856 406 856 227 q 686 743 856 633 q 429 814 576 814 l 35 814 m 430 777 q 646 617 595 777 q 670 411 670 536 q 511 49 670 100 q 430 37 475 37 l 311 37 l 311 777 l 430 777 z "},"Ď":{"ha":913,"x_min":35,"x_max":856,"o":"m 35 814 l 35 777 l 144 777 l 144 37 l 35 37 l 35 0 l 430 0 q 736 114 616 0 q 856 406 856 227 q 686 743 856 633 q 429 814 576 814 l 35 814 m 430 777 q 646 617 595 777 q 670 411 670 536 q 511 49 670 100 q 430 37 475 37 l 311 37 l 311 777 l 430 777 m 448 856 q 530 906 487 856 q 562 944 540 917 q 647 1043 612 1005 l 628 1067 q 446 978 544 1017 q 264 1067 349 1020 l 245 1042 q 357 914 270 1017 q 448 856 414 860 z "},"Đ":{"ha":913,"x_min":35,"x_max":856,"o":"m 35 814 l 35 777 l 144 777 l 144 450 l 45 450 l 45 392 l 144 392 l 144 37 l 35 37 l 35 0 l 430 0 q 736 114 616 0 q 856 406 856 227 q 686 743 856 633 q 429 814 576 814 l 35 814 m 430 777 q 646 617 595 777 q 670 411 670 536 q 511 49 670 100 q 430 37 475 37 l 311 37 l 311 392 l 444 392 l 444 450 l 311 450 l 311 777 l 430 777 z "},"E":{"ha":766,"x_min":35,"x_max":703,"o":"m 703 559 l 697 814 l 35 814 l 35 777 l 144 777 l 144 37 l 35 37 l 35 0 l 697 0 l 703 255 l 667 255 l 640 171 q 534 43 605 65 q 484 37 511 37 l 311 37 l 311 399 l 578 399 l 578 439 l 311 439 l 311 777 l 484 777 q 632 669 589 777 q 642 643 637 656 l 667 559 l 703 559 z "},"É":{"ha":766,"x_min":35,"x_max":703,"o":"m 703 559 l 697 814 l 35 814 l 35 777 l 144 777 l 144 37 l 35 37 l 35 0 l 697 0 l 703 255 l 667 255 l 640 171 q 534 43 605 65 q 484 37 511 37 l 311 37 l 311 399 l 578 399 l 578 439 l 311 439 l 311 777 l 484 777 q 632 669 589 777 q 642 643 637 656 l 667 559 l 703 559 m 534 948 q 560 998 559 968 q 521 1065 560 1042 q 488 1074 505 1074 q 448 1058 468 1074 q 378 975 431 1046 q 279 867 330 913 l 300 840 q 465 913 336 860 q 534 948 515 933 z "},"Ě":{"ha":766,"x_min":35,"x_max":703,"o":"m 703 559 l 697 814 l 35 814 l 35 777 l 144 777 l 144 37 l 35 37 l 35 0 l 697 0 l 703 255 l 667 255 l 640 171 q 534 43 605 65 q 484 37 511 37 l 311 37 l 311 399 l 578 399 l 578 439 l 311 439 l 311 777 l 484 777 q 632 669 589 777 q 642 643 637 656 l 667 559 l 703 559 m 403 856 q 486 906 442 856 q 517 944 495 917 q 602 1043 567 1005 l 583 1067 q 401 978 499 1017 q 220 1067 304 1020 l 201 1042 q 312 914 225 1017 q 403 856 369 860 z "},"Ê":{"ha":766,"x_min":35,"x_max":703,"o":"m 703 559 l 697 814 l 35 814 l 35 777 l 144 777 l 144 37 l 35 37 l 35 0 l 697 0 l 703 255 l 667 255 l 640 171 q 534 43 605 65 q 484 37 511 37 l 311 37 l 311 399 l 578 399 l 578 439 l 311 439 l 311 777 l 484 777 q 632 669 589 777 q 642 643 637 656 l 667 559 l 703 559 m 570 854 l 587 879 q 481 1002 559 907 q 400 1055 431 1051 q 326 1009 363 1055 q 298 977 317 1000 q 216 878 251 916 l 233 854 q 403 939 309 899 q 570 854 483 905 z "},"Ë":{"ha":766,"x_min":35,"x_max":703,"o":"m 703 559 l 697 814 l 35 814 l 35 777 l 144 777 l 144 37 l 35 37 l 35 0 l 697 0 l 703 255 l 667 255 l 640 171 q 534 43 605 65 q 484 37 511 37 l 311 37 l 311 399 l 578 399 l 578 439 l 311 439 l 311 777 l 484 777 q 632 669 589 777 q 642 643 637 656 l 667 559 l 703 559 m 358 948 q 313 1023 358 998 q 275 1032 294 1032 q 198 985 222 1032 q 190 948 190 967 q 237 873 190 895 q 275 865 256 865 q 349 910 326 865 q 358 948 358 928 m 610 948 q 564 1023 610 1000 q 525 1032 545 1032 q 452 987 476 1032 q 442 948 442 968 q 490 873 442 895 q 525 865 507 865 q 602 913 581 865 q 610 948 610 930 z "},"Ė":{"ha":766,"x_min":35,"x_max":703,"o":"m 703 559 l 697 814 l 35 814 l 35 777 l 144 777 l 144 37 l 35 37 l 35 0 l 697 0 l 703 255 l 667 255 l 640 171 q 534 43 605 65 q 484 37 511 37 l 311 37 l 311 399 l 578 399 l 578 439 l 311 439 l 311 777 l 484 777 q 632 669 589 777 q 642 643 637 656 l 667 559 l 703 559 m 494 941 q 444 1024 494 998 q 400 1035 422 1035 q 320 986 346 1035 q 308 941 308 964 q 359 860 308 884 q 400 850 378 850 q 483 898 457 850 q 494 941 494 920 z "},"È":{"ha":766,"x_min":35,"x_max":703,"o":"m 703 559 l 697 814 l 35 814 l 35 777 l 144 777 l 144 37 l 35 37 l 35 0 l 697 0 l 703 255 l 667 255 l 640 171 q 534 43 605 65 q 484 37 511 37 l 311 37 l 311 399 l 578 399 l 578 439 l 311 439 l 311 777 l 484 777 q 632 669 589 777 q 642 643 637 656 l 667 559 l 703 559 m 537 857 q 412 1000 486 905 q 369 1048 387 1035 q 328 1065 349 1065 q 264 1023 286 1065 q 256 989 256 1005 q 282 939 258 958 q 407 882 301 924 q 517 830 473 854 l 537 857 z "},"Ē":{"ha":766,"x_min":35,"x_max":703,"o":"m 703 559 l 697 814 l 35 814 l 35 777 l 144 777 l 144 37 l 35 37 l 35 0 l 697 0 l 703 255 l 667 255 l 640 171 q 534 43 605 65 q 484 37 511 37 l 311 37 l 311 399 l 578 399 l 578 439 l 311 439 l 311 777 l 484 777 q 632 669 589 777 q 642 643 637 656 l 667 559 l 703 559 m 191 909 l 617 909 l 617 981 l 191 981 l 191 909 z "},"Ę":{"ha":766,"x_min":35,"x_max":703,"o":"m 703 559 l 697 814 l 35 814 l 35 777 l 144 777 l 144 37 l 35 37 l 35 0 l 612 0 q 429 -132 452 -39 q 425 -159 425 -145 q 499 -250 425 -224 q 566 -260 530 -260 q 694 -210 648 -259 l 678 -189 q 606 -220 640 -220 q 556 -152 557 -217 q 625 -34 556 -88 q 684 0 652 -14 l 697 0 l 703 255 l 667 255 l 640 171 q 534 43 605 65 q 484 37 511 37 l 311 37 l 311 399 l 578 399 l 578 439 l 311 439 l 311 777 l 484 777 q 632 669 589 777 q 642 643 637 656 l 667 559 l 703 559 z "},"Ð":{"ha":913,"x_min":35,"x_max":856,"o":"m 35 814 l 35 777 l 144 777 l 144 450 l 45 450 l 45 392 l 144 392 l 144 37 l 35 37 l 35 0 l 430 0 q 736 114 616 0 q 856 406 856 227 q 686 743 856 633 q 429 814 576 814 l 35 814 m 430 777 q 646 617 595 777 q 670 411 670 536 q 511 49 670 100 q 430 37 475 37 l 311 37 l 311 392 l 444 392 l 444 450 l 311 450 l 311 777 l 430 777 z "},"€":{"ha":830,"x_min":9,"x_max":776,"o":"m 776 144 q 730 210 776 193 q 699 216 715 216 q 612 160 635 216 q 601 127 608 151 q 553 46 582 65 q 473 26 524 26 q 317 176 355 26 q 297 339 301 243 l 570 339 l 582 380 l 296 380 l 296 406 l 296 445 l 597 445 l 609 486 l 297 486 q 422 777 311 734 q 486 788 452 788 q 595 724 571 788 q 606 686 600 712 q 646 612 621 628 q 701 598 667 598 q 772 650 757 598 q 774 674 774 662 q 696 785 774 739 q 510 827 621 827 q 175 655 283 827 q 114 486 129 581 l 22 486 l 9 445 l 109 445 q 107 399 107 429 l 107 380 l 22 380 l 9 339 l 110 339 q 260 56 132 152 q 484 -14 354 -14 q 750 77 680 -14 q 776 144 776 110 z "},"F":{"ha":712,"x_min":35,"x_max":703,"o":"m 472 0 l 472 37 l 311 37 l 311 399 l 578 399 l 578 439 l 311 439 l 311 777 l 484 777 q 640 646 598 777 q 642 643 642 644 l 667 553 l 703 553 l 697 814 l 35 814 l 35 777 l 144 777 l 144 37 l 35 37 l 35 0 l 472 0 z "},"G":{"ha":943,"x_min":56,"x_max":910,"o":"m 537 372 l 537 335 l 655 335 l 655 92 q 488 28 590 28 q 259 232 304 28 q 243 406 243 305 q 495 787 244 785 q 711 652 646 787 q 750 533 734 602 l 789 533 l 784 812 l 659 787 q 468 827 568 827 q 174 716 290 827 q 56 411 56 601 q 224 61 56 176 q 471 -12 332 -12 q 670 33 581 -12 l 818 0 l 818 335 l 910 335 l 910 372 l 537 372 z "},"Ğ":{"ha":943,"x_min":56,"x_max":910,"o":"m 537 372 l 537 335 l 655 335 l 655 92 q 488 28 590 28 q 259 232 304 28 q 243 406 243 305 q 495 787 244 785 q 711 652 646 787 q 750 533 734 602 l 789 533 l 784 812 l 659 787 q 468 827 568 827 q 174 716 290 827 q 56 411 56 601 q 224 61 56 176 q 471 -12 332 -12 q 670 33 581 -12 l 818 0 l 818 335 l 910 335 l 910 372 l 537 372 m 486 966 q 621 1031 598 966 q 625 1046 624 1039 l 654 1046 q 567 879 654 922 q 481 861 529 861 q 319 972 355 861 q 308 1046 308 1006 l 335 1046 q 486 966 353 966 z "},"H":{"ha":989,"x_min":35,"x_max":952,"o":"m 419 0 q 382 37 411 34 l 311 37 l 311 399 l 678 399 l 678 37 l 570 37 l 570 0 l 952 0 q 917 37 941 34 l 845 37 l 845 777 l 952 777 l 952 814 l 570 814 l 570 777 l 678 777 l 678 439 l 311 439 l 311 777 l 419 777 l 419 814 l 35 814 l 35 777 l 144 777 l 144 37 l 35 37 l 35 0 l 419 0 z "},"I":{"ha":454,"x_min":35,"x_max":419,"o":"m 419 0 q 382 37 411 34 l 311 37 l 311 777 l 419 777 l 419 814 l 35 814 l 35 777 l 144 777 l 144 37 l 35 37 l 35 0 l 419 0 z "},"Í":{"ha":454,"x_min":35,"x_max":419,"o":"m 419 0 q 382 37 411 34 l 311 37 l 311 777 l 419 777 l 419 814 l 35 814 l 35 777 l 144 777 l 144 37 l 35 37 l 35 0 l 419 0 m 355 939 q 381 989 380 959 q 342 1055 381 1032 q 309 1065 326 1065 q 269 1048 289 1065 q 199 966 252 1036 q 100 857 151 903 l 121 830 q 286 903 157 850 q 355 939 336 924 z "},"Î":{"ha":454,"x_min":35,"x_max":419,"o":"m 419 0 q 382 37 411 34 l 311 37 l 311 777 l 419 777 l 419 814 l 35 814 l 35 777 l 144 777 l 144 37 l 35 37 l 35 0 l 419 0 m 393 854 l 411 879 q 305 1002 382 907 q 224 1055 255 1051 q 149 1009 187 1055 q 122 977 141 1000 q 39 878 75 916 l 57 854 q 227 939 133 899 q 393 854 307 905 z "},"Ï":{"ha":454,"x_min":14,"x_max":434,"o":"m 419 0 q 382 37 411 34 l 311 37 l 311 777 l 419 777 l 419 814 l 35 814 l 35 777 l 144 777 l 144 37 l 35 37 l 35 0 l 419 0 m 182 948 q 137 1023 182 998 q 99 1032 118 1032 q 22 985 46 1032 q 14 948 14 967 q 61 873 14 895 q 99 865 80 865 q 172 910 149 865 q 182 948 182 928 m 434 948 q 388 1023 434 1000 q 349 1032 369 1032 q 275 987 300 1032 q 266 948 266 968 q 313 873 266 895 q 349 865 331 865 q 426 913 404 865 q 434 948 434 930 z "},"İ":{"ha":454,"x_min":35,"x_max":419,"o":"m 419 0 q 382 37 411 34 l 311 37 l 311 777 l 419 777 l 419 814 l 35 814 l 35 777 l 144 777 l 144 37 l 35 37 l 35 0 l 419 0 m 317 941 q 267 1024 317 998 q 224 1035 245 1035 q 144 986 170 1035 q 132 941 132 964 q 183 860 132 884 q 224 850 202 850 q 307 898 281 850 q 317 941 317 920 z "},"Ì":{"ha":454,"x_min":35,"x_max":419,"o":"m 419 0 q 382 37 411 34 l 311 37 l 311 777 l 419 777 l 419 814 l 35 814 l 35 777 l 144 777 l 144 37 l 35 37 l 35 0 l 419 0 m 361 857 q 236 1000 309 905 q 193 1048 210 1035 q 152 1065 172 1065 q 88 1023 110 1065 q 80 989 80 1005 q 106 939 81 958 q 231 882 125 924 q 340 830 297 854 l 361 857 z "},"Ī":{"ha":454,"x_min":15,"x_max":441,"o":"m 419 0 q 382 37 411 34 l 311 37 l 311 777 l 419 777 l 419 814 l 35 814 l 35 777 l 144 777 l 144 37 l 35 37 l 35 0 l 419 0 m 15 909 l 441 909 l 441 981 l 15 981 l 15 909 z "},"Į":{"ha":454,"x_min":35,"x_max":419,"o":"m 419 0 q 382 37 411 34 l 311 37 l 311 777 l 419 777 l 419 814 l 35 814 l 35 777 l 144 777 l 144 37 l 35 37 l 35 0 l 328 0 q 145 -132 168 -39 q 141 -159 141 -145 q 216 -250 141 -224 q 282 -260 247 -260 q 411 -210 365 -259 l 395 -189 q 323 -220 357 -220 q 273 -152 274 -217 q 342 -34 273 -88 q 400 0 369 -14 l 419 0 z "},"J":{"ha":543,"x_min":-34,"x_max":514,"o":"m 514 777 l 514 814 l 122 814 l 122 777 l 244 777 l 244 248 q 208 23 244 60 q 170 8 193 8 q 123 53 133 8 q 118 73 121 60 q 81 148 107 132 q 35 159 62 159 q -30 114 -14 159 q -34 88 -34 100 q 37 -4 -34 30 q 152 -26 84 -26 q 373 91 308 -26 q 410 258 410 159 l 410 777 l 514 777 z "},"K":{"ha":879,"x_min":35,"x_max":879,"o":"m 419 0 q 382 37 411 34 l 311 37 l 311 359 l 363 407 l 642 -1 l 879 0 q 842 37 871 34 l 822 37 l 483 517 l 701 716 q 785 774 757 769 q 806 777 796 777 q 842 814 840 788 l 593 814 l 593 777 l 701 777 l 311 422 l 311 777 l 419 777 l 419 814 l 35 814 l 35 777 l 144 777 l 144 37 l 35 37 l 35 0 l 419 0 z "},"L":{"ha":688,"x_min":35,"x_max":684,"o":"m 678 0 l 684 288 l 648 288 l 614 171 q 532 50 586 76 q 465 37 503 37 l 311 37 l 311 777 l 426 777 l 426 814 l 35 814 l 35 777 l 144 777 l 144 37 l 35 37 l 35 0 l 678 0 z "},"Ĺ":{"ha":688,"x_min":35,"x_max":684,"o":"m 678 0 l 684 288 l 648 288 l 614 171 q 532 50 586 76 q 465 37 503 37 l 311 37 l 311 777 l 426 777 l 426 814 l 35 814 l 35 777 l 144 777 l 144 37 l 35 37 l 35 0 l 678 0 m 475 939 q 500 989 499 959 q 461 1055 500 1032 q 429 1065 445 1065 q 388 1048 408 1065 q 319 966 372 1036 q 220 857 270 903 l 240 830 q 406 903 277 850 q 475 939 456 924 z "},"Ľ":{"ha":688,"x_min":35,"x_max":684,"o":"m 678 0 l 684 288 l 648 288 l 614 171 q 532 50 586 76 q 465 37 503 37 l 311 37 l 311 777 l 426 777 l 426 814 l 35 814 l 35 777 l 144 777 l 144 37 l 35 37 l 35 0 l 678 0 m 244 856 q 327 906 283 856 q 358 944 336 917 q 444 1043 408 1005 l 425 1067 q 243 978 340 1017 q 61 1067 145 1020 l 42 1042 q 153 914 66 1017 q 244 856 210 860 z "},"Ł":{"ha":692,"x_min":9,"x_max":684,"o":"m 678 0 l 684 288 l 648 288 l 614 171 q 532 50 586 76 q 465 37 503 37 l 311 37 l 311 359 l 575 507 l 553 547 l 311 411 l 311 777 l 426 777 l 426 814 l 35 814 l 35 777 l 144 777 l 144 319 l 9 244 l 33 203 l 144 266 l 144 37 l 35 37 l 35 0 l 678 0 z "},"M":{"ha":1093,"x_min":22,"x_max":1070,"o":"m 1070 814 l 803 814 l 544 203 l 250 814 l 22 814 l 22 777 l 130 777 l 130 37 l 22 37 l 22 0 l 296 0 q 259 37 288 34 l 187 37 l 187 570 l 479 -11 l 505 -11 l 803 684 l 803 37 l 694 37 l 694 0 l 1070 0 q 1034 37 1062 34 l 962 37 l 962 777 l 1070 777 l 1070 814 z "},"N":{"ha":903,"x_min":23,"x_max":894,"o":"m 618 777 l 730 777 l 730 227 l 239 814 l 23 814 l 23 777 l 132 777 l 132 37 l 23 37 l 23 0 l 302 0 q 266 37 294 34 l 187 37 l 187 621 l 713 -7 l 785 7 l 785 777 l 894 777 l 894 814 l 618 814 l 618 777 z "},"Ń":{"ha":903,"x_min":23,"x_max":894,"o":"m 618 777 l 730 777 l 730 227 l 239 814 l 23 814 l 23 777 l 132 777 l 132 37 l 23 37 l 23 0 l 302 0 q 266 37 294 34 l 187 37 l 187 621 l 713 -7 l 785 7 l 785 777 l 894 777 l 894 814 l 618 814 l 618 777 m 586 939 q 612 989 610 959 q 572 1055 612 1032 q 540 1065 556 1065 q 499 1048 519 1065 q 430 966 483 1036 q 331 857 381 903 l 351 830 q 517 903 388 850 q 586 939 567 924 z "},"Ň":{"ha":903,"x_min":23,"x_max":894,"o":"m 618 777 l 730 777 l 730 227 l 239 814 l 23 814 l 23 777 l 132 777 l 132 37 l 23 37 l 23 0 l 302 0 q 266 37 294 34 l 187 37 l 187 621 l 713 -7 l 785 7 l 785 777 l 894 777 l 894 814 l 618 814 l 618 777 m 457 856 q 540 906 496 856 q 571 944 549 917 q 656 1043 621 1005 l 637 1067 q 456 978 553 1017 q 274 1067 358 1020 l 255 1042 q 366 914 279 1017 q 457 856 423 860 z "},"Ñ":{"ha":903,"x_min":23,"x_max":894,"o":"m 618 777 l 730 777 l 730 227 l 239 814 l 23 814 l 23 777 l 132 777 l 132 37 l 23 37 l 23 0 l 302 0 q 266 37 294 34 l 187 37 l 187 621 l 713 -7 l 785 7 l 785 777 l 894 777 l 894 814 l 618 814 l 618 777 m 378 1053 q 486 1008 419 1053 q 570 970 540 970 q 644 1046 625 972 l 673 1040 q 576 879 655 905 q 545 873 562 873 q 438 918 505 873 q 357 956 384 956 q 282 894 302 956 q 279 882 281 887 l 252 886 q 349 1048 269 1024 q 378 1053 363 1053 z "},"O":{"ha":955,"x_min":56,"x_max":899,"o":"m 481 827 q 184 716 307 827 q 56 411 56 598 q 209 76 56 195 q 477 -14 324 -14 q 772 99 651 -14 q 899 406 899 218 q 742 745 899 628 q 481 827 631 827 m 481 26 q 266 203 313 26 q 244 406 244 286 q 452 787 244 768 q 477 788 465 788 q 699 567 659 788 q 711 411 711 499 q 543 33 711 77 q 481 26 514 26 z "},"Œ":{"ha":1242,"x_min":56,"x_max":1179,"o":"m 490 28 q 259 235 302 28 q 244 406 244 307 q 366 753 244 678 q 500 785 420 785 q 621 764 567 785 l 621 52 q 490 28 562 28 m 665 0 l 1173 0 l 1179 260 l 1143 260 l 1112 171 q 996 42 1074 62 q 949 37 974 37 l 788 37 l 788 399 l 1053 399 l 1053 439 l 788 439 l 788 777 l 949 777 q 1105 662 1058 777 q 1112 643 1108 652 l 1143 553 l 1179 553 l 1173 814 l 674 814 q 578 818 648 814 q 484 821 509 821 q 179 708 301 821 q 56 411 56 593 q 214 76 56 193 q 481 -7 328 -7 q 598 -3 517 -7 q 665 0 650 0 z "},"Ó":{"ha":955,"x_min":56,"x_max":899,"o":"m 481 827 q 184 716 307 827 q 56 411 56 598 q 209 76 56 195 q 477 -14 324 -14 q 772 99 651 -14 q 899 406 899 218 q 742 745 899 628 q 481 827 631 827 m 481 26 q 266 203 313 26 q 244 406 244 286 q 452 787 244 768 q 477 788 465 788 q 699 567 659 788 q 711 411 711 499 q 543 33 711 77 q 481 26 514 26 m 614 939 q 640 989 639 959 q 601 1055 640 1032 q 568 1065 585 1065 q 528 1048 548 1065 q 458 966 511 1036 q 359 857 410 903 l 380 830 q 545 903 416 850 q 614 939 595 924 z "},"Ô":{"ha":955,"x_min":56,"x_max":899,"o":"m 481 827 q 184 716 307 827 q 56 411 56 598 q 209 76 56 195 q 477 -14 324 -14 q 772 99 651 -14 q 899 406 899 218 q 742 745 899 628 q 481 827 631 827 m 481 26 q 266 203 313 26 q 244 406 244 286 q 452 787 244 768 q 477 788 465 788 q 699 567 659 788 q 711 411 711 499 q 543 33 711 77 q 481 26 514 26 m 651 854 l 669 879 q 563 1002 640 907 q 481 1055 513 1051 q 407 1009 445 1055 q 380 977 399 1000 q 297 878 332 916 l 315 854 q 484 939 391 899 q 651 854 564 905 z "},"Ö":{"ha":955,"x_min":56,"x_max":899,"o":"m 481 827 q 184 716 307 827 q 56 411 56 598 q 209 76 56 195 q 477 -14 324 -14 q 772 99 651 -14 q 899 406 899 218 q 742 745 899 628 q 481 827 631 827 m 481 26 q 266 203 313 26 q 244 406 244 286 q 452 787 244 768 q 477 788 465 788 q 699 567 659 788 q 711 411 711 499 q 543 33 711 77 q 481 26 514 26 m 441 948 q 396 1023 441 998 q 358 1032 377 1032 q 281 985 305 1032 q 273 948 273 967 q 320 873 273 895 q 358 865 339 865 q 431 910 408 865 q 441 948 441 928 m 693 948 q 647 1023 693 1000 q 608 1032 628 1032 q 534 987 559 1032 q 525 948 525 968 q 572 873 525 895 q 608 865 590 865 q 685 913 663 865 q 693 948 693 930 z "},"Ò":{"ha":955,"x_min":56,"x_max":899,"o":"m 481 827 q 184 716 307 827 q 56 411 56 598 q 209 76 56 195 q 477 -14 324 -14 q 772 99 651 -14 q 899 406 899 218 q 742 745 899 628 q 481 827 631 827 m 481 26 q 266 203 313 26 q 244 406 244 286 q 452 787 244 768 q 477 788 465 788 q 699 567 659 788 q 711 411 711 499 q 543 33 711 77 q 481 26 514 26 m 620 857 q 495 1000 568 905 q 452 1048 469 1035 q 411 1065 431 1065 q 347 1023 369 1065 q 339 989 339 1005 q 365 939 340 958 q 490 882 384 924 q 600 830 556 854 l 620 857 z "},"Ő":{"ha":955,"x_min":56,"x_max":899,"o":"m 481 827 q 184 716 307 827 q 56 411 56 598 q 209 76 56 195 q 477 -14 324 -14 q 772 99 651 -14 q 899 406 899 218 q 742 745 899 628 q 481 827 631 827 m 481 26 q 266 203 313 26 q 244 406 244 286 q 452 787 244 768 q 477 788 465 788 q 699 567 659 788 q 711 411 711 499 q 543 33 711 77 q 481 26 514 26 m 525 970 q 548 1020 549 989 q 509 1081 547 1062 q 476 1089 492 1089 q 437 1073 456 1088 q 372 990 422 1061 q 279 880 327 926 l 300 856 q 457 932 334 876 q 525 970 507 954 m 764 933 q 795 979 789 949 q 764 1048 800 1023 q 735 1061 750 1058 q 693 1050 711 1062 q 613 979 675 1039 q 506 888 559 925 l 522 859 q 696 910 564 876 q 764 933 745 922 z "},"Ō":{"ha":955,"x_min":56,"x_max":899,"o":"m 481 827 q 184 716 307 827 q 56 411 56 598 q 209 76 56 195 q 477 -14 324 -14 q 772 99 651 -14 q 899 406 899 218 q 742 745 899 628 q 481 827 631 827 m 481 26 q 266 203 313 26 q 244 406 244 286 q 452 787 244 768 q 477 788 465 788 q 699 567 659 788 q 711 411 711 499 q 543 33 711 77 q 481 26 514 26 m 273 909 l 699 909 l 699 981 l 273 981 l 273 909 z "},"Ø":{"ha":955,"x_min":56,"x_max":899,"o":"m 481 827 q 184 716 307 827 q 56 411 56 598 q 210 75 56 195 q 277 33 241 50 l 180 -210 l 285 -210 l 368 0 q 477 -14 419 -14 q 772 99 651 -14 q 899 406 899 218 q 742 745 899 628 q 677 784 711 768 l 747 963 l 643 963 l 585 817 q 481 827 532 827 m 244 406 q 452 787 244 768 q 477 788 465 788 q 567 772 529 788 l 307 110 q 244 406 244 203 m 481 26 q 385 43 426 26 l 647 707 q 711 411 711 612 q 543 33 711 77 q 481 26 514 26 z "},"Õ":{"ha":955,"x_min":56,"x_max":899,"o":"m 481 827 q 184 716 307 827 q 56 411 56 598 q 209 76 56 195 q 477 -14 324 -14 q 772 99 651 -14 q 899 406 899 218 q 742 745 899 628 q 481 827 631 827 m 481 26 q 266 203 313 26 q 244 406 244 286 q 452 787 244 768 q 477 788 465 788 q 699 567 659 788 q 711 411 711 499 q 543 33 711 77 q 481 26 514 26 m 407 1053 q 514 1008 448 1053 q 598 970 568 970 q 673 1046 654 972 l 701 1040 q 605 879 684 905 q 574 873 590 873 q 467 918 533 873 q 385 956 412 956 q 311 894 331 956 q 308 882 309 887 l 281 886 q 377 1048 297 1024 q 407 1053 392 1053 z "},"P":{"ha":762,"x_min":35,"x_max":741,"o":"m 411 777 q 560 627 544 777 q 562 590 562 609 q 416 399 562 410 q 400 399 408 399 l 311 399 l 311 777 l 411 777 m 446 0 q 410 37 438 34 l 311 37 l 311 358 l 425 358 q 719 496 654 358 q 741 598 741 543 q 627 783 741 727 q 472 814 563 814 l 35 814 l 35 777 l 144 777 l 144 37 l 35 37 l 35 0 l 446 0 z "},"Q":{"ha":960,"x_min":58,"x_max":993,"o":"m 484 827 q 186 715 308 827 q 58 410 58 595 q 210 77 58 198 q 480 -14 326 -14 q 581 -3 529 -14 q 674 -136 651 -110 q 810 -209 739 -208 q 993 -42 924 -206 l 962 -24 q 834 -98 888 -95 q 693 -8 772 -98 q 665 26 682 5 q 875 250 818 95 q 902 407 902 324 q 745 745 902 628 q 484 827 632 827 m 463 168 q 328 81 389 167 q 244 406 244 167 q 434 784 244 750 q 481 788 457 788 q 704 567 665 788 q 716 412 716 499 q 624 73 715 156 q 463 168 534 165 m 483 26 q 358 57 407 27 q 452 110 407 109 q 555 35 502 109 q 483 26 525 26 z "},"R":{"ha":831,"x_min":35,"x_max":831,"o":"m 419 0 l 419 37 l 311 37 l 311 372 l 397 372 l 604 -1 l 831 0 q 814 34 831 30 q 798 35 806 35 l 769 35 l 556 387 q 732 533 694 423 q 743 601 743 567 q 654 764 743 703 q 472 814 579 814 l 35 814 l 35 777 l 144 777 l 144 37 l 35 37 l 35 0 l 419 0 m 404 777 q 552 675 514 777 q 566 597 566 639 q 496 438 566 488 q 412 412 460 412 l 311 412 l 311 777 l 404 777 z "},"Ŕ":{"ha":831,"x_min":35,"x_max":831,"o":"m 419 0 l 419 37 l 311 37 l 311 372 l 397 372 l 604 -1 l 831 0 q 814 34 831 30 q 798 35 806 35 l 769 35 l 556 387 q 732 533 694 423 q 743 601 743 567 q 654 764 743 703 q 472 814 579 814 l 35 814 l 35 777 l 144 777 l 144 37 l 35 37 l 35 0 l 419 0 m 404 777 q 552 675 514 777 q 566 597 566 639 q 496 438 566 488 q 412 412 460 412 l 311 412 l 311 777 l 404 777 m 543 939 q 568 989 567 959 q 529 1055 568 1032 q 496 1065 513 1065 q 456 1048 476 1065 q 387 966 439 1036 q 288 857 338 903 l 308 830 q 473 903 345 850 q 543 939 524 924 z "},"Ř":{"ha":831,"x_min":35,"x_max":831,"o":"m 419 0 l 419 37 l 311 37 l 311 372 l 397 372 l 604 -1 l 831 0 q 814 34 831 30 q 798 35 806 35 l 769 35 l 556 387 q 732 533 694 423 q 743 601 743 567 q 654 764 743 703 q 472 814 579 814 l 35 814 l 35 777 l 144 777 l 144 37 l 35 37 l 35 0 l 419 0 m 404 777 q 552 675 514 777 q 566 597 566 639 q 496 438 566 488 q 412 412 460 412 l 311 412 l 311 777 l 404 777 m 414 856 q 496 906 453 856 q 528 944 506 917 q 613 1043 578 1005 l 594 1067 q 412 978 510 1017 q 231 1067 315 1020 l 212 1042 q 323 914 236 1017 q 414 856 380 860 z "},"S":{"ha":747,"x_min":77,"x_max":688,"o":"m 688 222 q 560 416 688 338 q 414 490 541 427 q 269 604 297 548 q 254 665 254 633 q 332 776 254 746 q 399 788 363 788 q 567 708 510 788 q 605 579 605 654 l 654 579 l 654 822 q 610 796 616 822 q 609 774 609 787 q 378 827 502 827 q 138 743 221 827 q 84 612 84 688 q 212 420 84 498 q 361 346 232 410 q 509 231 480 288 q 524 171 524 202 q 435 41 524 76 q 357 26 400 26 q 144 184 195 26 q 126 282 130 229 l 77 282 l 77 -3 q 118 18 111 -3 q 121 56 121 30 q 369 -14 227 -14 q 625 73 536 -14 q 688 222 688 134 z "},"Ś":{"ha":747,"x_min":77,"x_max":688,"o":"m 688 222 q 560 416 688 338 q 414 490 541 427 q 269 604 297 548 q 254 665 254 633 q 332 776 254 746 q 399 788 363 788 q 567 708 510 788 q 605 579 605 654 l 654 579 l 654 822 q 610 796 616 822 q 609 774 609 787 q 378 827 502 827 q 138 743 221 827 q 84 612 84 688 q 212 420 84 498 q 361 346 232 410 q 509 231 480 288 q 524 171 524 202 q 435 41 524 76 q 357 26 400 26 q 144 184 195 26 q 126 282 130 229 l 77 282 l 77 -3 q 118 18 111 -3 q 121 56 121 30 q 369 -14 227 -14 q 625 73 536 -14 q 688 222 688 134 m 533 939 q 559 989 557 959 q 519 1055 559 1032 q 487 1065 503 1065 q 446 1048 467 1065 q 377 966 430 1036 q 278 857 328 903 l 298 830 q 464 903 335 850 q 533 939 514 924 z "},"Š":{"ha":747,"x_min":77,"x_max":688,"o":"m 688 222 q 560 416 688 338 q 414 490 541 427 q 269 604 297 548 q 254 665 254 633 q 332 776 254 746 q 399 788 363 788 q 567 708 510 788 q 605 579 605 654 l 654 579 l 654 822 q 610 796 616 822 q 609 774 609 787 q 378 827 502 827 q 138 743 221 827 q 84 612 84 688 q 212 420 84 498 q 361 346 232 410 q 509 231 480 288 q 524 171 524 202 q 435 41 524 76 q 357 26 400 26 q 144 184 195 26 q 126 282 130 229 l 77 282 l 77 -3 q 118 18 111 -3 q 121 56 121 30 q 369 -14 227 -14 q 625 73 536 -14 q 688 222 688 134 m 404 856 q 487 906 444 856 q 518 944 496 917 q 604 1043 568 1005 l 585 1067 q 403 978 500 1017 q 221 1067 305 1020 l 202 1042 q 313 914 227 1017 q 404 856 370 860 z "},"T":{"ha":762,"x_min":28,"x_max":732,"o":"m 591 0 q 556 37 581 34 l 464 37 l 464 777 l 505 777 q 646 677 604 777 q 658 643 652 661 l 693 530 l 732 530 l 727 814 l 35 814 l 28 530 l 69 530 l 104 643 q 209 770 137 749 q 258 777 231 777 l 297 777 l 297 37 l 168 37 l 168 0 l 591 0 z "},"Ť":{"ha":762,"x_min":28,"x_max":732,"o":"m 591 0 q 556 37 581 34 l 464 37 l 464 777 l 505 777 q 646 677 604 777 q 658 643 652 661 l 693 530 l 732 530 l 727 814 l 35 814 l 28 530 l 69 530 l 104 643 q 209 770 137 749 q 258 777 231 777 l 297 777 l 297 37 l 168 37 l 168 0 l 591 0 m 382 856 q 465 906 422 856 q 496 944 475 917 q 582 1043 547 1005 l 563 1067 q 381 978 479 1017 q 199 1067 283 1020 l 180 1042 q 292 914 205 1017 q 382 856 349 860 z "},"Þ":{"ha":785,"x_min":34,"x_max":728,"o":"m 400 614 q 549 445 541 614 q 549 427 549 435 q 388 236 547 237 l 300 236 l 300 614 l 400 614 m 401 0 q 385 35 401 31 q 368 37 377 37 l 300 37 l 300 195 l 414 195 q 708 335 643 195 q 728 435 728 381 q 613 621 728 566 q 461 651 549 651 l 300 651 l 300 777 l 401 777 l 401 814 l 34 814 l 34 777 l 133 777 l 133 37 l 34 37 l 34 0 l 401 0 z "},"U":{"ha":871,"x_min":14,"x_max":864,"o":"m 14 777 l 122 777 l 122 301 q 457 -14 125 -12 q 735 159 680 -14 q 755 317 755 225 l 755 777 l 864 777 l 864 814 l 598 814 l 598 777 l 707 777 l 707 309 q 486 26 705 27 q 298 187 332 26 q 288 311 288 240 l 288 777 l 396 777 l 396 814 l 14 814 l 14 777 z "},"Ú":{"ha":871,"x_min":14,"x_max":864,"o":"m 14 777 l 122 777 l 122 301 q 457 -14 125 -12 q 735 159 680 -14 q 755 317 755 225 l 755 777 l 864 777 l 864 814 l 598 814 l 598 777 l 707 777 l 707 309 q 486 26 705 27 q 298 187 332 26 q 288 311 288 240 l 288 777 l 396 777 l 396 814 l 14 814 l 14 777 m 598 939 q 624 989 623 959 q 585 1055 624 1032 q 552 1065 568 1065 q 511 1048 532 1065 q 442 966 495 1036 q 343 857 393 903 l 363 830 q 529 903 400 850 q 598 939 579 924 z "},"Û":{"ha":871,"x_min":14,"x_max":864,"o":"m 14 777 l 122 777 l 122 301 q 457 -14 125 -12 q 735 159 680 -14 q 755 317 755 225 l 755 777 l 864 777 l 864 814 l 598 814 l 598 777 l 707 777 l 707 309 q 486 26 705 27 q 298 187 332 26 q 288 311 288 240 l 288 777 l 396 777 l 396 814 l 14 814 l 14 777 m 635 854 l 652 879 q 547 1002 624 907 q 465 1055 496 1051 q 391 1009 429 1055 q 363 977 382 1000 q 281 878 316 916 l 298 854 q 468 939 374 899 q 635 854 548 905 z "},"Ü":{"ha":871,"x_min":14,"x_max":864,"o":"m 14 777 l 122 777 l 122 301 q 457 -14 125 -12 q 735 159 680 -14 q 755 317 755 225 l 755 777 l 864 777 l 864 814 l 598 814 l 598 777 l 707 777 l 707 309 q 486 26 705 27 q 298 187 332 26 q 288 311 288 240 l 288 777 l 396 777 l 396 814 l 14 814 l 14 777 m 425 948 q 380 1023 425 998 q 342 1032 361 1032 q 264 985 289 1032 q 256 948 256 967 q 304 873 256 895 q 342 865 323 865 q 415 910 392 865 q 425 948 425 928 m 677 948 q 631 1023 677 1000 q 591 1032 612 1032 q 518 987 543 1032 q 509 948 509 968 q 556 873 509 895 q 591 865 574 865 q 669 913 647 865 q 677 948 677 930 z "},"Ù":{"ha":871,"x_min":14,"x_max":864,"o":"m 14 777 l 122 777 l 122 301 q 457 -14 125 -12 q 735 159 680 -14 q 755 317 755 225 l 755 777 l 864 777 l 864 814 l 598 814 l 598 777 l 707 777 l 707 309 q 486 26 705 27 q 298 187 332 26 q 288 311 288 240 l 288 777 l 396 777 l 396 814 l 14 814 l 14 777 m 604 857 q 479 1000 552 905 q 435 1048 453 1035 q 395 1065 415 1065 q 331 1023 353 1065 q 323 989 323 1005 q 349 939 324 958 q 473 882 368 924 q 583 830 540 854 l 604 857 z "},"Ű":{"ha":871,"x_min":14,"x_max":864,"o":"m 14 777 l 122 777 l 122 301 q 457 -14 125 -12 q 735 159 680 -14 q 755 317 755 225 l 755 777 l 864 777 l 864 814 l 598 814 l 598 777 l 707 777 l 707 309 q 486 26 705 27 q 298 187 332 26 q 288 311 288 240 l 288 777 l 396 777 l 396 814 l 14 814 l 14 777 m 509 970 q 532 1020 533 989 q 492 1081 530 1062 q 460 1089 476 1089 q 420 1073 439 1088 q 355 990 406 1061 q 263 880 311 926 l 283 856 q 441 932 317 876 q 509 970 491 954 m 747 933 q 779 979 773 949 q 747 1048 784 1023 q 719 1061 734 1058 q 677 1050 694 1062 q 597 979 659 1039 q 490 888 543 925 l 506 859 q 680 910 548 876 q 747 933 728 922 z "},"Ū":{"ha":871,"x_min":14,"x_max":864,"o":"m 14 777 l 122 777 l 122 301 q 457 -14 125 -12 q 735 159 680 -14 q 755 317 755 225 l 755 777 l 864 777 l 864 814 l 598 814 l 598 777 l 707 777 l 707 309 q 486 26 705 27 q 298 187 332 26 q 288 311 288 240 l 288 777 l 396 777 l 396 814 l 14 814 l 14 777 m 256 909 l 682 909 l 682 981 l 256 981 l 256 909 z "},"Ų":{"ha":871,"x_min":14,"x_max":864,"o":"m 14 777 l 122 777 l 122 301 q 457 -14 125 -12 q 735 159 680 -14 q 755 317 755 225 l 755 777 l 864 777 l 864 814 l 598 814 l 598 777 l 707 777 l 707 309 q 486 26 705 27 q 298 187 332 26 q 288 311 288 240 l 288 777 l 396 777 l 396 814 l 14 814 l 14 777 m 571 -220 q 521 -152 522 -217 q 590 -34 521 -88 q 648 0 617 -14 l 647 14 q 401 -110 449 -14 q 389 -159 389 -134 q 464 -250 389 -224 q 530 -260 495 -260 q 659 -210 613 -259 l 643 -189 q 571 -220 605 -220 z "},"Ů":{"ha":871,"x_min":14,"x_max":864,"o":"m 14 777 l 122 777 l 122 301 q 457 -14 125 -12 q 735 159 680 -14 q 755 317 755 225 l 755 777 l 864 777 l 864 814 l 598 814 l 598 777 l 707 777 l 707 309 q 486 26 705 27 q 298 187 332 26 q 288 311 288 240 l 288 777 l 396 777 l 396 814 l 14 814 l 14 777 m 438 955 q 496 1050 439 1048 q 556 958 556 1048 q 496 863 555 864 q 438 955 438 864 m 500 1082 q 353 1005 385 1082 q 343 958 343 982 q 420 844 343 873 q 494 830 453 830 q 640 907 605 830 q 651 959 651 932 q 575 1070 651 1039 q 500 1082 541 1082 z "},"V":{"ha":798,"x_min":-11,"x_max":798,"o":"m 448 -7 l 730 777 l 798 777 l 798 814 l 568 814 l 568 777 l 677 777 l 464 182 l 229 777 l 336 777 l 336 814 l -11 814 l -11 777 l 62 777 l 327 100 q 378 4 359 18 q 423 -7 393 -7 l 448 -7 z "},"W":{"ha":1184,"x_min":-11,"x_max":1184,"o":"m 854 0 l 1116 777 l 1184 777 l 1184 814 l 962 814 l 962 777 l 1070 777 l 872 179 l 659 779 l 768 777 l 768 814 l 480 814 l 579 549 l 444 171 l 225 777 l 334 777 l 334 814 l -11 814 l -11 777 l 61 777 l 317 98 q 372 4 347 16 q 403 -3 384 -3 l 425 -3 l 602 487 l 749 98 q 799 7 779 19 q 831 0 810 0 l 854 0 z "},"X":{"ha":848,"x_min":9,"x_max":848,"o":"m 263 0 l 263 37 l 155 37 l 378 350 l 585 37 l 487 37 l 487 0 l 848 0 q 811 37 840 34 l 769 37 l 487 457 l 689 739 q 747 777 715 774 q 762 777 754 777 q 798 814 795 788 l 559 814 l 559 777 l 667 777 l 464 492 l 273 777 l 370 777 l 370 814 l 16 814 l 16 777 l 96 777 l 353 388 l 129 75 q 45 37 99 37 q 9 0 12 26 l 263 0 z "},"Y":{"ha":774,"x_min":-4,"x_max":774,"o":"m 591 0 q 555 37 583 34 l 477 37 l 477 349 l 669 739 q 738 777 694 776 q 774 814 772 785 l 534 814 l 534 777 l 643 777 l 453 395 l 248 777 l 351 777 l 351 814 l -4 814 l -4 777 l 64 777 l 312 338 l 312 37 l 198 37 l 198 0 l 591 0 z "},"Ý":{"ha":774,"x_min":-4,"x_max":774,"o":"m 591 0 q 555 37 583 34 l 477 37 l 477 349 l 669 739 q 738 777 694 776 q 774 814 772 785 l 534 814 l 534 777 l 643 777 l 453 395 l 248 777 l 351 777 l 351 814 l -4 814 l -4 777 l 64 777 l 312 338 l 312 37 l 198 37 l 198 0 l 591 0 m 552 939 q 578 989 576 959 q 538 1055 578 1032 q 506 1065 522 1065 q 465 1048 486 1065 q 396 966 449 1036 q 297 857 347 903 l 317 830 q 483 903 354 850 q 552 939 533 924 z "},"Ÿ":{"ha":774,"x_min":-4,"x_max":774,"o":"m 591 0 q 555 37 583 34 l 477 37 l 477 349 l 669 739 q 738 777 694 776 q 774 814 772 785 l 534 814 l 534 777 l 643 777 l 453 395 l 248 777 l 351 777 l 351 814 l -4 814 l -4 777 l 64 777 l 312 338 l 312 37 l 198 37 l 198 0 l 591 0 m 378 948 q 334 1023 378 998 q 296 1032 315 1032 q 218 985 243 1032 q 210 948 210 967 q 258 873 210 895 q 296 865 275 865 q 369 910 346 865 q 378 948 378 928 m 631 948 q 585 1023 631 1000 q 545 1032 566 1032 q 472 987 496 1032 q 463 948 463 968 q 510 873 463 895 q 545 865 528 865 q 623 913 601 865 q 631 948 631 930 z "},"Z":{"ha":747,"x_min":30,"x_max":712,"o":"m 709 0 l 712 281 l 674 281 l 637 151 q 505 37 605 38 l 216 37 l 704 784 l 704 814 l 94 814 l 83 568 l 119 568 l 175 690 q 285 777 217 776 l 530 779 l 30 28 l 30 0 l 709 0 z "},"Ź":{"ha":747,"x_min":30,"x_max":712,"o":"m 709 0 l 712 281 l 674 281 l 637 151 q 505 37 605 38 l 216 37 l 704 784 l 704 814 l 94 814 l 83 568 l 119 568 l 175 690 q 285 777 217 776 l 530 779 l 30 28 l 30 0 l 709 0 m 547 939 q 572 989 571 959 q 533 1055 572 1032 q 500 1065 517 1065 q 460 1048 480 1065 q 391 966 444 1036 q 292 857 342 903 l 312 830 q 477 903 349 850 q 547 939 528 924 z "},"Ž":{"ha":747,"x_min":30,"x_max":712,"o":"m 709 0 l 712 281 l 674 281 l 637 151 q 505 37 605 38 l 216 37 l 704 784 l 704 814 l 94 814 l 83 568 l 119 568 l 175 690 q 285 777 217 776 l 530 779 l 30 28 l 30 0 l 709 0 m 418 856 q 500 906 457 856 q 532 944 510 917 q 617 1043 582 1005 l 598 1067 q 416 978 514 1017 q 235 1067 319 1020 l 216 1042 q 327 914 240 1017 q 418 856 384 860 z "},"Ż":{"ha":747,"x_min":30,"x_max":712,"o":"m 709 0 l 712 281 l 674 281 l 637 151 q 505 37 605 38 l 216 37 l 704 784 l 704 814 l 94 814 l 83 568 l 119 568 l 175 690 q 285 777 217 776 l 530 779 l 30 28 l 30 0 l 709 0 m 509 941 q 458 1024 509 998 q 415 1035 437 1035 q 335 986 361 1035 q 323 941 323 964 q 374 860 323 884 q 415 850 393 850 q 498 898 472 850 q 509 941 509 920 z "},"a":{"ha":663,"x_min":34,"x_max":656,"o":"m 528 -14 q 647 62 624 -14 q 656 127 654 90 l 621 129 q 572 33 613 34 q 541 100 541 35 l 541 385 q 376 593 541 560 q 304 600 342 600 q 83 524 133 600 q 68 477 68 502 q 111 418 68 431 q 136 414 123 414 q 203 464 184 414 q 212 487 206 471 q 254 556 228 543 q 293 564 271 564 q 388 468 374 564 q 391 420 391 446 l 391 334 q 34 148 35 328 q 136 -3 34 31 q 206 -14 168 -14 q 373 62 313 -14 q 399 110 389 85 q 528 -14 420 -12 m 269 43 q 187 152 193 43 q 187 165 187 159 q 279 282 187 258 q 391 296 323 294 l 391 172 q 304 52 368 80 q 269 43 285 43 z "},"á":{"ha":663,"x_min":34,"x_max":656,"o":"m 528 -14 q 647 62 624 -14 q 656 127 654 90 l 621 129 q 572 33 613 34 q 541 100 541 35 l 541 385 q 376 593 541 560 q 304 600 342 600 q 83 524 133 600 q 68 477 68 502 q 111 418 68 431 q 136 414 123 414 q 203 464 184 414 q 212 487 206 471 q 254 556 228 543 q 293 564 271 564 q 388 468 374 564 q 391 420 391 446 l 391 334 q 34 148 35 328 q 136 -3 34 31 q 206 -14 168 -14 q 373 62 313 -14 q 399 110 389 85 q 528 -14 420 -12 m 269 43 q 187 152 193 43 q 187 165 187 159 q 279 282 187 258 q 391 296 323 294 l 391 172 q 304 52 368 80 q 269 43 285 43 m 463 762 q 488 812 487 783 q 449 879 488 856 q 416 888 433 888 q 376 872 396 888 q 307 789 359 860 q 208 681 258 727 l 228 654 q 393 727 264 674 q 463 762 444 747 z "},"ă":{"ha":663,"x_min":34,"x_max":656,"o":"m 528 -14 q 647 62 624 -14 q 656 127 654 90 l 621 129 q 572 33 613 34 q 541 100 541 35 l 541 385 q 376 593 541 560 q 304 600 342 600 q 83 524 133 600 q 68 477 68 502 q 111 418 68 431 q 136 414 123 414 q 203 464 184 414 q 212 487 206 471 q 254 556 228 543 q 293 564 271 564 q 388 468 374 564 q 391 420 391 446 l 391 334 q 34 148 35 328 q 136 -3 34 31 q 206 -14 168 -14 q 373 62 313 -14 q 399 110 389 85 q 528 -14 420 -12 m 269 43 q 187 152 193 43 q 187 165 187 159 q 279 282 187 258 q 391 296 323 294 l 391 172 q 304 52 368 80 q 269 43 285 43 m 336 789 q 472 854 449 789 q 476 869 475 863 l 505 869 q 418 703 505 746 q 332 685 380 685 q 170 796 206 685 q 159 869 159 830 l 186 869 q 336 789 203 789 z "},"â":{"ha":663,"x_min":34,"x_max":656,"o":"m 528 -14 q 647 62 624 -14 q 656 127 654 90 l 621 129 q 572 33 613 34 q 541 100 541 35 l 541 385 q 376 593 541 560 q 304 600 342 600 q 83 524 133 600 q 68 477 68 502 q 111 418 68 431 q 136 414 123 414 q 203 464 184 414 q 212 487 206 471 q 254 556 228 543 q 293 564 271 564 q 388 468 374 564 q 391 420 391 446 l 391 334 q 34 148 35 328 q 136 -3 34 31 q 206 -14 168 -14 q 373 62 313 -14 q 399 110 389 85 q 528 -14 420 -12 m 269 43 q 187 152 193 43 q 187 165 187 159 q 279 282 187 258 q 391 296 323 294 l 391 172 q 304 52 368 80 q 269 43 285 43 m 500 678 l 518 703 q 412 826 490 731 q 331 879 362 875 q 256 833 294 879 q 229 800 248 823 q 146 701 182 739 l 164 678 q 334 762 240 723 q 500 678 414 728 z "},"´":{"ha":678,"x_min":244,"x_max":525,"o":"m 499 762 q 525 812 524 783 q 486 879 525 856 q 453 888 469 888 q 412 872 433 888 q 343 789 396 860 q 244 681 294 727 l 264 654 q 430 727 301 674 q 499 762 480 747 z "},"ä":{"ha":663,"x_min":34,"x_max":656,"o":"m 528 -14 q 647 62 624 -14 q 656 127 654 90 l 621 129 q 572 33 613 34 q 541 100 541 35 l 541 385 q 376 593 541 560 q 304 600 342 600 q 83 524 133 600 q 68 477 68 502 q 111 418 68 431 q 136 414 123 414 q 203 464 184 414 q 212 487 206 471 q 254 556 228 543 q 293 564 271 564 q 388 468 374 564 q 391 420 391 446 l 391 334 q 34 148 35 328 q 136 -3 34 31 q 206 -14 168 -14 q 373 62 313 -14 q 399 110 389 85 q 528 -14 420 -12 m 269 43 q 187 152 193 43 q 187 165 187 159 q 279 282 187 258 q 391 296 323 294 l 391 172 q 304 52 368 80 q 269 43 285 43 m 289 772 q 244 846 289 822 q 206 856 225 856 q 129 808 153 856 q 121 772 121 791 q 168 697 121 719 q 206 689 187 689 q 279 734 256 689 q 289 772 289 751 m 541 772 q 495 846 541 823 q 456 856 476 856 q 382 811 407 856 q 373 772 373 792 q 420 697 373 719 q 456 689 438 689 q 533 736 511 689 q 541 772 541 754 z "},"æ":{"ha":972,"x_min":28,"x_max":933,"o":"m 670 566 q 776 420 774 562 q 730 340 776 355 q 646 334 701 332 l 540 338 q 670 566 547 564 m 921 141 l 887 148 q 764 35 848 62 q 705 26 734 26 q 540 292 548 26 q 540 300 540 296 l 677 297 q 918 351 876 293 q 933 406 933 374 q 826 567 933 513 q 675 600 760 600 q 488 530 563 598 q 302 600 425 600 q 75 521 123 600 q 62 477 62 500 q 106 418 62 431 q 130 414 118 414 q 198 464 178 414 q 205 486 199 472 q 248 556 222 541 q 292 566 267 566 q 393 420 392 563 l 393 334 q 30 165 45 330 q 28 148 28 156 q 132 -3 28 31 q 202 -14 164 -14 q 382 71 316 -14 q 419 141 407 103 q 677 -14 479 -12 q 902 102 836 -14 q 921 141 914 121 m 267 43 q 182 165 183 46 q 281 285 182 259 q 393 297 326 296 l 393 172 q 304 52 370 81 q 267 43 285 43 z "},"à":{"ha":663,"x_min":34,"x_max":656,"o":"m 528 -14 q 647 62 624 -14 q 656 127 654 90 l 621 129 q 572 33 613 34 q 541 100 541 35 l 541 385 q 376 593 541 560 q 304 600 342 600 q 83 524 133 600 q 68 477 68 502 q 111 418 68 431 q 136 414 123 414 q 203 464 184 414 q 212 487 206 471 q 254 556 228 543 q 293 564 271 564 q 388 468 374 564 q 391 420 391 446 l 391 334 q 34 148 35 328 q 136 -3 34 31 q 206 -14 168 -14 q 373 62 313 -14 q 399 110 389 85 q 528 -14 420 -12 m 269 43 q 187 152 193 43 q 187 165 187 159 q 279 282 187 258 q 391 296 323 294 l 391 172 q 304 52 368 80 q 269 43 285 43 m 468 681 q 343 823 416 728 q 300 872 317 859 q 259 888 279 888 q 195 846 217 888 q 187 812 187 829 q 213 762 189 781 q 338 705 232 747 q 448 654 404 678 l 468 681 z "},"ā":{"ha":663,"x_min":34,"x_max":656,"o":"m 528 -14 q 647 62 624 -14 q 656 127 654 90 l 621 129 q 572 33 613 34 q 541 100 541 35 l 541 385 q 376 593 541 560 q 304 600 342 600 q 83 524 133 600 q 68 477 68 502 q 111 418 68 431 q 136 414 123 414 q 203 464 184 414 q 212 487 206 471 q 254 556 228 543 q 293 564 271 564 q 388 468 374 564 q 391 420 391 446 l 391 334 q 34 148 35 328 q 136 -3 34 31 q 206 -14 168 -14 q 373 62 313 -14 q 399 110 389 85 q 528 -14 420 -12 m 269 43 q 187 152 193 43 q 187 165 187 159 q 279 282 187 258 q 391 296 323 294 l 391 172 q 304 52 368 80 q 269 43 285 43 m 122 732 l 548 732 l 548 804 l 122 804 l 122 732 z "},"&":{"ha":800,"x_min":38,"x_max":818,"o":"m 326 689 q 381 785 326 764 q 415 791 397 791 q 507 713 496 791 q 509 692 509 703 q 441 576 509 628 q 373 541 410 555 q 326 689 326 635 m 366 27 q 199 175 225 27 q 193 274 193 217 q 258 461 194 430 q 526 77 349 283 q 366 27 454 27 m 715 433 l 713 433 l 718 433 l 760 434 q 795 450 791 434 q 798 471 798 460 l 602 471 l 602 435 l 677 435 q 620 187 677 293 q 389 510 471 366 q 533 632 494 547 q 547 692 547 663 q 461 817 547 787 q 396 827 431 827 q 225 750 278 827 q 197 654 197 708 q 243 492 198 590 q 46 305 80 445 q 38 239 38 273 q 134 42 38 114 q 323 -14 210 -14 q 548 52 457 -12 q 595 0 581 16 l 818 0 q 796 34 818 31 q 784 35 791 35 l 753 35 q 646 156 692 102 q 715 433 715 270 z "},"ං":{"ha":481,"x_min":38,"x_max":420,"o":"m 102 248 q 161 144 102 180 q 229 125 194 125 q 338 184 301 125 q 355 248 355 214 q 296 351 355 316 q 229 369 264 369 q 119 311 157 369 q 102 248 102 281 m 38 218 q 115 369 38 312 q 229 406 167 406 q 382 330 326 406 q 420 218 420 279 q 343 68 420 125 q 229 31 292 31 q 76 107 133 31 q 38 218 38 157 z "},"ą":{"ha":663,"x_min":34,"x_max":656,"o":"m 269 43 q 187 152 193 43 q 187 165 187 159 q 279 282 187 258 q 391 296 323 294 l 391 172 q 304 52 368 80 q 269 43 285 43 m 538 -220 q 488 -152 490 -217 q 557 -34 488 -88 q 616 0 585 -14 l 614 11 q 656 127 652 43 l 621 129 q 572 33 613 34 q 541 100 541 35 l 541 385 q 376 593 541 560 q 304 600 342 600 q 83 524 133 600 q 68 477 68 502 q 111 418 68 431 q 136 414 123 414 q 203 464 184 414 q 212 487 206 471 q 254 556 228 543 q 293 564 271 564 q 388 468 374 564 q 391 420 391 446 l 391 334 q 34 148 35 328 q 136 -3 34 31 q 206 -14 168 -14 q 373 62 313 -14 q 399 110 389 85 q 503 -12 418 3 q 358 -144 370 -58 q 357 -159 357 -152 q 431 -250 357 -224 q 498 -260 463 -260 q 627 -210 581 -259 l 610 -189 q 538 -220 572 -220 z "},"≈":{"ha":659,"x_min":45,"x_max":614,"o":"m 216 530 q 365 477 273 530 q 475 435 441 435 q 579 533 549 438 l 614 525 q 514 358 597 400 q 450 343 484 343 q 301 393 395 343 q 186 437 222 437 q 80 338 111 434 l 45 346 q 151 515 65 473 q 216 530 180 530 m 216 307 q 365 254 273 307 q 475 212 441 212 q 579 308 549 214 l 614 300 q 513 134 597 175 q 450 119 483 119 q 301 170 395 119 q 186 213 222 213 q 80 113 111 210 l 45 122 q 149 290 65 247 q 216 307 180 307 z "},"å":{"ha":663,"x_min":34,"x_max":656,"o":"m 528 -14 q 647 62 624 -14 q 656 127 654 90 l 621 129 q 572 33 613 34 q 541 100 541 35 l 541 385 q 376 593 541 560 q 304 600 342 600 q 83 524 133 600 q 68 477 68 502 q 111 418 68 431 q 136 414 123 414 q 203 464 184 414 q 212 487 206 471 q 254 556 228 543 q 293 564 271 564 q 388 468 374 564 q 391 420 391 446 l 391 334 q 34 148 35 328 q 136 -3 34 31 q 206 -14 168 -14 q 373 62 313 -14 q 399 110 389 85 q 528 -14 420 -12 m 269 43 q 187 152 193 43 q 187 165 187 159 q 279 282 187 258 q 391 296 323 294 l 391 172 q 304 52 368 80 q 269 43 285 43 m 267 779 q 326 873 269 872 q 385 781 385 872 q 326 686 384 688 q 267 779 267 688 m 330 906 q 182 829 214 906 q 172 781 172 806 q 250 667 172 697 q 323 654 282 654 q 469 731 434 654 q 480 783 480 755 q 404 894 480 863 q 330 906 370 906 z "},"^":{"ha":715,"x_min":99,"x_max":616,"o":"m 99 453 l 144 425 l 358 772 l 572 425 l 616 453 l 373 846 l 343 846 l 99 453 z "},"~":{"ha":659,"x_min":45,"x_max":614,"o":"m 216 433 q 363 380 273 433 q 475 336 441 336 q 579 434 548 339 l 614 426 q 517 258 597 302 q 450 241 486 241 q 301 292 395 241 q 186 335 222 335 q 80 239 110 332 l 45 248 q 149 416 65 373 q 216 433 180 433 z "},"*":{"ha":498,"x_min":41,"x_max":461,"o":"m 251 882 q 193 846 202 882 q 191 836 191 841 q 217 743 191 819 q 236 677 231 707 q 160 758 220 690 q 99 802 121 800 q 49 760 66 802 q 42 730 42 743 q 62 693 43 704 q 157 670 77 684 q 222 654 195 662 q 104 625 201 646 q 62 612 76 618 q 41 575 42 598 q 72 514 41 537 q 100 505 87 505 q 174 560 126 505 q 236 629 217 612 q 201 513 232 608 q 191 468 191 484 q 250 423 202 429 q 308 458 298 423 q 309 469 309 464 q 282 562 309 487 q 263 629 270 600 q 339 548 278 617 q 401 503 378 505 q 453 545 434 503 q 460 575 460 562 q 438 612 458 600 q 345 635 423 620 q 277 652 305 643 q 396 680 300 661 q 438 693 425 686 q 461 730 460 707 q 429 791 461 768 q 400 800 414 800 q 331 747 374 800 q 263 674 286 693 q 300 791 267 692 q 309 837 309 821 q 251 882 298 876 z "},"@":{"ha":1215,"x_min":69,"x_max":1138,"o":"m 921 -160 l 905 -125 q 665 -182 787 -182 q 347 -52 475 -182 q 217 294 217 84 q 370 673 217 552 q 613 751 469 751 q 916 616 803 751 q 1019 285 1019 490 q 954 72 1019 134 q 898 47 928 47 q 842 123 844 50 l 842 374 q 680 567 842 541 q 623 571 652 571 q 419 500 463 571 q 408 461 408 481 q 452 406 408 415 q 471 403 461 403 q 537 450 521 403 q 543 472 540 457 q 581 533 556 521 q 612 538 594 538 q 692 465 678 538 q 696 410 696 442 l 696 331 q 372 161 378 320 q 477 22 372 47 q 534 15 505 15 q 686 91 636 15 q 703 123 696 107 q 879 14 722 15 q 1090 130 1020 14 q 1138 312 1138 208 q 949 700 1138 571 q 624 792 814 792 q 206 632 359 792 q 69 260 69 487 q 240 -104 69 37 q 618 -232 397 -231 q 921 -160 780 -232 m 591 72 q 524 178 525 75 q 623 288 524 266 q 696 296 654 294 l 696 184 q 608 73 670 88 q 591 72 600 72 z "},"ã":{"ha":663,"x_min":34,"x_max":656,"o":"m 528 -14 q 647 62 624 -14 q 656 127 654 90 l 621 129 q 572 33 613 34 q 541 100 541 35 l 541 385 q 376 593 541 560 q 304 600 342 600 q 83 524 133 600 q 68 477 68 502 q 111 418 68 431 q 136 414 123 414 q 203 464 184 414 q 212 487 206 471 q 254 556 228 543 q 293 564 271 564 q 388 468 374 564 q 391 420 391 446 l 391 334 q 34 148 35 328 q 136 -3 34 31 q 206 -14 168 -14 q 373 62 313 -14 q 399 110 389 85 q 528 -14 420 -12 m 269 43 q 187 152 193 43 q 187 165 187 159 q 279 282 187 258 q 391 296 323 294 l 391 172 q 304 52 368 80 q 269 43 285 43 m 255 876 q 362 831 296 876 q 446 793 416 793 q 521 869 502 796 l 549 864 q 453 703 532 728 q 422 697 438 697 q 315 742 381 697 q 233 780 260 780 q 159 718 179 780 q 156 705 157 711 l 129 709 q 225 872 145 848 q 255 876 240 876 z "},"b":{"ha":751,"x_min":26,"x_max":708,"o":"m 427 -14 q 635 83 555 -14 q 708 305 708 171 q 608 553 708 473 q 473 600 549 600 q 263 461 330 600 q 260 456 262 458 l 260 882 l 26 882 l 26 846 l 110 846 l 110 110 q 69 39 110 50 q 26 35 52 35 l 26 0 l 221 0 l 233 94 q 427 -14 300 -12 m 415 537 q 545 320 537 537 q 545 290 545 305 q 441 28 545 65 q 403 22 422 22 q 275 137 309 22 q 259 264 259 191 q 338 507 259 439 q 415 537 373 537 z "},"\\":{"ha":597,"x_min":-4,"x_max":563,"o":"m 458 -210 l -4 963 l 100 963 l 563 -210 l 458 -210 z "},"|":{"ha":359,"x_min":130,"x_max":229,"o":"m 130 -184 l 130 882 l 229 882 l 229 -184 l 130 -184 z "},"{":{"ha":543,"x_min":99,"x_max":515,"o":"m 350 201 l 350 -4 q 366 -114 350 -92 q 486 -145 388 -142 q 515 -145 500 -145 l 515 -184 q 283 -163 338 -184 q 203 -37 213 -134 q 202 5 202 -16 l 202 208 q 167 307 202 282 q 99 331 144 321 l 99 359 q 193 415 175 376 q 202 483 202 439 l 202 685 q 266 844 202 807 q 477 875 316 873 q 515 875 494 875 l 515 836 q 372 811 397 836 q 350 713 350 791 q 350 694 350 705 l 350 490 q 281 366 350 404 q 247 349 269 358 l 247 342 q 331 281 311 312 q 350 201 350 248 z "},"}":{"ha":538,"x_min":27,"x_max":444,"o":"m 193 487 l 193 692 q 176 802 193 780 q 57 833 155 830 q 27 833 42 833 l 27 872 q 259 850 205 872 q 339 724 330 822 q 340 682 340 704 l 340 480 q 376 381 340 406 q 444 357 399 366 l 444 328 q 350 273 368 312 q 340 205 340 248 l 340 3 q 277 -156 340 -119 q 65 -187 227 -186 q 27 -187 49 -187 l 27 -148 q 171 -123 145 -148 q 193 -26 193 -103 q 193 -7 193 -18 l 193 198 q 262 321 193 283 q 296 339 274 330 l 296 346 q 212 407 232 376 q 193 487 193 439 z "},"[":{"ha":499,"x_min":103,"x_max":467,"o":"m 467 -184 l 103 -184 l 103 875 l 467 875 l 467 836 l 255 836 l 255 -142 l 467 -145 l 467 -184 z "},"]":{"ha":517,"x_min":50,"x_max":414,"o":"m 50 -184 l 414 -184 l 414 875 l 50 875 l 50 836 l 262 836 l 262 -142 l 50 -145 l 50 -184 z "},"˘":{"ha":678,"x_min":167,"x_max":513,"o":"m 345 789 q 480 854 457 789 q 484 869 483 863 l 513 869 q 426 703 513 746 q 340 685 388 685 q 178 796 214 685 q 167 869 167 830 l 194 869 q 345 789 212 789 z "},"¦":{"ha":359,"x_min":130,"x_max":229,"o":"m 229 427 l 229 882 l 130 882 l 130 427 l 229 427 m 229 -184 l 229 270 l 130 270 l 130 -184 l 229 -184 z "},"•":{"ha":477,"x_min":95,"x_max":382,"o":"m 382 308 q 317 430 382 387 q 239 453 281 453 q 118 388 160 453 q 95 308 95 351 q 161 189 95 229 q 239 167 197 167 q 359 231 317 167 q 382 308 382 267 z "},"c":{"ha":608,"x_min":45,"x_max":601,"o":"m 45 289 q 184 26 45 103 q 350 -14 256 -14 q 566 76 491 -14 q 601 136 589 103 l 566 145 q 425 33 524 56 q 370 26 399 26 q 209 289 210 28 q 319 563 209 537 q 350 566 335 566 q 429 510 414 566 q 434 473 431 498 q 467 397 444 414 q 511 385 484 387 q 587 433 572 385 q 590 453 590 444 q 515 559 590 514 q 350 600 446 600 q 113 494 198 600 q 45 289 45 411 z "},"ć":{"ha":608,"x_min":45,"x_max":601,"o":"m 45 289 q 184 26 45 103 q 350 -14 256 -14 q 566 76 491 -14 q 601 136 589 103 l 566 145 q 425 33 524 56 q 370 26 399 26 q 209 289 210 28 q 319 563 209 537 q 350 566 335 566 q 429 510 414 566 q 434 473 431 498 q 467 397 444 414 q 511 385 484 387 q 587 433 572 385 q 590 453 590 444 q 515 559 590 514 q 350 600 446 600 q 113 494 198 600 q 45 289 45 411 m 468 762 q 494 812 492 783 q 454 879 494 856 q 422 888 438 888 q 381 872 401 888 q 312 789 365 860 q 213 681 263 727 l 233 654 q 399 727 270 674 q 468 762 449 747 z "},"ˇ":{"ha":678,"x_min":138,"x_max":540,"o":"m 340 680 q 423 730 380 680 q 454 768 433 741 q 540 867 505 829 l 521 891 q 339 802 437 841 q 157 891 241 844 l 138 865 q 250 738 163 841 q 340 680 307 684 z "},"č":{"ha":608,"x_min":45,"x_max":601,"o":"m 45 289 q 184 26 45 103 q 350 -14 256 -14 q 566 76 491 -14 q 601 136 589 103 l 566 145 q 425 33 524 56 q 370 26 399 26 q 209 289 210 28 q 319 563 209 537 q 350 566 335 566 q 429 510 414 566 q 434 473 431 498 q 467 397 444 414 q 511 385 484 387 q 587 433 572 385 q 590 453 590 444 q 515 559 590 514 q 350 600 446 600 q 113 494 198 600 q 45 289 45 411 m 338 680 q 420 730 377 680 q 452 768 430 741 q 537 867 502 829 l 518 891 q 336 802 434 841 q 155 891 239 844 l 136 865 q 247 738 160 841 q 338 680 304 684 z "},"ç":{"ha":608,"x_min":45,"x_max":601,"o":"m 45 289 q 187 24 45 102 q 277 -7 229 3 l 222 -115 l 241 -129 q 308 -104 277 -104 q 368 -161 358 -104 q 369 -182 369 -172 q 316 -270 369 -258 q 301 -271 308 -271 q 210 -218 251 -270 l 189 -237 q 338 -309 241 -307 q 487 -241 444 -309 q 505 -183 505 -214 q 434 -83 505 -114 q 353 -68 397 -68 q 279 -83 313 -68 l 311 -12 q 350 -14 324 -14 q 566 76 491 -14 q 601 136 589 103 l 566 145 q 425 33 524 56 q 370 26 399 26 q 209 289 210 28 q 319 563 209 537 q 350 566 335 566 q 429 510 414 566 q 434 473 431 498 q 467 397 444 414 q 511 385 484 387 q 587 433 572 385 q 590 453 590 444 q 515 559 590 514 q 350 600 446 600 q 113 494 198 600 q 45 289 45 411 z "},"¸":{"ha":678,"x_min":180,"x_max":496,"o":"m 214 -115 l 233 -129 q 300 -104 269 -104 q 359 -161 350 -104 q 361 -182 361 -172 q 308 -270 361 -258 q 293 -271 300 -271 q 202 -218 243 -270 l 180 -237 q 330 -309 233 -307 q 479 -241 435 -309 q 496 -183 496 -214 q 426 -83 496 -114 q 345 -68 389 -68 q 271 -83 305 -68 l 311 8 l 277 8 l 214 -115 z "},"¢":{"ha":631,"x_min":43,"x_max":600,"o":"m 43 369 q 183 106 43 183 q 320 66 244 72 l 320 -27 l 359 -27 l 359 65 q 571 163 503 69 q 600 216 589 187 l 566 225 q 437 114 526 142 q 368 103 403 103 l 359 103 l 359 644 q 433 589 420 644 q 437 553 435 578 q 467 476 444 492 q 509 464 483 465 q 586 514 572 464 q 589 532 589 524 q 511 639 589 594 q 359 678 448 675 l 359 773 l 320 773 l 320 677 q 94 551 168 665 q 43 369 43 473 m 202 368 q 307 639 202 608 q 320 642 315 640 l 320 109 q 202 368 202 144 z "},"ˆ":{"ha":678,"x_min":153,"x_max":525,"o":"m 507 678 l 525 703 q 419 826 496 731 q 338 879 369 875 q 263 833 301 879 q 236 800 255 823 q 153 701 189 739 l 171 678 q 340 762 247 723 q 507 678 420 728 z "},":":{"ha":275,"x_min":52,"x_max":224,"o":"m 224 452 q 176 529 224 505 q 137 538 157 538 q 61 491 84 538 q 52 452 52 472 q 99 374 52 397 q 137 366 118 366 q 214 412 190 366 q 224 452 224 431 m 224 140 q 178 218 224 193 q 137 231 157 231 q 62 182 87 231 q 52 140 52 161 q 99 62 52 85 q 137 54 118 54 q 214 100 190 54 q 224 140 224 119 z "},",":{"ha":256,"x_min":45,"x_max":221,"o":"m 221 65 q 163 164 221 142 q 129 170 146 170 q 53 121 75 170 q 45 83 45 102 q 96 5 45 28 q 115 0 106 1 q 149 -31 148 -9 q 94 -129 148 -72 l 122 -151 q 220 42 208 -58 q 221 65 221 54 z "},"":{"ha":678,"x_min":248,"x_max":430,"o":"m 430 -157 q 369 -54 430 -75 q 335 -49 353 -49 q 258 -96 282 -49 q 248 -138 248 -117 q 304 -218 248 -195 q 321 -224 313 -222 q 355 -255 354 -233 q 298 -355 354 -297 l 328 -377 q 427 -187 412 -289 q 430 -157 430 -171 z "},"©":{"ha":869,"x_min":47,"x_max":822,"o":"m 822 373 q 704 655 822 544 q 435 758 595 758 q 140 629 252 758 q 47 373 47 522 q 167 90 47 201 q 435 -14 277 -14 q 727 114 616 -14 q 822 373 822 222 m 90 373 q 202 637 90 537 q 435 720 297 720 q 703 597 604 720 q 779 373 779 502 q 669 111 779 213 q 435 24 572 24 q 167 146 266 24 q 90 373 90 243 m 442 617 q 247 528 316 617 q 198 372 198 463 q 301 171 198 236 q 438 133 362 133 q 621 225 562 133 q 632 245 627 236 l 601 259 q 464 171 556 172 q 353 300 377 171 q 346 384 346 339 q 406 572 346 532 q 441 583 422 583 q 491 538 483 583 q 494 517 492 532 q 526 446 502 460 q 571 435 544 435 q 633 480 627 435 q 635 491 635 486 q 551 595 635 559 q 442 617 500 617 z "},"¤":{"ha":821,"x_min":75,"x_max":734,"o":"m 403 151 q 235 233 294 151 q 190 381 190 294 q 294 581 190 521 q 401 609 343 609 q 568 528 507 609 q 613 380 613 467 q 509 178 613 237 q 403 151 460 151 m 400 103 q 579 168 505 104 l 696 50 l 730 84 l 613 203 q 670 382 670 277 q 617 553 669 483 l 734 669 l 699 704 l 585 590 q 404 656 509 656 q 225 591 300 655 l 109 705 l 75 671 l 191 556 q 133 378 133 484 q 193 198 134 271 l 77 83 l 113 49 l 228 164 q 400 103 300 103 z "},"d":{"ha":765,"x_min":45,"x_max":741,"o":"m 513 0 l 741 0 q 724 34 741 30 q 707 35 718 35 l 643 35 l 643 882 l 368 882 l 368 846 l 492 846 l 492 536 q 323 600 423 600 q 109 491 189 600 q 45 278 45 403 q 155 30 45 110 q 290 -14 216 -14 q 486 109 423 -14 q 496 132 492 121 l 513 0 m 209 294 q 298 543 209 490 q 358 559 327 559 q 483 435 452 559 q 495 320 495 385 q 411 68 495 130 q 345 46 381 46 q 217 193 244 46 q 209 294 209 239 z "},"†":{"ha":629,"x_min":61,"x_max":570,"o":"m 316 749 q 254 693 255 746 q 279 590 254 677 q 297 511 292 545 q 165 547 271 515 q 117 556 133 556 q 61 496 62 553 q 118 434 64 435 q 220 460 133 434 q 315 480 274 476 q 461 445 350 476 q 514 434 496 434 q 570 494 568 437 q 513 556 563 552 q 408 529 496 556 q 331 510 363 515 q 366 643 335 538 q 376 694 376 677 q 316 749 373 747 m 316 441 q 244 391 256 441 q 243 373 243 381 q 262 245 243 347 q 296 -107 289 104 l 334 -107 q 377 294 342 111 q 387 374 387 345 q 331 439 387 431 q 316 441 324 441 z "},"‡":{"ha":621,"x_min":56,"x_max":564,"o":"m 311 749 q 248 693 250 746 q 274 591 248 677 q 293 511 288 547 q 160 547 266 515 q 111 556 127 556 q 56 496 57 553 q 113 434 62 438 q 218 460 129 434 q 309 480 270 475 q 456 445 345 476 q 509 434 491 434 q 564 494 563 437 q 507 556 562 555 q 406 530 492 556 q 328 511 361 517 q 362 644 332 541 q 372 694 372 677 q 311 749 369 747 m 309 -96 q 372 -41 370 -94 q 346 62 372 -24 q 328 141 334 107 q 460 106 354 137 q 509 96 492 96 q 564 156 563 99 q 507 218 562 217 q 406 193 492 218 q 311 172 351 176 q 164 208 275 176 q 111 218 129 218 q 56 159 57 216 q 113 96 62 100 q 217 123 129 96 q 294 142 262 137 q 267 35 288 102 q 250 -42 250 -22 q 309 -96 252 -95 m 392 324 q 346 397 392 374 q 309 407 328 407 q 236 359 258 407 q 228 324 228 342 q 273 251 228 273 q 309 243 290 243 q 382 288 359 243 q 392 324 392 305 z "},"ď":{"ha":796,"x_min":45,"x_max":856,"o":"m 513 0 l 741 0 q 724 34 741 30 q 707 35 718 35 l 643 35 l 643 882 l 368 882 l 368 846 l 492 846 l 492 536 q 323 600 423 600 q 109 491 189 600 q 45 278 45 403 q 155 30 45 110 q 290 -14 216 -14 q 486 109 423 -14 q 496 132 492 121 l 513 0 m 209 294 q 298 543 209 490 q 358 559 327 559 q 483 435 452 559 q 495 320 495 385 q 411 68 495 130 q 345 46 381 46 q 217 193 244 46 q 209 294 209 239 m 856 787 q 795 890 856 869 q 761 895 779 895 q 684 848 708 895 q 674 806 674 827 q 730 726 674 749 q 747 720 739 722 q 781 689 780 711 q 730 594 781 648 q 724 589 727 591 l 754 567 q 853 757 838 655 q 856 787 856 773 z "},"đ":{"ha":765,"x_min":45,"x_max":741,"o":"m 251 690 l 492 690 l 492 536 q 323 600 423 600 q 109 491 189 600 q 45 278 45 403 q 155 30 45 110 q 290 -14 216 -14 q 486 109 423 -14 q 496 132 492 121 l 513 0 l 741 0 q 724 34 741 30 q 707 35 718 35 l 643 35 l 643 690 l 739 690 l 739 735 l 643 735 l 643 882 l 368 882 l 368 846 l 492 846 l 492 735 l 251 735 l 251 690 m 209 294 q 298 543 209 490 q 358 559 327 559 q 483 435 452 559 q 495 320 495 385 q 411 68 495 130 q 345 46 381 46 q 217 193 244 46 q 209 294 209 239 z "},"°":{"ha":385,"x_min":58,"x_max":327,"o":"m 100 735 q 149 822 100 793 q 193 833 171 833 q 273 783 247 833 q 285 735 285 761 q 235 652 285 678 q 193 643 214 643 q 110 693 136 643 q 100 735 100 713 m 327 735 q 266 849 327 808 q 193 872 232 872 q 80 810 121 872 q 58 735 58 774 q 121 624 58 662 q 193 605 155 605 q 307 666 267 605 q 327 735 327 699 z "},"¨":{"ha":678,"x_min":129,"x_max":549,"o":"m 297 773 q 252 848 297 823 q 214 857 233 857 q 137 810 161 857 q 129 773 129 792 q 176 699 129 720 q 214 690 195 690 q 288 735 264 690 q 297 773 297 753 m 549 773 q 503 848 549 825 q 464 857 484 857 q 391 812 415 857 q 381 773 381 793 q 429 699 381 720 q 464 690 446 690 q 541 738 519 690 q 549 773 549 755 z "},"÷":{"ha":617,"x_min":47,"x_max":570,"o":"m 570 290 l 570 345 l 47 345 l 47 290 l 570 290 m 281 165 q 343 159 316 183 q 358 136 354 149 q 355 77 376 106 q 328 58 345 64 q 264 65 293 39 q 250 88 255 75 q 241 126 240 107 q 281 165 251 155 m 281 571 q 343 564 316 589 q 358 541 354 555 q 355 483 376 511 q 328 464 345 469 q 264 471 293 445 q 250 494 255 480 q 241 532 240 513 q 281 571 251 560 z "},"$":{"ha":754,"x_min":58,"x_max":696,"o":"m 250 669 q 363 787 250 772 q 369 787 368 787 l 369 506 q 250 669 255 582 m 538 171 q 408 31 536 50 l 408 336 q 536 198 522 274 q 538 171 538 184 m 408 -123 l 408 -12 q 656 99 583 0 q 696 222 696 153 q 574 401 696 328 q 423 479 556 414 q 408 486 415 483 l 408 788 q 495 730 477 788 q 503 692 499 718 q 538 613 515 631 q 595 598 560 598 q 667 658 656 598 q 669 678 669 669 q 556 799 669 755 q 408 827 490 823 l 408 948 l 369 948 l 369 827 q 130 735 206 821 q 85 614 85 684 q 212 434 85 510 q 363 358 228 425 q 369 355 368 357 l 369 27 l 358 27 q 255 91 277 27 q 244 133 250 104 q 206 216 231 197 q 145 232 183 232 q 62 179 81 232 q 58 151 58 165 q 155 27 58 75 q 369 -14 239 -14 l 369 -123 l 408 -123 z "},"˙":{"ha":385,"x_min":99,"x_max":285,"o":"m 285 765 q 235 848 285 822 q 191 859 213 859 q 111 810 137 859 q 99 765 99 788 q 151 684 99 708 q 191 674 170 674 q 274 722 248 674 q 285 765 285 743 z "},"ı":{"ha":385,"x_min":31,"x_max":361,"o":"m 328 35 l 274 35 l 274 581 l 31 581 l 31 545 l 118 545 l 118 106 q 57 37 118 43 q 31 35 45 35 l 31 0 l 361 0 q 343 34 361 31 q 328 35 336 35 z "},"◌":{"ha":738,"x_min":57,"x_max":671,"o":"m 132 127 q 171 165 136 164 q 209 126 209 163 q 171 88 205 90 q 132 121 134 88 q 132 127 132 125 m 76 217 q 114 255 80 254 q 151 216 151 252 q 113 178 146 179 q 76 217 76 180 m 218 71 q 256 109 222 107 q 294 75 293 109 q 294 69 294 71 q 256 33 290 34 q 218 71 218 35 m 319 50 q 357 87 323 85 q 395 49 395 84 q 357 11 391 12 q 319 45 320 11 q 319 50 319 49 m 57 319 q 95 357 61 355 q 134 324 132 357 q 134 317 134 320 q 95 279 130 281 q 57 319 58 282 m 80 420 q 118 458 84 457 q 155 425 152 458 q 155 418 155 422 q 118 380 151 381 q 80 415 81 380 q 80 420 80 419 m 423 71 q 463 109 427 107 q 500 75 499 109 q 500 69 500 71 q 461 33 496 34 q 423 71 423 35 m 140 509 q 179 545 144 544 q 216 507 216 543 q 176 471 209 473 q 140 502 141 471 q 140 509 140 506 m 513 127 q 552 165 519 163 q 587 132 586 165 q 587 126 587 127 q 549 88 583 90 q 513 127 513 91 m 227 567 q 266 605 231 604 q 304 571 302 605 q 304 566 304 567 q 264 528 297 530 q 227 562 228 528 q 227 567 227 566 m 571 217 q 610 255 575 254 q 648 216 648 252 q 609 178 642 180 q 571 217 571 180 m 330 587 q 369 625 334 624 q 406 593 403 625 q 406 586 406 589 q 368 547 401 548 q 330 581 332 547 q 330 587 330 585 m 593 319 q 632 357 597 355 q 670 323 669 357 q 670 317 670 319 q 631 279 666 281 q 593 312 595 279 q 593 319 593 316 m 433 567 q 471 605 437 604 q 509 571 507 605 q 509 566 509 567 q 471 528 505 529 q 433 562 434 528 q 433 567 433 566 m 575 420 q 614 458 582 456 q 652 419 652 456 q 613 380 648 381 q 575 420 575 382 m 518 509 q 557 545 522 544 q 595 507 595 543 q 556 471 591 472 q 518 502 521 471 q 518 509 518 505 z "},"e":{"ha":640,"x_min":45,"x_max":604,"o":"m 342 564 q 442 465 426 564 q 446 420 446 444 q 400 340 446 357 q 313 334 370 332 l 209 338 q 311 560 214 530 q 342 564 327 564 m 590 137 l 557 148 q 433 35 518 62 q 374 26 404 26 q 209 296 216 26 q 209 298 209 297 l 346 296 q 590 354 549 292 q 604 406 604 376 q 495 567 604 513 q 342 600 427 600 q 103 487 186 600 q 45 293 45 407 q 182 27 45 107 q 346 -14 255 -14 q 570 96 500 -14 q 590 137 582 117 z "},"é":{"ha":640,"x_min":45,"x_max":604,"o":"m 342 564 q 442 465 426 564 q 446 420 446 444 q 400 340 446 357 q 313 334 370 332 l 209 338 q 311 560 214 530 q 342 564 327 564 m 590 137 l 557 148 q 433 35 518 62 q 374 26 404 26 q 209 296 216 26 q 209 298 209 297 l 346 296 q 590 354 549 292 q 604 406 604 376 q 495 567 604 513 q 342 600 427 600 q 103 487 186 600 q 45 293 45 407 q 182 27 45 107 q 346 -14 255 -14 q 570 96 500 -14 q 590 137 582 117 m 454 762 q 480 812 479 783 q 441 879 480 856 q 408 888 425 888 q 368 872 388 888 q 298 789 351 860 q 199 681 250 727 l 220 654 q 385 727 256 674 q 454 762 435 747 z "},"ě":{"ha":640,"x_min":45,"x_max":604,"o":"m 342 564 q 442 465 426 564 q 446 420 446 444 q 400 340 446 357 q 313 334 370 332 l 209 338 q 311 560 214 530 q 342 564 327 564 m 590 137 l 557 148 q 433 35 518 62 q 374 26 404 26 q 209 296 216 26 q 209 298 209 297 l 346 296 q 590 354 549 292 q 604 406 604 376 q 495 567 604 513 q 342 600 427 600 q 103 487 186 600 q 45 293 45 407 q 182 27 45 107 q 346 -14 255 -14 q 570 96 500 -14 q 590 137 582 117 m 326 680 q 408 730 365 680 q 439 768 418 741 q 525 867 490 829 l 506 891 q 324 802 422 841 q 142 891 227 844 l 123 865 q 235 738 148 841 q 326 680 292 684 z "},"ê":{"ha":640,"x_min":45,"x_max":604,"o":"m 342 564 q 442 465 426 564 q 446 420 446 444 q 400 340 446 357 q 313 334 370 332 l 209 338 q 311 560 214 530 q 342 564 327 564 m 590 137 l 557 148 q 433 35 518 62 q 374 26 404 26 q 209 296 216 26 q 209 298 209 297 l 346 296 q 590 354 549 292 q 604 406 604 376 q 495 567 604 513 q 342 600 427 600 q 103 487 186 600 q 45 293 45 407 q 182 27 45 107 q 346 -14 255 -14 q 570 96 500 -14 q 590 137 582 117 m 492 678 l 510 703 q 404 826 481 731 q 323 879 354 875 q 248 833 286 879 q 221 800 240 823 q 138 701 174 739 l 156 678 q 326 762 232 723 q 492 678 406 728 z "},"ë":{"ha":640,"x_min":45,"x_max":604,"o":"m 342 564 q 442 465 426 564 q 446 420 446 444 q 400 340 446 357 q 313 334 370 332 l 209 338 q 311 560 214 530 q 342 564 327 564 m 590 137 l 557 148 q 433 35 518 62 q 374 26 404 26 q 209 296 216 26 q 209 298 209 297 l 346 296 q 590 354 549 292 q 604 406 604 376 q 495 567 604 513 q 342 600 427 600 q 103 487 186 600 q 45 293 45 407 q 182 27 45 107 q 346 -14 255 -14 q 570 96 500 -14 q 590 137 582 117 m 281 772 q 236 846 281 822 q 198 856 217 856 q 121 808 145 856 q 113 772 113 791 q 160 697 113 719 q 198 689 179 689 q 271 734 248 689 q 281 772 281 751 m 533 772 q 487 846 533 823 q 448 856 468 856 q 374 811 399 856 q 365 772 365 792 q 412 697 365 719 q 448 689 430 689 q 525 736 503 689 q 533 772 533 754 z "},"ė":{"ha":640,"x_min":45,"x_max":604,"o":"m 342 564 q 442 465 426 564 q 446 420 446 444 q 400 340 446 357 q 313 334 370 332 l 209 338 q 311 560 214 530 q 342 564 327 564 m 590 137 l 557 148 q 433 35 518 62 q 374 26 404 26 q 209 296 216 26 q 209 298 209 297 l 346 296 q 590 354 549 292 q 604 406 604 376 q 495 567 604 513 q 342 600 427 600 q 103 487 186 600 q 45 293 45 407 q 182 27 45 107 q 346 -14 255 -14 q 570 96 500 -14 q 590 137 582 117 m 416 765 q 366 848 416 822 q 323 859 345 859 q 243 810 269 859 q 231 765 231 788 q 282 684 231 708 q 323 674 301 674 q 406 722 380 674 q 416 765 416 743 z "},"è":{"ha":640,"x_min":45,"x_max":604,"o":"m 342 564 q 442 465 426 564 q 446 420 446 444 q 400 340 446 357 q 313 334 370 332 l 209 338 q 311 560 214 530 q 342 564 327 564 m 590 137 l 557 148 q 433 35 518 62 q 374 26 404 26 q 209 296 216 26 q 209 298 209 297 l 346 296 q 590 354 549 292 q 604 406 604 376 q 495 567 604 513 q 342 600 427 600 q 103 487 186 600 q 45 293 45 407 q 182 27 45 107 q 346 -14 255 -14 q 570 96 500 -14 q 590 137 582 117 m 460 681 q 335 823 408 728 q 292 872 309 859 q 251 888 271 888 q 187 846 209 888 q 179 812 179 829 q 205 762 180 781 q 330 705 224 747 q 439 654 396 678 l 460 681 z "},"…":{"ha":812,"x_min":64,"x_max":765,"o":"m 502 80 q 454 157 502 133 q 414 168 434 168 q 336 119 359 168 q 327 80 327 100 q 376 1 327 24 q 414 -7 395 -7 q 491 39 467 -7 q 502 80 502 58 m 765 80 q 718 157 765 133 q 677 168 697 168 q 600 119 623 168 q 590 80 590 100 q 639 1 590 24 q 677 -7 658 -7 q 754 39 730 -7 q 765 80 765 58 m 239 80 q 191 157 239 133 q 151 168 171 168 q 73 119 96 168 q 64 80 64 100 q 113 1 64 24 q 151 -7 132 -7 q 228 39 203 -7 q 239 80 239 58 z "},"ē":{"ha":640,"x_min":45,"x_max":604,"o":"m 342 564 q 442 465 426 564 q 446 420 446 444 q 400 340 446 357 q 313 334 370 332 l 209 338 q 311 560 214 530 q 342 564 327 564 m 590 137 l 557 148 q 433 35 518 62 q 374 26 404 26 q 209 296 216 26 q 209 298 209 297 l 346 296 q 590 354 549 292 q 604 406 604 376 q 495 567 604 513 q 342 600 427 600 q 103 487 186 600 q 45 293 45 407 q 182 27 45 107 q 346 -14 255 -14 q 570 96 500 -14 q 590 137 582 117 m 114 732 l 540 732 l 540 804 l 114 804 l 114 732 z "},"—":{"ha":1128,"x_min":90,"x_max":1039,"o":"m 90 267 l 1039 267 l 1039 326 l 90 326 l 90 267 z "},"–":{"ha":857,"x_min":90,"x_max":768,"o":"m 90 267 l 768 267 l 768 326 l 90 326 l 90 267 z "},"ę":{"ha":640,"x_min":45,"x_max":604,"o":"m 342 564 q 442 465 426 564 q 446 420 446 444 q 400 340 446 357 q 313 334 370 332 l 209 338 q 311 560 214 530 q 342 564 327 564 m 590 137 l 557 148 q 433 35 518 62 q 374 26 404 26 q 209 296 216 26 q 209 298 209 297 l 346 296 q 590 354 549 292 q 604 406 604 376 q 495 567 604 513 q 342 600 427 600 q 103 487 186 600 q 45 293 45 407 q 182 27 45 107 q 346 -14 255 -14 q 570 96 500 -14 q 590 137 582 117 m 444 -220 q 393 -152 395 -217 q 463 -34 393 -88 q 521 0 490 -14 l 519 14 q 274 -110 321 -14 q 262 -159 262 -134 q 336 -250 262 -224 q 403 -260 368 -260 q 532 -210 486 -259 l 515 -189 q 444 -220 477 -220 z "},"=":{"ha":617,"x_min":47,"x_max":570,"o":"m 570 365 l 570 419 l 47 419 l 47 365 l 570 365 m 570 216 l 570 270 l 47 270 l 47 216 l 570 216 z "},"℮":{"ha":1005,"x_min":58,"x_max":960,"o":"m 270 109 l 270 456 l 960 456 q 795 799 960 681 q 522 882 677 882 q 152 715 282 882 q 58 431 58 593 q 189 107 58 233 q 510 -14 315 -14 q 831 84 689 -14 q 897 138 868 110 l 865 168 q 609 37 768 68 q 513 27 560 27 q 270 109 369 28 m 747 776 l 747 499 l 270 499 l 270 758 q 525 841 374 841 q 747 776 659 840 z "},"ð":{"ha":779,"x_min":45,"x_max":658,"o":"m 658 332 q 545 677 658 524 q 441 784 500 739 l 557 850 l 537 886 l 401 810 q 157 882 294 875 l 153 845 q 343 777 267 836 l 176 684 l 198 646 l 376 746 q 473 521 444 670 q 347 548 418 548 q 122 460 212 548 q 45 273 45 382 q 155 47 45 130 q 347 -15 237 -15 q 613 137 533 -15 q 658 332 658 222 m 209 267 q 296 503 209 467 q 353 514 320 514 q 486 393 460 514 q 496 273 496 345 q 373 20 496 38 q 351 19 362 19 q 221 133 247 19 q 209 267 209 186 z "},"!":{"ha":336,"x_min":77,"x_max":259,"o":"m 190 250 q 236 594 190 411 q 259 734 259 689 q 170 827 256 826 q 77 732 79 825 q 107 570 77 690 q 146 250 146 408 l 190 250 m 256 80 q 209 157 256 133 q 168 168 189 168 q 91 119 114 168 q 81 80 81 100 q 130 1 81 24 q 168 -7 149 -7 q 245 39 221 -7 q 256 80 256 58 z "},"¡":{"ha":377,"x_min":68,"x_max":250,"o":"m 137 343 q 91 -1 137 182 q 68 -141 68 -96 q 157 -235 71 -233 q 250 -140 248 -232 q 220 23 250 -98 q 180 343 180 184 l 137 343 m 71 513 q 118 435 71 460 q 159 425 138 425 q 236 473 213 425 q 245 513 245 492 q 197 591 245 568 q 159 600 178 600 q 81 553 106 600 q 71 513 71 534 z "},"f":{"ha":452,"x_min":34,"x_max":581,"o":"m 385 35 l 289 35 l 289 545 l 444 545 l 444 581 l 289 581 l 289 589 q 331 840 289 800 q 372 853 349 853 q 431 802 407 853 q 469 734 458 745 q 511 715 487 715 q 578 757 564 715 q 581 776 581 766 q 511 867 581 833 q 399 888 464 888 q 180 773 247 888 q 140 600 140 703 l 140 581 l 34 581 l 34 545 l 140 545 l 140 109 q 79 38 140 47 q 37 35 61 35 l 37 0 l 418 0 q 397 34 418 31 q 385 35 392 35 z "},"ﬁ":{"ha":806,"x_min":34,"x_max":781,"o":"m 351 35 l 289 35 l 289 545 l 541 545 l 541 106 q 496 38 541 47 q 461 35 481 35 l 461 0 l 781 0 q 764 34 781 31 q 749 35 757 35 l 692 35 l 692 581 l 289 581 l 289 589 q 346 833 289 785 q 426 856 376 856 q 509 799 481 856 q 519 774 513 791 q 572 699 544 715 q 621 688 594 688 q 694 732 677 688 q 699 758 699 746 q 618 856 699 817 q 452 888 549 888 q 167 741 236 888 q 140 600 140 680 l 140 581 l 34 581 l 34 545 l 140 545 l 140 106 q 37 35 137 35 l 37 0 l 384 0 q 366 34 384 31 q 351 35 359 35 z "},"ﬂ":{"ha":827,"x_min":34,"x_max":803,"o":"m 803 0 q 785 34 803 31 q 770 35 779 35 l 700 35 l 700 882 l 510 882 q 399 888 444 888 q 183 777 252 888 q 140 600 140 705 l 140 581 l 34 581 l 34 545 l 140 545 l 140 106 q 37 35 137 35 l 37 0 l 376 0 q 358 34 376 31 q 343 35 351 35 l 289 35 l 289 545 l 427 545 l 427 581 l 289 581 l 289 589 q 340 829 289 783 q 422 854 369 854 q 551 830 487 854 l 551 109 q 507 41 551 52 q 456 35 488 35 l 456 0 l 803 0 z "},"ƒ":{"ha":681,"x_min":-77,"x_max":688,"o":"m 391 369 q 392 396 391 377 q 393 422 393 414 l 566 422 l 566 457 l 395 457 q 435 751 407 693 q 490 792 456 791 q 536 746 526 792 q 540 722 537 738 q 575 643 551 658 q 612 635 591 635 q 684 682 669 635 q 688 705 688 694 q 618 807 688 772 q 521 827 575 827 q 273 635 343 827 q 233 457 247 560 l 94 457 l 94 422 l 229 422 q 222 327 224 362 q 217 217 221 290 q 180 -151 206 -68 q 111 -231 156 -229 q 71 -183 77 -231 q 68 -161 69 -176 q 37 -80 61 -96 q -4 -69 20 -69 q -75 -119 -60 -69 q -77 -144 -77 -132 q -9 -243 -77 -206 q 85 -264 34 -264 q 340 -9 270 -264 q 391 369 380 132 z "},"⁄":{"ha":199,"x_min":-203,"x_max":430,"o":"m -156 -43 l 430 827 l 384 857 l -203 -14 l -156 -43 z "},"g":{"ha":675,"x_min":61,"x_max":685,"o":"m 213 374 q 256 545 213 511 q 320 564 279 564 q 418 487 399 564 q 427 377 427 449 q 381 202 427 237 q 319 184 357 184 q 221 267 240 184 q 213 374 213 305 m 324 600 q 104 506 178 600 q 61 377 61 450 q 157 206 61 278 q 187 186 172 195 q 79 115 109 187 q 69 65 69 91 q 122 -41 71 -1 q 84 -127 84 -83 q 178 -237 84 -201 q 328 -262 240 -262 q 612 -160 545 -262 q 632 -90 632 -126 q 495 57 632 35 q 450 61 473 61 l 180 66 q 132 102 138 68 q 130 111 130 107 q 167 149 130 142 q 182 151 175 151 l 315 149 l 319 149 q 533 244 460 149 q 579 380 579 305 q 505 541 578 479 q 560 586 524 585 q 604 563 578 586 q 637 548 623 548 q 684 585 675 548 q 685 597 685 591 q 639 663 685 644 q 598 670 620 670 q 491 597 530 670 q 476 562 481 579 q 324 600 412 600 m 328 -227 q 138 -155 175 -227 q 130 -121 130 -138 q 155 -58 132 -90 q 208 -68 182 -68 l 461 -71 q 562 -102 548 -72 q 567 -126 567 -113 q 449 -214 567 -189 q 328 -227 393 -227 z "},"ğ":{"ha":675,"x_min":61,"x_max":685,"o":"m 213 374 q 256 545 213 511 q 320 564 279 564 q 418 487 399 564 q 427 377 427 449 q 381 202 427 237 q 319 184 357 184 q 221 267 240 184 q 213 374 213 305 m 324 600 q 104 506 178 600 q 61 377 61 450 q 157 206 61 278 q 187 186 172 195 q 79 115 109 187 q 69 65 69 91 q 122 -41 71 -1 q 84 -127 84 -83 q 178 -237 84 -201 q 328 -262 240 -262 q 612 -160 545 -262 q 632 -90 632 -126 q 495 57 632 35 q 450 61 473 61 l 180 66 q 132 102 138 68 q 130 111 130 107 q 167 149 130 142 q 182 151 175 151 l 315 149 l 319 149 q 533 244 460 149 q 579 380 579 305 q 505 541 578 479 q 560 586 524 585 q 604 563 578 586 q 637 548 623 548 q 684 585 675 548 q 685 597 685 591 q 639 663 685 644 q 598 670 620 670 q 491 597 530 670 q 476 562 481 579 q 324 600 412 600 m 328 -227 q 138 -155 175 -227 q 130 -121 130 -138 q 155 -58 132 -90 q 208 -68 182 -68 l 461 -71 q 562 -102 548 -72 q 567 -126 567 -113 q 449 -214 567 -189 q 328 -227 393 -227 m 340 789 q 190 869 208 791 l 163 869 q 244 707 163 753 q 336 685 283 685 q 500 802 467 685 q 509 869 509 834 l 480 869 q 340 789 452 792 z "},"ß":{"ha":798,"x_min":34,"x_max":774,"o":"m 774 161 q 670 342 774 267 q 617 376 652 354 q 524 453 541 423 q 513 492 513 472 q 571 572 513 540 q 595 585 579 576 q 680 651 662 618 q 693 705 693 675 q 583 852 693 803 q 433 880 517 880 q 182 764 258 880 q 140 600 140 696 l 140 581 l 34 581 l 34 545 l 140 545 l 140 106 q 37 35 137 35 l 37 0 l 289 0 l 289 589 q 382 845 289 814 q 423 850 401 850 q 533 751 513 850 q 538 699 538 727 q 479 587 538 629 q 457 572 472 583 q 388 509 403 538 q 376 450 376 483 q 464 308 376 374 q 510 277 479 297 q 618 182 595 220 q 639 114 639 149 q 568 23 639 34 q 549 22 559 22 q 481 77 502 22 q 475 102 479 85 q 437 167 458 156 q 412 172 425 172 q 346 129 358 172 q 343 111 343 119 q 439 5 343 39 q 557 -14 494 -14 q 734 56 670 -14 q 774 161 774 100 z "},"`":{"ha":678,"x_min":222,"x_max":503,"o":"m 503 681 q 378 823 452 728 q 335 872 353 859 q 294 888 315 888 q 231 846 252 888 q 222 812 222 829 q 248 762 224 781 q 373 705 267 747 q 483 654 439 678 l 503 681 z "},">":{"ha":608,"x_min":47,"x_max":562,"o":"m 71 544 l 47 491 l 467 317 l 47 142 l 68 94 l 562 297 l 562 340 l 71 544 z "},"≥":{"ha":614,"x_min":47,"x_max":564,"o":"m 564 336 l 564 380 l 69 552 l 52 500 l 469 357 l 47 212 l 65 164 l 564 336 m 560 60 l 560 113 l 52 113 l 52 60 l 560 60 z "},"«":{"ha":568,"x_min":24,"x_max":544,"o":"m 294 513 l 267 536 q 96 373 239 505 q 45 323 58 339 q 24 277 24 300 q 45 231 26 252 q 193 91 56 217 q 267 20 237 50 l 293 43 q 182 259 279 66 q 172 278 176 270 q 199 332 180 294 q 294 513 260 456 m 544 513 l 517 536 q 346 374 487 503 q 293 323 308 339 q 274 277 274 298 q 293 231 275 251 q 441 92 302 221 q 517 20 487 50 l 543 43 q 438 244 528 69 q 420 278 429 264 q 457 350 431 298 q 544 513 514 461 z "},"»":{"ha":568,"x_min":24,"x_max":544,"o":"m 274 513 l 301 536 q 472 373 330 505 q 524 323 510 339 q 544 277 544 300 q 524 231 543 252 q 376 91 513 217 q 301 20 330 49 l 275 43 q 387 259 289 66 q 396 278 392 270 q 369 332 388 294 q 274 513 308 456 m 24 513 l 52 536 q 222 374 81 503 q 275 323 260 339 q 294 277 294 298 q 275 231 293 251 q 127 92 266 221 q 52 20 81 50 l 26 43 q 130 244 41 69 q 148 278 140 264 q 111 350 137 298 q 24 513 54 461 z "},"‹":{"ha":336,"x_min":24,"x_max":311,"o":"m 311 513 l 282 536 q 107 380 243 491 q 45 323 60 339 q 24 277 24 300 q 45 231 26 252 q 170 123 56 218 q 283 20 245 61 l 311 43 q 171 278 220 195 q 260 429 199 324 q 311 513 294 486 z "},"›":{"ha":336,"x_min":26,"x_max":312,"o":"m 26 513 l 54 536 q 229 380 94 491 q 292 323 277 339 q 312 277 312 300 q 292 231 311 252 q 167 123 281 218 q 53 20 91 61 l 26 43 q 165 278 117 195 q 76 429 137 324 q 26 513 42 486 z "},"h":{"ha":766,"x_min":33,"x_max":741,"o":"m 313 35 l 269 35 l 269 350 q 346 515 269 471 q 400 530 373 530 q 500 446 479 530 q 506 395 506 423 l 506 109 q 486 42 506 53 q 439 35 471 35 l 439 0 l 741 0 q 723 34 741 30 q 707 35 715 35 l 655 35 l 655 378 q 545 586 655 540 q 472 600 511 600 q 297 518 362 600 q 269 468 279 494 l 269 882 l 33 882 l 33 846 l 119 846 l 119 109 q 72 38 119 47 q 33 35 56 35 l 33 0 l 347 0 q 330 34 347 30 q 313 35 321 35 z "},"˝":{"ha":722,"x_min":171,"x_max":692,"o":"m 416 793 q 439 844 441 812 q 400 905 438 886 q 368 913 384 913 q 328 897 347 911 q 263 814 313 884 q 171 704 218 750 l 191 680 q 349 755 225 700 q 416 793 399 777 m 655 757 q 686 803 681 773 q 655 872 692 846 q 627 884 642 882 q 585 873 602 886 q 505 803 567 863 q 397 712 450 749 l 414 682 q 587 734 456 700 q 655 757 636 746 z "},"i":{"ha":395,"x_min":37,"x_max":362,"o":"m 330 35 l 274 35 l 274 581 l 37 581 l 37 547 l 125 547 l 125 109 q 80 39 125 50 q 37 35 64 35 l 37 0 l 362 0 q 342 34 362 31 q 330 35 336 35 m 288 765 q 237 848 288 821 q 195 859 217 859 q 114 808 140 859 q 103 765 103 787 q 153 684 103 708 q 195 674 174 674 q 277 722 251 674 q 288 765 288 742 z "},"í":{"ha":385,"x_min":31,"x_max":361,"o":"m 328 35 l 274 35 l 274 581 l 31 581 l 31 545 l 118 545 l 118 106 q 57 37 118 43 q 31 35 45 35 l 31 0 l 361 0 q 343 34 361 31 q 328 35 336 35 m 324 762 q 350 812 349 783 q 311 879 350 856 q 278 888 294 888 q 237 872 258 888 q 168 789 221 860 q 69 681 119 727 l 90 654 q 255 727 126 674 q 324 762 305 747 z "},"î":{"ha":385,"x_min":8,"x_max":380,"o":"m 328 35 l 274 35 l 274 581 l 31 581 l 31 545 l 118 545 l 118 106 q 57 37 118 43 q 31 35 45 35 l 31 0 l 361 0 q 343 34 361 31 q 328 35 336 35 m 362 678 l 380 703 q 274 826 351 731 q 193 879 224 875 q 118 833 156 879 q 91 800 110 823 q 8 701 43 739 l 26 678 q 195 762 102 723 q 362 678 275 728 z "},"ï":{"ha":385,"x_min":-1,"x_max":388,"o":"m 160 770 q 114 844 160 822 q 80 852 98 852 q 5 804 27 852 q -1 770 -1 788 q 43 699 -1 720 q 80 690 61 690 q 152 735 129 690 q 160 770 160 753 m 388 770 q 342 844 388 821 q 305 852 324 852 q 233 807 255 852 q 225 770 225 789 q 270 699 225 720 q 305 690 288 690 q 378 734 355 690 q 388 770 388 751 m 328 35 l 274 35 l 274 581 l 31 581 l 31 545 l 118 545 l 118 106 q 57 37 118 43 q 31 35 45 35 l 31 0 l 361 0 q 343 34 361 31 q 328 35 336 35 z "},"ì":{"ha":385,"x_min":31,"x_max":361,"o":"m 328 35 l 274 35 l 274 581 l 31 581 l 31 545 l 118 545 l 118 106 q 57 37 118 43 q 31 35 45 35 l 31 0 l 361 0 q 343 34 361 31 q 328 35 336 35 m 330 681 q 205 823 278 728 q 161 872 179 859 q 121 888 141 888 q 57 846 79 888 q 49 812 49 829 q 75 762 50 781 q 199 705 94 747 q 309 654 266 678 l 330 681 z "},"ī":{"ha":385,"x_min":24,"x_max":368,"o":"m 24 732 l 368 732 l 368 804 l 24 804 l 24 732 m 328 35 l 274 35 l 274 581 l 31 581 l 31 545 l 118 545 l 118 106 q 57 37 118 43 q 31 35 45 35 l 31 0 l 361 0 q 343 34 361 31 q 328 35 336 35 z "},"∞":{"ha":914,"x_min":41,"x_max":873,"o":"m 692 232 q 850 326 803 232 q 873 419 873 369 q 800 571 873 518 q 686 604 751 604 q 487 498 590 604 q 450 457 471 480 q 222 604 336 602 q 64 510 111 604 q 41 416 41 467 q 114 264 41 317 q 228 232 163 232 q 435 346 328 232 q 463 377 448 361 q 692 232 575 233 m 222 288 q 102 366 132 288 q 92 422 92 393 q 153 537 92 502 q 222 555 184 555 q 422 425 324 553 q 278 298 335 323 q 222 288 250 288 m 692 281 q 491 410 590 282 q 621 530 574 505 q 692 548 658 548 q 812 467 784 548 q 821 414 821 441 q 760 297 821 332 q 692 281 730 281 z "},"∫":{"ha":519,"x_min":-46,"x_max":564,"o":"m 357 134 q 331 532 357 231 q 317 780 317 686 q 370 918 319 917 q 407 871 397 918 q 426 795 418 808 q 488 761 446 762 q 560 810 545 761 q 564 833 564 821 q 488 940 564 910 q 408 954 453 954 q 203 770 255 954 q 171 477 171 659 q 190 122 171 362 q 208 -176 208 -88 q 144 -358 206 -357 q 106 -311 113 -358 q 94 -239 96 -245 q 27 -195 77 -197 q -43 -245 -28 -195 q -46 -270 -46 -258 q 27 -376 -46 -343 q 107 -391 62 -391 q 319 -206 262 -391 q 357 134 357 -80 z "},"į":{"ha":385,"x_min":31,"x_max":372,"o":"m 328 35 l 274 35 l 274 581 l 31 581 l 31 545 l 118 545 l 118 106 q 57 37 118 43 q 31 35 45 35 l 31 0 l 289 0 q 106 -132 129 -39 q 102 -159 102 -145 q 176 -250 102 -224 q 243 -260 208 -260 q 372 -210 326 -259 l 355 -189 q 283 -220 317 -220 q 233 -152 235 -217 q 302 -34 233 -88 q 361 0 330 -14 q 343 34 361 31 q 328 35 336 35 m 286 765 q 236 848 286 822 q 193 859 214 859 q 113 810 138 859 q 100 765 100 788 q 152 684 100 708 q 193 674 171 674 q 275 722 250 674 q 286 765 286 743 z "},"j":{"ha":380,"x_min":-64,"x_max":301,"o":"m 301 765 q 251 848 301 821 q 209 859 231 859 q 127 808 153 859 q 117 765 117 787 q 167 684 117 708 q 209 674 187 674 q 290 722 264 674 q 301 765 301 742 m 49 581 l 49 547 l 141 547 l 141 71 q 144 -64 141 24 q 146 -140 146 -121 q 104 -227 145 -225 q 68 -187 77 -227 q 47 -125 54 -136 q -3 -103 30 -103 q -61 -144 -50 -103 q -64 -161 -64 -153 q 0 -245 -64 -218 q 84 -262 37 -262 q 273 -118 225 -262 q 292 27 292 -56 l 292 581 l 49 581 z "},"k":{"ha":703,"x_min":27,"x_max":716,"o":"m 347 35 l 279 35 l 279 241 l 332 292 l 506 -1 l 716 0 q 699 34 716 31 q 684 35 692 35 l 654 35 l 437 391 l 545 494 q 616 544 591 538 q 640 547 627 547 q 674 567 671 547 q 675 581 675 574 l 445 581 l 445 547 l 545 547 l 279 296 l 279 882 l 27 882 l 27 846 l 130 846 l 130 109 q 69 38 130 47 q 27 35 52 35 l 27 0 l 380 0 q 359 34 380 31 q 347 35 354 35 z "},"l":{"ha":414,"x_min":28,"x_max":385,"o":"m 351 35 l 282 35 l 282 882 l 28 882 l 28 846 l 133 846 l 133 111 q 92 41 133 53 q 28 35 72 35 l 28 0 l 385 0 q 368 34 385 30 q 351 35 359 35 z "},"ĺ":{"ha":419,"x_min":28,"x_max":385,"o":"m 316 997 q 349 1044 343 1015 q 319 1115 355 1086 q 288 1128 304 1126 q 244 1119 266 1130 q 164 1047 228 1108 q 50 952 106 991 l 68 922 q 247 972 106 937 q 316 997 296 986 m 351 35 l 282 35 l 282 882 l 28 882 l 28 846 l 133 846 l 133 111 q 92 41 133 53 q 28 35 72 35 l 28 0 l 385 0 q 368 34 385 30 q 351 35 359 35 z "},"ľ":{"ha":477,"x_min":28,"x_max":506,"o":"m 351 35 l 282 35 l 282 882 l 28 882 l 28 846 l 133 846 l 133 111 q 92 41 133 53 q 28 35 72 35 l 28 0 l 385 0 q 368 34 385 30 q 351 35 359 35 m 506 787 q 445 890 506 869 q 411 895 429 895 q 334 848 358 895 q 324 806 324 827 q 380 726 324 749 q 397 720 389 722 q 431 689 430 711 q 380 594 431 648 q 374 589 377 591 l 404 567 q 503 757 488 655 q 506 787 506 773 z "},"<":{"ha":608,"x_min":47,"x_max":562,"o":"m 537 94 l 562 146 l 142 320 l 562 495 l 541 544 l 47 340 l 47 297 l 537 94 z "},"≤":{"ha":609,"x_min":47,"x_max":564,"o":"m 560 216 l 142 358 l 564 505 l 545 552 l 47 378 l 47 335 l 543 164 l 560 216 m 556 60 l 556 113 l 47 113 l 47 60 l 556 60 z "},"¬":{"ha":656,"x_min":47,"x_max":609,"o":"m 538 151 l 609 151 l 609 457 l 47 457 l 47 403 l 538 403 l 538 151 z "},"◊":{"ha":745,"x_min":35,"x_max":708,"o":"m 350 812 l 35 342 l 349 -129 l 395 -129 l 708 342 l 396 812 l 350 812 m 640 342 l 372 -62 l 103 342 l 373 746 l 640 342 z "},"ł":{"ha":419,"x_min":-11,"x_max":438,"o":"m 12 302 l 133 370 l 133 111 q 92 41 133 53 q 28 35 72 35 l 28 0 l 385 0 q 368 34 385 30 q 351 35 359 35 l 282 35 l 282 453 l 438 540 l 416 579 l 282 505 l 282 882 l 28 882 l 28 846 l 133 846 l 133 423 l -11 343 l 12 302 z "},"m":{"ha":1100,"x_min":31,"x_max":1074,"o":"m 304 35 l 267 35 l 269 370 q 347 521 278 481 q 391 533 369 533 q 469 467 446 533 q 479 399 479 437 l 479 109 q 453 42 479 53 q 408 35 438 35 l 408 0 l 697 0 q 680 34 697 30 q 663 35 671 35 l 628 35 l 628 378 l 628 396 q 708 528 643 496 q 743 536 726 536 q 830 467 806 536 q 840 399 840 435 l 840 109 q 814 42 840 53 q 769 35 799 35 l 769 0 l 1074 0 q 1057 34 1074 30 q 1040 35 1048 35 l 989 35 l 989 384 q 899 574 989 518 q 811 600 859 600 q 620 476 684 600 q 616 467 617 471 q 502 593 586 567 q 457 600 480 600 q 277 494 338 600 q 266 472 271 483 l 259 581 l 31 581 l 31 547 l 118 547 l 118 109 q 73 39 118 49 q 31 35 56 35 l 31 0 l 336 0 q 316 34 336 31 q 304 35 311 35 z "},"¯":{"ha":678,"x_min":126,"x_max":552,"o":"m 126 732 l 552 732 l 552 804 l 126 804 l 126 732 z "},"−":{"ha":617,"x_min":47,"x_max":570,"o":"m 570 290 l 570 345 l 47 345 l 47 290 l 570 290 z "},"×":{"ha":547,"x_min":57,"x_max":486,"o":"m 445 103 l 486 144 l 311 319 l 486 492 l 446 532 l 273 358 l 98 532 l 57 491 l 232 317 l 58 144 l 96 104 l 270 278 l 445 103 z "},"n":{"ha":765,"x_min":31,"x_max":741,"o":"m 309 35 l 267 35 l 269 370 q 350 519 278 479 q 401 533 376 533 q 498 453 477 533 q 505 399 505 429 l 505 109 q 473 41 505 52 q 430 35 458 35 l 430 0 l 741 0 q 723 34 741 30 q 707 35 715 35 l 654 35 l 654 378 q 543 585 654 538 q 467 600 507 600 q 301 522 369 600 q 266 468 279 496 l 259 581 l 31 581 l 31 547 l 118 547 l 118 109 q 73 39 118 49 q 31 35 56 35 l 31 0 l 343 0 q 326 34 343 30 q 309 35 317 35 z "},"ń":{"ha":765,"x_min":31,"x_max":741,"o":"m 309 35 l 267 35 l 269 370 q 350 519 278 479 q 401 533 376 533 q 498 453 477 533 q 505 399 505 429 l 505 109 q 473 41 505 52 q 430 35 458 35 l 430 0 l 741 0 q 723 34 741 30 q 707 35 715 35 l 654 35 l 654 378 q 543 585 654 538 q 467 600 507 600 q 301 522 369 600 q 266 468 279 496 l 259 581 l 31 581 l 31 547 l 118 547 l 118 109 q 73 39 118 49 q 31 35 56 35 l 31 0 l 343 0 q 326 34 343 30 q 309 35 317 35 m 513 762 q 538 812 537 783 q 499 879 538 856 q 467 888 483 888 q 426 872 446 888 q 357 789 410 860 q 258 681 308 727 l 278 654 q 444 727 315 674 q 513 762 494 747 z "},"ň":{"ha":765,"x_min":31,"x_max":741,"o":"m 309 35 l 267 35 l 269 370 q 350 519 278 479 q 401 533 376 533 q 498 453 477 533 q 505 399 505 429 l 505 109 q 473 41 505 52 q 430 35 458 35 l 430 0 l 741 0 q 723 34 741 30 q 707 35 715 35 l 654 35 l 654 378 q 543 585 654 538 q 467 600 507 600 q 301 522 369 600 q 266 468 279 496 l 259 581 l 31 581 l 31 547 l 118 547 l 118 109 q 73 39 118 49 q 31 35 56 35 l 31 0 l 343 0 q 326 34 343 30 q 309 35 317 35 m 384 680 q 467 730 423 680 q 498 768 476 741 q 583 867 548 829 l 564 891 q 382 802 480 841 q 201 891 285 844 l 182 865 q 293 738 206 841 q 384 680 350 684 z "},"≠":{"ha":617,"x_min":47,"x_max":570,"o":"m 570 216 l 570 270 l 315 270 l 351 365 l 570 365 l 570 419 l 373 419 l 438 583 l 388 583 l 323 419 l 47 419 l 47 365 l 301 365 l 264 270 l 47 270 l 47 216 l 243 216 l 182 61 l 232 61 l 293 216 l 570 216 z "},"ñ":{"ha":765,"x_min":31,"x_max":741,"o":"m 309 35 l 267 35 l 269 370 q 350 519 278 479 q 401 533 376 533 q 498 453 477 533 q 505 399 505 429 l 505 109 q 473 41 505 52 q 430 35 458 35 l 430 0 l 741 0 q 723 34 741 30 q 707 35 715 35 l 654 35 l 654 378 q 543 585 654 538 q 467 600 507 600 q 301 522 369 600 q 266 468 279 496 l 259 581 l 31 581 l 31 547 l 118 547 l 118 109 q 73 39 118 49 q 31 35 56 35 l 31 0 l 343 0 q 326 34 343 30 q 309 35 317 35 m 305 876 q 412 831 346 876 q 496 793 467 793 q 571 869 552 796 l 600 864 q 503 703 582 728 q 472 697 488 697 q 365 742 431 697 q 283 780 311 780 q 209 718 229 780 q 206 705 208 711 l 179 709 q 275 872 195 848 q 305 876 290 876 z "},"#":{"ha":785,"x_min":81,"x_max":704,"o":"m 427 -14 l 477 -14 l 514 262 l 686 262 l 686 335 l 524 335 l 544 492 l 704 492 l 704 566 l 553 566 l 586 814 l 536 814 l 503 566 l 327 566 l 359 814 l 309 814 l 277 566 l 99 566 l 99 492 l 267 492 l 247 335 l 81 335 l 81 262 l 237 262 l 201 -14 l 251 -14 l 288 262 l 464 262 l 427 -14 m 473 335 l 297 335 l 317 492 l 494 492 l 473 335 z "},"o":{"ha":703,"x_min":45,"x_max":658,"o":"m 209 293 q 282 547 209 499 q 351 564 312 564 q 481 448 454 564 q 495 298 495 391 q 412 35 495 80 q 351 22 385 22 q 222 138 250 22 q 209 293 209 197 m 357 600 q 113 494 202 600 q 45 298 45 412 q 156 52 45 141 q 347 -14 237 -14 q 587 95 498 -14 q 658 298 658 180 q 544 541 658 457 q 357 600 465 600 z "},"ó":{"ha":703,"x_min":45,"x_max":658,"o":"m 209 293 q 282 547 209 499 q 351 564 312 564 q 481 448 454 564 q 495 298 495 391 q 412 35 495 80 q 351 22 385 22 q 222 138 250 22 q 209 293 209 197 m 357 600 q 113 494 202 600 q 45 298 45 412 q 156 52 45 141 q 347 -14 237 -14 q 587 95 498 -14 q 658 298 658 180 q 544 541 658 457 q 357 600 465 600 m 494 762 q 519 812 518 783 q 480 879 519 856 q 448 888 464 888 q 407 872 427 888 q 338 789 391 860 q 239 681 289 727 l 259 654 q 425 727 296 674 q 494 762 475 747 z "},"ô":{"ha":703,"x_min":45,"x_max":658,"o":"m 209 293 q 282 547 209 499 q 351 564 312 564 q 481 448 454 564 q 495 298 495 391 q 412 35 495 80 q 351 22 385 22 q 222 138 250 22 q 209 293 209 197 m 357 600 q 113 494 202 600 q 45 298 45 412 q 156 52 45 141 q 347 -14 237 -14 q 587 95 498 -14 q 658 298 658 180 q 544 541 658 457 q 357 600 465 600 m 532 678 l 549 703 q 444 826 521 731 q 362 879 393 875 q 288 833 326 879 q 260 800 279 823 q 178 701 213 739 l 195 678 q 365 762 271 723 q 532 678 445 728 z "},"ö":{"ha":703,"x_min":45,"x_max":658,"o":"m 209 293 q 282 547 209 499 q 351 564 312 564 q 481 448 454 564 q 495 298 495 391 q 412 35 495 80 q 351 22 385 22 q 222 138 250 22 q 209 293 209 197 m 357 600 q 113 494 202 600 q 45 298 45 412 q 156 52 45 141 q 347 -14 237 -14 q 587 95 498 -14 q 658 298 658 180 q 544 541 658 457 q 357 600 465 600 m 320 772 q 275 846 320 822 q 237 856 256 856 q 160 808 184 856 q 152 772 152 791 q 199 697 152 719 q 237 689 218 689 q 311 734 288 689 q 320 772 320 751 m 572 772 q 526 846 572 823 q 487 856 507 856 q 414 811 438 856 q 404 772 404 792 q 452 697 404 719 q 487 689 469 689 q 564 736 543 689 q 572 772 572 754 z "},"œ":{"ha":1082,"x_min":45,"x_max":1046,"o":"m 779 566 q 888 420 887 563 q 842 340 888 357 q 755 334 812 332 l 651 338 q 779 566 658 564 m 209 293 q 283 548 209 502 q 351 566 312 566 q 481 448 454 566 q 495 298 495 391 q 411 34 495 77 q 351 20 384 20 q 222 138 250 20 q 209 293 209 197 m 357 600 q 113 494 202 600 q 45 298 45 412 q 156 52 45 141 q 347 -14 237 -14 q 568 91 483 -12 q 788 -14 646 -12 q 1017 104 951 -14 q 1034 141 1027 122 l 1000 148 q 875 35 960 62 q 817 26 846 26 q 651 292 659 26 q 651 300 651 296 l 788 297 q 1029 351 987 293 q 1046 406 1046 374 q 936 567 1046 514 q 785 600 869 600 q 572 500 646 598 q 357 600 494 598 z "},"˛":{"ha":678,"x_min":172,"x_max":442,"o":"m 354 -220 q 304 -152 305 -217 q 373 -34 304 -88 q 431 0 400 -14 l 430 14 q 184 -110 232 -14 q 172 -159 172 -134 q 247 -250 172 -224 q 313 -260 278 -260 q 442 -210 396 -259 l 426 -189 q 354 -220 388 -220 z "},"ò":{"ha":703,"x_min":45,"x_max":658,"o":"m 209 293 q 282 547 209 499 q 351 564 312 564 q 481 448 454 564 q 495 298 495 391 q 412 35 495 80 q 351 22 385 22 q 222 138 250 22 q 209 293 209 197 m 357 600 q 113 494 202 600 q 45 298 45 412 q 156 52 45 141 q 347 -14 237 -14 q 587 95 498 -14 q 658 298 658 180 q 544 541 658 457 q 357 600 465 600 m 499 681 q 374 823 448 728 q 331 872 349 859 q 290 888 311 888 q 227 846 248 888 q 218 812 218 829 q 244 762 220 781 q 369 705 263 747 q 479 654 435 678 l 499 681 z "},"ő":{"ha":703,"x_min":45,"x_max":681,"o":"m 209 293 q 282 547 209 499 q 351 564 312 564 q 481 448 454 564 q 495 298 495 391 q 412 35 495 80 q 351 22 385 22 q 222 138 250 22 q 209 293 209 197 m 357 600 q 113 494 202 600 q 45 298 45 412 q 156 52 45 141 q 347 -14 237 -14 q 587 95 498 -14 q 658 298 658 180 q 544 541 658 457 q 357 600 465 600 m 406 793 q 429 844 430 812 q 389 905 427 886 q 357 913 373 913 q 317 897 336 911 q 252 814 302 884 q 160 704 208 750 l 180 680 q 338 755 214 700 q 406 793 388 777 m 644 757 q 675 803 670 773 q 644 872 681 846 q 616 884 631 882 q 574 873 591 886 q 494 803 556 863 q 387 712 439 749 l 403 682 q 576 734 445 700 q 644 757 625 746 z "},"ō":{"ha":703,"x_min":45,"x_max":658,"o":"m 209 293 q 282 547 209 499 q 351 564 312 564 q 481 448 454 564 q 495 298 495 391 q 412 35 495 80 q 351 22 385 22 q 222 138 250 22 q 209 293 209 197 m 357 600 q 113 494 202 600 q 45 298 45 412 q 156 52 45 141 q 347 -14 237 -14 q 587 95 498 -14 q 658 298 658 180 q 544 541 658 457 q 357 600 465 600 m 153 732 l 579 732 l 579 804 l 153 804 l 153 732 z "},"½":{"ha":1043,"x_min":54,"x_max":977,"o":"m 255 -43 l 841 827 l 795 857 l 208 -14 l 255 -43 m 248 836 l 54 703 l 75 671 l 199 755 l 199 430 l 85 420 l 85 392 l 434 392 q 408 420 434 416 q 400 422 404 422 l 331 430 l 331 836 l 248 836 m 675 94 q 780 160 690 123 q 922 232 887 202 q 968 328 967 273 q 867 444 968 414 q 783 456 827 456 q 632 404 682 456 q 605 340 605 376 q 667 282 610 285 q 724 304 708 282 q 736 355 739 327 q 741 405 732 382 q 779 427 750 427 q 834 369 826 427 q 836 331 836 353 q 758 194 836 248 q 719 168 746 186 q 624 90 646 125 q 604 11 604 54 l 604 0 l 975 0 l 977 160 l 956 160 l 941 121 q 887 94 930 95 q 869 94 879 94 l 675 94 z "},"¼":{"ha":1019,"x_min":54,"x_max":960,"o":"m 256 -43 l 842 827 l 796 857 l 209 -14 l 256 -43 m 248 836 l 54 703 l 75 671 l 199 755 l 199 430 l 85 420 l 85 392 l 434 392 q 408 420 434 416 q 400 422 404 422 l 331 430 l 331 836 l 248 836 m 960 -61 q 945 -31 960 -34 q 933 -30 940 -30 l 865 -30 l 865 64 l 960 64 l 960 98 l 865 98 l 865 273 l 841 273 l 830 241 q 765 194 812 198 q 746 194 755 194 l 734 194 l 734 99 l 541 100 q 761 259 718 222 q 871 414 871 351 q 817 469 871 463 q 803 471 810 471 q 736 426 760 471 q 718 385 730 414 q 591 189 666 267 q 490 100 547 142 l 496 66 l 734 65 l 734 -30 l 629 -30 l 629 -61 l 960 -61 z "},"¹":{"ha":427,"x_min":27,"x_max":407,"o":"m 221 880 l 27 747 l 47 716 l 172 800 l 172 475 l 58 465 l 58 437 l 407 437 q 381 465 407 461 q 373 467 377 467 l 304 475 l 304 880 l 221 880 z "},"ª":{"ha":418,"x_min":14,"x_max":399,"o":"m 385 330 l 385 378 l 24 378 l 24 330 l 385 330 m 399 530 l 373 530 q 346 480 369 481 q 328 519 328 483 l 328 682 q 178 814 324 811 q 38 761 65 814 q 33 738 33 749 q 68 696 33 703 q 79 694 73 694 q 132 734 121 694 q 146 776 142 770 q 176 788 159 788 q 228 718 224 788 q 228 700 228 709 l 228 654 q 16 563 34 652 q 14 541 14 552 q 88 446 14 463 q 121 442 104 442 q 231 507 199 442 q 232 511 231 510 q 301 444 244 454 q 320 442 311 442 q 397 510 387 442 q 399 530 399 519 m 160 490 q 121 551 122 492 q 182 621 121 609 q 228 627 202 625 l 228 560 q 160 490 205 494 z "},"º":{"ha":420,"x_min":14,"x_max":403,"o":"m 138 628 q 186 777 138 760 q 208 781 197 781 q 274 707 262 781 q 278 631 278 677 q 228 477 278 495 q 208 475 218 475 q 142 557 152 475 q 138 628 138 586 m 210 814 q 45 734 99 814 q 14 631 14 688 q 96 473 14 526 q 205 442 145 442 q 369 521 312 442 q 403 631 403 570 q 319 785 403 735 q 210 814 270 814 m 28 330 l 389 330 l 389 378 l 28 378 l 28 330 z "},"ø":{"ha":703,"x_min":11,"x_max":665,"o":"m 43 -16 l 133 72 q 347 -14 220 -14 q 587 95 498 -14 q 658 298 658 180 q 578 511 656 429 l 665 598 l 632 628 l 544 541 q 357 600 465 600 q 113 494 202 600 q 45 298 45 412 q 103 107 46 187 l 11 15 l 43 -16 m 209 293 q 282 547 209 499 q 351 564 312 564 q 475 473 442 563 l 212 213 q 209 293 209 262 m 351 22 q 224 134 252 22 q 218 157 221 146 l 487 422 q 495 298 495 368 q 412 35 495 80 q 351 22 385 22 z "},"õ":{"ha":703,"x_min":45,"x_max":658,"o":"m 209 293 q 282 547 209 499 q 351 564 312 564 q 481 448 454 564 q 495 298 495 391 q 412 35 495 80 q 351 22 385 22 q 222 138 250 22 q 209 293 209 197 m 357 600 q 113 494 202 600 q 45 298 45 412 q 156 52 45 141 q 347 -14 237 -14 q 587 95 498 -14 q 658 298 658 180 q 544 541 658 457 q 357 600 465 600 m 286 876 q 393 831 327 876 q 477 793 448 793 q 552 869 533 796 l 581 864 q 484 703 563 728 q 453 697 469 697 q 346 742 412 697 q 264 780 292 780 q 190 718 210 780 q 187 705 189 711 l 160 709 q 256 872 176 848 q 286 876 271 876 z "},"p":{"ha":755,"x_min":30,"x_max":712,"o":"m 264 -222 l 264 52 q 430 -14 321 -12 q 640 85 559 -14 q 712 308 712 174 q 616 552 712 473 q 481 600 557 600 q 301 515 369 600 q 262 445 275 483 l 255 581 l 30 581 l 30 547 l 115 547 l 115 -149 q 77 -217 115 -206 q 30 -222 60 -222 l 30 -258 l 376 -258 q 358 -224 376 -228 q 342 -222 350 -222 l 264 -222 m 419 537 q 549 290 548 534 q 439 26 549 58 q 407 22 425 22 q 286 118 324 22 q 263 264 263 179 q 342 507 263 437 q 419 537 377 537 z "},"¶":{"ha":735,"x_min":49,"x_max":719,"o":"m 313 -157 q 549 -73 461 -157 q 623 110 623 -1 l 621 779 l 719 779 l 719 814 l 381 814 q 91 684 176 814 q 49 536 49 618 q 151 324 49 399 q 338 269 228 269 l 370 269 l 370 77 q 347 -110 370 -84 q 320 -121 336 -121 q 271 -73 283 -121 q 266 -47 269 -65 q 227 38 254 19 q 174 52 205 52 q 96 1 114 52 q 92 -26 92 -12 q 187 -136 92 -98 q 313 -157 244 -157 m 480 91 q 442 -92 480 -53 q 378 -119 419 -115 q 410 81 410 -84 l 410 779 l 480 779 l 480 91 z "},"(":{"ha":456,"x_min":68,"x_max":435,"o":"m 423 882 q 134 633 232 830 q 68 334 68 496 q 189 -49 68 106 q 419 -203 281 -165 l 433 -167 q 224 336 224 -88 q 435 845 225 765 l 423 882 z "},")":{"ha":457,"x_min":22,"x_max":389,"o":"m 34 882 q 323 633 225 830 q 389 334 389 496 q 269 -49 389 106 q 38 -203 176 -165 l 24 -167 q 233 336 233 -88 q 22 845 232 765 l 34 882 z "},"∂":{"ha":718,"x_min":45,"x_max":659,"o":"m 659 473 q 538 772 659 680 q 363 827 465 827 q 170 770 263 826 l 191 735 q 349 787 277 787 q 499 661 463 787 q 513 547 513 610 q 503 449 513 496 q 346 519 442 519 q 103 404 189 519 q 45 218 45 324 q 138 28 45 94 q 289 -14 201 -14 q 574 152 469 -14 q 659 473 659 289 m 206 191 q 290 453 206 382 q 359 480 323 480 q 460 381 435 480 q 468 302 468 346 q 399 72 468 155 q 305 22 357 23 q 206 191 208 24 z "},"%":{"ha":1119,"x_min":62,"x_max":1050,"o":"m 277 -43 l 863 827 l 817 857 l 229 -14 l 277 -43 m 293 848 q 102 753 167 848 q 62 614 62 693 q 164 412 62 475 q 289 378 218 378 q 479 475 416 378 q 517 612 517 533 q 411 819 517 758 q 293 848 358 848 m 292 407 q 212 484 229 407 q 201 612 201 530 q 251 810 201 779 q 290 819 269 819 q 369 739 351 819 q 378 616 378 693 q 323 414 378 441 q 292 407 308 407 m 826 456 q 635 361 700 456 q 595 222 595 301 q 697 20 595 83 q 822 -14 751 -14 q 1012 83 949 -14 q 1050 220 1050 141 q 944 427 1050 366 q 826 456 891 456 m 825 15 q 745 92 762 15 q 734 220 734 138 q 784 418 734 387 q 823 427 802 427 q 902 347 884 427 q 911 224 911 301 q 856 22 911 49 q 825 15 842 15 z "},".":{"ha":264,"x_min":45,"x_max":220,"o":"m 220 80 q 172 157 220 133 q 132 168 152 168 q 54 119 77 168 q 45 80 45 100 q 94 1 45 24 q 132 -7 113 -7 q 209 39 184 -7 q 220 80 220 58 z "},"·":{"ha":363,"x_min":90,"x_max":274,"o":"m 274 311 q 225 392 274 365 q 182 403 203 403 q 100 354 126 403 q 90 311 90 332 q 140 229 90 254 q 182 220 160 220 q 263 267 237 220 q 274 311 274 288 z "},"‰":{"ha":1640,"x_min":62,"x_max":1571,"o":"m 1347 456 q 1156 361 1221 456 q 1116 222 1116 301 q 1218 20 1116 83 q 1343 -14 1272 -14 q 1533 83 1470 -14 q 1571 220 1571 141 q 1465 427 1571 366 q 1347 456 1412 456 m 1345 15 q 1265 92 1283 15 q 1255 220 1255 138 q 1305 418 1255 387 q 1344 427 1322 427 q 1423 347 1405 427 q 1432 224 1432 301 q 1377 22 1432 49 q 1345 15 1363 15 m 277 -43 l 863 827 l 817 857 l 229 -14 l 277 -43 m 293 848 q 102 753 167 848 q 62 614 62 693 q 164 412 62 475 q 289 378 218 378 q 479 475 416 378 q 517 612 517 533 q 411 819 517 758 q 293 848 358 848 m 292 407 q 212 484 229 407 q 201 612 201 530 q 251 810 201 779 q 290 819 269 819 q 369 739 351 819 q 378 616 378 693 q 323 414 378 441 q 292 407 308 407 m 826 456 q 635 361 700 456 q 595 222 595 301 q 697 20 595 83 q 822 -14 751 -14 q 1012 83 949 -14 q 1050 220 1050 141 q 944 427 1050 366 q 826 456 891 456 m 825 15 q 745 92 762 15 q 734 220 734 138 q 784 418 734 387 q 823 427 802 427 q 902 347 884 427 q 911 224 911 301 q 856 22 911 49 q 825 15 842 15 z "},"π":{"ha":777,"x_min":30,"x_max":760,"o":"m 760 103 l 728 110 q 674 23 715 37 q 665 22 669 22 q 627 94 629 22 q 627 107 627 100 l 627 545 l 731 545 l 731 581 l 30 581 l 30 545 l 117 545 l 117 106 q 60 37 117 46 q 30 35 46 35 l 30 0 l 355 0 q 338 34 355 31 q 323 35 331 35 l 267 35 l 267 545 l 477 545 l 477 194 q 604 -12 477 4 q 632 -14 617 -14 q 760 103 739 -11 z "},"+":{"ha":617,"x_min":47,"x_max":570,"o":"m 570 290 l 570 345 l 345 345 l 345 587 l 274 587 l 274 345 l 47 345 l 47 290 l 274 290 l 274 47 l 345 47 l 345 290 l 570 290 z "},"±":{"ha":617,"x_min":47,"x_max":570,"o":"m 570 345 l 570 399 l 345 399 l 345 587 l 274 587 l 274 399 l 47 399 l 47 345 l 274 345 l 274 156 l 345 156 l 345 345 l 570 345 m 570 42 l 570 96 l 47 96 l 47 42 l 570 42 z "},"∏":{"ha":808,"x_min":16,"x_max":792,"o":"m 361 -176 q 343 -141 361 -144 q 328 -140 336 -140 l 281 -140 l 281 777 l 525 777 l 525 -140 l 448 -140 l 448 -176 l 792 -176 q 774 -141 792 -144 q 760 -140 768 -140 l 690 -140 l 690 777 l 792 777 l 792 814 l 16 814 l 16 777 l 115 777 l 115 -140 l 16 -140 l 16 -176 l 361 -176 z "},"q":{"ha":762,"x_min":43,"x_max":734,"o":"m 43 277 q 155 27 43 106 q 286 -14 213 -14 q 467 77 399 -14 q 492 122 481 99 l 491 -149 q 452 -217 491 -206 q 397 -222 433 -222 l 397 -258 l 734 -258 q 716 -224 734 -227 q 700 -222 708 -222 l 642 -222 l 642 547 l 732 547 l 732 581 l 505 581 l 499 534 q 324 600 431 600 q 115 502 195 600 q 43 277 43 414 m 494 320 q 406 64 494 122 q 343 46 376 46 q 214 197 240 46 q 206 294 206 241 q 294 543 206 487 q 355 559 323 559 q 491 385 472 559 q 494 320 494 354 z "},"?":{"ha":629,"x_min":72,"x_max":560,"o":"m 304 250 q 391 427 304 351 q 438 465 406 441 q 537 564 514 524 q 560 654 560 605 q 426 811 560 770 q 308 827 373 827 q 111 768 179 827 q 72 688 73 732 q 129 616 72 627 q 149 614 140 614 q 218 667 206 614 q 224 701 221 678 q 254 779 229 762 q 304 792 273 792 q 401 678 397 784 q 347 490 401 572 q 290 400 298 415 q 260 250 260 336 l 304 250 m 374 80 q 327 157 374 133 q 286 168 307 168 q 209 119 232 168 q 199 80 199 100 q 248 1 199 24 q 286 -7 267 -7 q 363 39 339 -7 q 374 80 374 58 z "},"¿":{"ha":665,"x_min":52,"x_max":540,"o":"m 308 343 q 221 165 308 241 q 174 127 206 152 q 75 28 98 69 q 52 -61 52 -12 q 186 -218 52 -178 q 304 -235 239 -235 q 500 -175 433 -235 q 540 -95 538 -140 q 483 -23 540 -34 q 463 -22 473 -22 q 393 -75 406 -22 q 388 -109 391 -85 q 358 -186 382 -170 q 308 -199 339 -199 q 210 -85 214 -191 q 264 103 210 20 q 321 193 313 178 q 351 343 351 256 l 308 343 m 237 513 q 285 435 237 460 q 326 425 305 425 q 403 473 380 425 q 412 513 412 492 q 363 591 412 568 q 326 600 345 600 q 248 553 273 600 q 237 513 237 534 z "},"\"":{"ha":416,"x_min":45,"x_max":372,"o":"m 115 892 q 46 848 57 892 q 45 833 45 840 q 72 709 45 811 q 95 593 88 644 l 134 593 q 174 769 140 640 q 184 836 184 812 q 132 891 184 884 q 115 892 122 892 m 304 892 q 235 845 243 892 q 233 833 233 838 q 259 711 233 812 q 282 593 277 646 l 323 593 q 361 769 328 640 q 372 836 372 814 q 317 891 372 884 q 304 892 311 892 z "},"„":{"ha":441,"x_min":34,"x_max":407,"o":"m 407 68 q 346 165 407 148 q 319 170 332 170 q 245 121 267 170 q 239 85 239 103 q 290 9 239 31 q 305 5 298 7 q 338 -24 336 -4 q 289 -114 338 -62 q 285 -118 286 -117 l 313 -138 q 406 43 393 -54 q 407 68 407 56 m 203 68 q 145 164 203 145 q 114 170 130 170 q 42 123 64 170 q 34 85 34 104 q 85 9 34 31 q 100 5 94 7 q 134 -24 133 -4 q 84 -114 134 -61 q 80 -118 81 -117 l 109 -138 q 202 43 190 -54 q 203 68 203 56 z "},"“":{"ha":439,"x_min":34,"x_max":407,"o":"m 34 685 q 95 587 34 605 q 122 583 109 583 q 195 632 174 583 q 202 667 202 650 q 151 743 202 722 q 136 747 142 746 q 103 777 104 757 q 152 867 103 815 q 156 871 155 869 l 127 891 q 35 709 47 807 q 34 685 34 696 m 237 685 q 296 589 237 608 q 327 583 311 583 q 399 629 377 583 q 407 667 407 648 q 355 743 407 722 q 340 747 347 746 q 307 777 308 757 q 357 867 307 814 q 361 871 359 869 l 332 891 q 239 709 251 807 q 237 685 237 697 z "},"”":{"ha":442,"x_min":34,"x_max":407,"o":"m 407 769 q 346 867 407 849 q 319 871 332 871 q 245 822 267 871 q 239 787 239 804 q 290 711 239 732 q 305 707 298 708 q 338 677 336 697 q 289 587 338 639 q 285 583 286 585 l 313 563 q 406 745 393 647 q 407 769 407 758 m 203 769 q 145 865 203 846 q 114 871 130 871 q 42 825 64 871 q 34 787 34 806 q 85 711 34 732 q 100 707 94 708 q 134 677 133 697 q 84 587 134 640 q 80 583 81 585 l 109 563 q 202 745 190 647 q 203 769 203 757 z "},"‘":{"ha":256,"x_min":35,"x_max":212,"o":"m 212 666 q 160 745 212 722 q 141 750 149 749 q 107 780 109 760 q 163 878 109 821 l 134 899 q 37 711 50 811 q 35 685 35 697 q 94 585 35 606 q 127 579 109 579 q 202 627 179 579 q 212 666 212 646 z "},"’":{"ha":304,"x_min":46,"x_max":221,"o":"m 221 785 q 163 886 221 864 q 129 891 146 891 q 56 844 79 891 q 46 804 46 825 q 99 726 46 747 q 115 720 107 722 q 149 689 148 711 q 98 594 149 650 q 95 591 96 593 l 123 571 q 220 760 206 658 q 221 785 221 773 z "},"‚":{"ha":232,"x_min":33,"x_max":202,"o":"m 202 69 q 145 164 202 142 q 114 170 130 170 q 41 125 62 170 q 33 87 33 107 q 84 11 33 31 q 100 7 94 8 q 133 -23 132 -4 q 92 -103 132 -54 l 121 -122 q 202 69 199 -26 z "},"'":{"ha":237,"x_min":45,"x_max":193,"o":"m 119 892 q 47 850 61 892 q 45 833 45 841 q 73 715 45 811 q 99 593 92 647 l 138 593 q 180 768 144 644 q 193 836 193 814 q 138 891 193 882 q 119 892 129 892 z "},"r":{"ha":560,"x_min":33,"x_max":553,"o":"m 368 35 l 269 35 l 269 330 q 342 505 278 460 q 368 514 357 514 q 403 483 385 514 q 452 431 426 439 q 477 427 464 427 q 547 475 526 427 q 553 506 553 490 q 490 587 553 571 q 457 591 473 591 q 309 524 374 591 q 264 453 281 492 l 256 581 l 33 581 l 33 547 l 118 547 l 118 109 q 77 39 118 50 q 33 35 60 35 l 33 0 l 400 0 q 380 34 400 31 q 368 35 374 35 z "},"ŕ":{"ha":560,"x_min":33,"x_max":553,"o":"m 368 35 l 269 35 l 269 330 q 342 505 278 460 q 368 514 357 514 q 403 483 385 514 q 452 431 426 439 q 477 427 464 427 q 547 475 526 427 q 553 506 553 490 q 490 587 553 571 q 457 591 473 591 q 309 524 374 591 q 264 453 281 492 l 256 581 l 33 581 l 33 547 l 118 547 l 118 109 q 77 39 118 50 q 33 35 60 35 l 33 0 l 400 0 q 380 34 400 31 q 368 35 374 35 m 401 762 q 427 812 426 783 q 388 879 427 856 q 355 888 372 888 q 315 872 335 888 q 245 789 298 860 q 146 681 197 727 l 167 654 q 332 727 203 674 q 401 762 382 747 z "},"√":{"ha":610,"x_min":-18,"x_max":646,"o":"m 224 594 l -18 490 l -4 452 l 106 499 l 243 88 q 304 -1 269 12 q 343 -7 319 -7 l 395 -7 l 646 981 l 595 991 l 372 127 l 224 594 z "},"ř":{"ha":560,"x_min":33,"x_max":553,"o":"m 368 35 l 269 35 l 269 330 q 342 505 278 460 q 368 514 357 514 q 403 483 385 514 q 452 431 426 439 q 477 427 464 427 q 547 475 526 427 q 553 506 553 490 q 490 587 553 571 q 457 591 473 591 q 309 524 374 591 q 264 453 281 492 l 256 581 l 33 581 l 33 547 l 118 547 l 118 109 q 77 39 118 50 q 33 35 60 35 l 33 0 l 400 0 q 380 34 400 31 q 368 35 374 35 m 273 680 q 355 730 312 680 q 387 768 365 741 q 472 867 437 829 l 453 891 q 271 802 369 841 q 90 891 174 844 l 71 865 q 182 738 95 841 q 273 680 239 684 z "},"®":{"ha":536,"x_min":24,"x_max":502,"o":"m 502 642 q 411 827 502 760 q 263 875 346 875 q 71 783 141 875 q 24 642 24 720 q 115 456 24 524 q 263 408 180 408 q 456 500 385 408 q 502 642 502 562 m 61 642 q 144 808 61 749 q 263 845 197 845 q 430 760 372 844 q 465 642 465 707 q 382 475 465 534 q 263 438 330 438 q 96 524 155 438 q 61 642 61 576 m 412 509 q 396 529 410 528 l 387 529 l 321 635 q 387 708 385 651 q 327 773 387 757 q 281 779 305 779 l 132 780 l 132 758 l 160 758 l 160 529 l 132 529 l 132 509 l 266 509 l 266 529 l 235 529 l 235 629 l 255 629 l 323 507 l 412 509 m 235 758 l 259 758 q 304 719 296 758 q 305 705 305 711 q 270 652 305 661 q 260 651 264 651 l 235 651 l 235 758 z "},"˚":{"ha":678,"x_min":178,"x_max":486,"o":"m 273 779 q 331 873 274 872 q 391 781 391 872 q 331 686 389 688 q 273 779 273 688 m 335 906 q 187 829 220 906 q 178 781 178 806 q 255 667 178 697 q 328 654 288 654 q 475 731 439 654 q 486 783 486 755 q 410 894 486 863 q 335 906 376 906 z "},"s":{"ha":560,"x_min":58,"x_max":515,"o":"m 263 24 q 376 85 354 24 q 380 113 380 99 q 294 222 380 178 q 235 250 275 232 q 95 334 130 296 q 58 434 58 377 q 175 582 58 541 q 290 600 227 600 q 453 562 389 600 q 475 606 453 602 q 488 608 481 608 l 488 438 l 448 438 q 312 563 442 562 q 199 506 221 563 q 194 476 194 491 q 275 377 194 419 q 332 351 293 369 q 475 266 439 305 q 515 157 515 220 q 396 3 515 42 q 288 -14 347 -14 q 96 31 174 -14 q 79 -9 96 -4 q 60 -11 71 -11 l 60 195 l 103 195 q 263 24 106 26 z "},"ś":{"ha":560,"x_min":58,"x_max":515,"o":"m 263 24 q 376 85 354 24 q 380 113 380 99 q 294 222 380 178 q 235 250 275 232 q 95 334 130 296 q 58 434 58 377 q 175 582 58 541 q 290 600 227 600 q 453 562 389 600 q 475 606 453 602 q 488 608 481 608 l 488 438 l 448 438 q 312 563 442 562 q 199 506 221 563 q 194 476 194 491 q 275 377 194 419 q 332 351 293 369 q 475 266 439 305 q 515 157 515 220 q 396 3 515 42 q 288 -14 347 -14 q 96 31 174 -14 q 79 -9 96 -4 q 60 -11 71 -11 l 60 195 l 103 195 q 263 24 106 26 m 411 762 q 437 812 435 783 q 397 879 437 856 q 365 888 381 888 q 324 872 345 888 q 255 789 308 860 q 156 681 206 727 l 176 654 q 342 727 213 674 q 411 762 392 747 z "},"š":{"ha":560,"x_min":58,"x_max":515,"o":"m 263 24 q 376 85 354 24 q 380 113 380 99 q 294 222 380 178 q 235 250 275 232 q 95 334 130 296 q 58 434 58 377 q 175 582 58 541 q 290 600 227 600 q 453 562 389 600 q 475 606 453 602 q 488 608 481 608 l 488 438 l 448 438 q 312 563 442 562 q 199 506 221 563 q 194 476 194 491 q 275 377 194 419 q 332 351 293 369 q 475 266 439 305 q 515 157 515 220 q 396 3 515 42 q 288 -14 347 -14 q 96 31 174 -14 q 79 -9 96 -4 q 60 -11 71 -11 l 60 195 l 103 195 q 263 24 106 26 m 282 680 q 365 730 321 680 q 396 768 374 741 q 481 867 446 829 l 463 891 q 281 802 378 841 q 99 891 183 844 l 80 865 q 191 738 104 841 q 282 680 248 684 z "},"§":{"ha":637,"x_min":56,"x_max":585,"o":"m 197 430 q 236 509 198 480 q 286 486 252 500 q 423 406 396 438 q 444 354 444 381 q 400 273 442 301 q 353 294 384 281 q 217 378 244 346 q 197 430 197 403 m 585 399 q 467 557 585 494 q 384 595 441 571 q 251 673 278 642 q 231 726 231 697 q 285 799 231 779 q 324 806 304 806 q 406 753 389 806 q 412 728 408 745 q 446 670 425 681 q 479 663 461 663 q 534 723 529 673 q 442 822 534 787 q 327 842 388 842 q 119 766 182 842 q 88 677 88 728 q 183 536 90 594 q 58 418 77 505 q 56 388 56 403 q 176 224 56 292 q 256 182 202 209 q 384 102 359 133 q 400 58 400 81 q 345 -18 400 1 q 308 -23 327 -23 q 229 30 247 -23 q 222 57 227 39 q 189 119 212 107 q 153 127 174 127 q 91 80 99 127 q 90 68 90 73 q 190 -42 90 -7 q 305 -60 243 -60 q 503 7 434 -60 q 547 107 547 50 q 448 247 545 187 q 581 365 560 278 q 585 399 585 381 z "},";":{"ha":256,"x_min":45,"x_max":221,"o":"m 217 401 q 170 479 217 454 q 130 488 151 488 q 54 441 77 488 q 45 401 45 422 q 94 323 45 346 q 130 315 111 315 q 208 362 183 315 q 217 401 217 380 m 221 84 q 164 183 221 161 q 129 190 146 190 q 53 141 76 190 q 45 102 45 122 q 96 24 45 47 q 115 19 106 20 q 149 -12 148 9 q 94 -110 148 -53 l 122 -130 q 220 58 206 -42 q 221 84 221 72 z "},"-":{"ha":423,"x_min":58,"x_max":343,"o":"m 58 311 l 343 311 l 343 254 l 58 254 l 58 311 z "},"‐":{"ha":423,"x_min":58,"x_max":343,"o":"m 58 311 l 343 311 l 343 254 l 58 254 l 58 311 z "},"අ":{"ha":758,"x_min":43,"x_max":700,"o":"m 540 305 q 514 308 522 305 l 514 414 q 556 528 515 488 l 556 524 q 582 458 557 495 q 604 384 604 425 q 560 308 604 324 q 540 305 549 305 m 473 -285 l 514 -285 l 514 5 q 693 68 627 24 l 693 111 q 514 46 625 60 l 514 269 q 568 263 551 263 q 688 321 655 263 q 700 372 700 345 q 637 479 700 431 q 593 522 598 511 q 590 534 590 529 q 605 557 591 551 l 604 557 l 613 562 l 582 576 q 509 530 540 566 q 473 415 473 490 l 473 42 q 427 41 457 41 q 232 144 277 41 q 217 217 217 178 q 283 353 217 311 q 385 378 326 378 l 457 378 l 457 384 q 346 564 457 528 q 279 574 316 574 q 151 522 183 574 q 141 488 141 506 q 179 438 141 450 q 197 435 189 435 q 256 475 237 437 q 297 513 273 506 q 321 515 309 515 q 406 456 380 515 q 415 410 414 433 l 267 410 q 66 308 121 410 q 43 212 43 264 q 187 23 43 77 q 373 -5 264 -5 q 473 0 433 -5 l 473 -285 z "},"ආ":{"ha":1143,"x_min":43,"x_max":1074,"o":"m 540 305 q 514 308 522 305 l 514 414 q 556 528 515 488 l 556 524 q 582 458 557 495 q 604 384 604 425 q 560 308 604 324 q 540 305 549 305 m 473 -285 l 514 -285 l 514 5 q 693 68 627 24 l 693 111 q 514 46 625 60 l 514 269 q 568 263 551 263 q 688 321 655 263 q 700 372 700 345 q 637 479 700 431 q 593 522 598 511 q 590 534 590 529 q 605 557 591 551 l 604 557 l 613 562 l 582 576 q 509 530 540 566 q 473 415 473 490 l 473 42 q 427 41 457 41 q 232 144 277 41 q 217 217 217 178 q 283 353 217 311 q 385 378 326 378 l 457 378 l 457 384 q 346 564 457 528 q 279 574 316 574 q 151 522 183 574 q 141 488 141 506 q 179 438 141 450 q 197 435 189 435 q 256 475 237 437 q 297 513 273 506 q 321 515 309 515 q 406 456 380 515 q 415 410 414 433 l 267 410 q 66 308 121 410 q 43 212 43 264 q 187 23 43 77 q 373 -5 264 -5 q 473 0 433 -5 l 473 -285 m 745 146 q 826 11 745 46 q 892 -1 857 -1 q 1066 172 1036 -1 q 1074 266 1074 216 q 939 529 1074 495 q 892 534 917 534 q 769 471 811 534 q 745 387 745 433 q 746 357 745 366 l 783 357 q 781 377 781 365 q 829 457 781 444 q 842 460 836 460 q 921 266 921 457 q 842 75 920 76 q 783 134 791 75 q 781 155 781 145 q 783 175 781 168 l 746 175 q 745 146 745 164 z "},"ඈ":{"ha":1164,"x_min":43,"x_max":1122,"o":"m 540 305 q 514 308 522 305 l 514 414 q 556 528 515 488 l 556 524 q 582 458 557 495 q 604 384 604 425 q 560 308 604 324 q 540 305 549 305 m 473 -285 l 514 -285 l 514 5 q 693 68 627 24 l 693 111 q 514 46 625 60 l 514 269 q 568 263 551 263 q 688 321 655 263 q 700 372 700 345 q 637 479 700 431 q 593 522 598 511 q 590 534 590 529 q 605 557 591 551 l 604 557 l 613 562 l 582 576 q 509 530 540 566 q 473 415 473 490 l 473 42 q 427 41 457 41 q 232 144 277 41 q 217 217 217 178 q 283 353 217 311 q 385 378 326 378 l 457 378 l 457 384 q 346 564 457 528 q 279 574 316 574 q 151 522 183 574 q 141 488 141 506 q 179 438 141 450 q 197 435 189 435 q 256 475 237 437 q 297 513 273 506 q 321 515 309 515 q 406 456 380 515 q 415 410 414 433 l 267 410 q 66 308 121 410 q 43 212 43 264 q 187 23 43 77 q 373 -5 264 -5 q 473 0 433 -5 l 473 -285 m 722 415 l 981 415 l 811 292 l 811 262 l 1020 262 q 836 94 882 175 q 804 -22 804 38 q 903 -179 804 -137 q 1000 -197 947 -197 q 1122 -170 1059 -197 l 1122 -134 q 970 -43 1010 -134 q 954 38 954 -5 q 1077 266 955 174 l 1077 296 l 878 296 l 1046 420 l 1046 449 l 722 449 l 722 415 z "},"ඇ":{"ha":1162,"x_min":43,"x_max":1126,"o":"m 724 414 l 997 414 q 823 152 863 269 q 802 23 802 87 q 887 -167 802 -110 q 986 -195 932 -195 q 1126 -141 1077 -194 l 1120 -115 q 1065 -107 1084 -115 q 955 27 981 -81 q 945 103 945 64 q 1046 426 947 273 q 1050 449 1048 446 l 724 449 l 724 414 m 540 305 q 514 308 522 305 l 514 414 q 556 528 515 488 l 556 524 q 582 458 557 495 q 604 384 604 425 q 560 308 604 324 q 540 305 549 305 m 473 -285 l 514 -285 l 514 5 q 693 68 627 24 l 693 111 q 514 46 625 60 l 514 269 q 568 263 551 263 q 688 321 655 263 q 700 372 700 345 q 637 479 700 431 q 593 522 598 511 q 590 534 590 529 q 605 557 591 551 l 604 557 l 613 562 l 582 576 q 509 530 540 566 q 473 415 473 490 l 473 42 q 427 41 457 41 q 232 144 277 41 q 217 217 217 178 q 283 353 217 311 q 385 378 326 378 l 457 378 l 457 384 q 346 564 457 528 q 279 574 316 574 q 151 522 183 574 q 141 488 141 506 q 179 438 141 450 q 197 435 189 435 q 256 475 237 437 q 297 513 273 506 q 321 515 309 515 q 406 456 380 515 q 415 410 414 433 l 267 410 q 66 308 121 410 q 43 212 43 264 q 187 23 43 77 q 373 -5 264 -5 q 473 0 433 -5 l 473 -285 z "},"ඓ":{"ha":1560,"x_min":43,"x_max":1496,"o":"m 834 218 q 994 20 834 71 q 1141 0 1059 0 q 1446 144 1354 0 q 1496 324 1496 224 q 1439 548 1496 444 q 1427 570 1432 559 q 1263 753 1367 673 q 1204 791 1232 776 q 1149 636 1149 726 q 1214 496 1149 538 q 1282 476 1244 476 q 1398 544 1366 477 q 1438 384 1438 480 q 1302 183 1438 237 q 1143 156 1234 156 q 906 263 907 157 q 948 334 907 305 q 1082 366 1002 366 l 1165 366 l 1165 384 q 1089 547 1165 498 q 997 571 1050 571 q 871 517 903 571 q 859 476 859 498 q 897 427 859 437 q 910 426 903 426 q 966 471 952 429 q 1029 518 983 515 q 1108 465 1082 518 q 1122 408 1122 438 l 1122 400 l 796 400 l 796 357 q 945 366 841 365 l 952 366 q 878 328 910 355 q 834 218 834 289 m 1194 646 q 1217 739 1194 696 q 1370 585 1313 669 q 1295 533 1347 537 q 1200 600 1223 533 q 1194 646 1194 621 m 298 353 q 340 408 298 391 q 372 414 355 414 q 438 376 419 414 q 444 353 444 363 q 403 297 444 313 q 372 290 388 290 q 305 328 324 290 q 298 353 298 339 m 43 281 q 161 54 43 134 q 357 0 244 0 q 613 110 537 0 q 650 231 650 163 q 533 425 650 365 q 389 456 469 456 q 266 399 301 456 q 252 350 252 376 q 313 263 252 293 q 372 250 342 250 q 471 297 435 250 q 488 350 488 321 q 463 412 487 387 q 562 334 540 395 q 568 300 568 316 q 468 172 568 210 q 357 153 418 153 q 160 239 224 153 q 127 339 127 283 q 232 495 127 438 q 399 533 304 533 q 656 429 557 533 q 734 273 719 362 l 773 273 q 631 506 760 419 q 399 572 529 572 q 133 477 237 572 q 43 281 45 396 z "},"ඖ":{"ha":1369,"x_min":39,"x_max":1305,"o":"m 363 479 q 400 536 363 519 q 425 541 411 541 q 480 503 464 541 q 486 479 486 492 q 448 422 486 438 q 425 418 437 418 q 368 456 384 418 q 363 479 363 467 m 39 297 q 109 75 39 163 q 259 0 168 1 q 404 73 365 1 q 522 0 431 7 q 537 0 529 0 q 761 180 707 0 q 781 336 781 251 q 662 663 781 541 q 399 766 557 766 q 91 628 194 766 q 83 617 87 623 l 126 617 q 347 732 209 720 q 395 734 370 734 q 661 600 572 734 q 713 411 713 517 q 635 190 713 256 q 537 156 593 156 q 426 218 444 156 q 422 243 422 231 l 422 258 l 387 258 l 387 244 q 267 155 374 160 q 119 244 167 155 q 92 358 92 296 q 134 502 92 446 q 193 536 160 536 q 227 492 227 533 l 227 449 q 319 311 227 345 q 392 298 353 298 q 536 368 494 298 q 555 437 555 400 q 487 562 555 528 q 426 575 458 575 q 331 518 355 575 q 323 477 323 498 q 370 392 323 420 q 422 378 395 378 q 510 430 483 378 q 514 438 513 434 q 515 431 515 434 q 444 345 515 366 q 391 338 419 338 q 271 406 297 338 q 264 446 264 425 l 264 491 q 240 560 263 544 q 197 571 222 571 q 69 460 114 571 q 39 297 39 388 m 827 425 q 888 298 827 336 q 951 281 917 281 q 1059 354 1043 281 q 1062 381 1062 368 q 1013 456 1061 430 l 1013 465 q 1067 522 1015 521 q 1143 389 1128 522 q 1147 315 1147 355 q 1082 72 1147 96 q 1059 68 1072 68 q 986 134 998 68 q 983 165 983 149 q 987 208 983 187 l 951 208 q 945 159 945 184 q 1024 14 945 52 q 1099 -3 1057 -3 q 1287 157 1242 -3 q 1305 292 1305 217 q 1225 528 1305 453 q 1105 572 1176 572 q 982 502 1008 572 q 975 463 975 483 q 977 446 975 452 q 1004 384 1004 416 q 945 323 994 328 q 875 382 892 323 q 868 426 868 403 q 925 567 869 518 l 876 567 q 827 425 827 513 z "},"බ":{"ha":819,"x_min":43,"x_max":762,"o":"m 136 100 q 172 43 136 61 q 198 37 184 37 q 255 73 237 37 q 262 100 262 87 q 225 157 262 140 q 198 164 212 164 q 141 127 159 164 q 136 100 136 114 m 43 248 q 155 476 43 399 q 320 525 225 525 q 514 445 456 525 q 544 349 544 403 q 472 225 544 264 q 446 212 464 220 q 395 171 400 190 q 392 157 392 164 q 449 121 393 122 q 621 239 552 121 q 678 453 678 336 q 563 692 678 613 q 387 741 490 741 q 127 623 205 739 l 84 623 q 330 772 148 753 q 387 774 358 774 q 697 620 598 774 q 762 376 762 519 q 671 73 762 178 q 505 -3 604 -3 q 365 71 406 -3 q 349 138 349 102 q 397 228 349 195 q 448 263 441 255 q 463 308 463 282 q 381 377 463 359 q 313 384 350 384 q 127 305 190 384 q 90 193 90 256 q 102 121 90 149 q 163 197 109 178 q 198 202 180 202 q 290 151 259 202 q 304 102 304 127 q 245 9 304 37 q 198 -1 222 -1 q 60 126 98 -1 q 43 248 43 182 z "},"භ":{"ha":887,"x_min":8,"x_max":822,"o":"m 8 357 q 161 366 37 362 q 65 205 66 305 q 161 30 65 87 q 288 -1 217 -1 q 476 85 418 -1 q 506 193 506 133 q 453 309 506 281 q 419 317 437 317 q 381 308 396 316 q 533 437 419 435 q 686 330 643 437 q 705 231 705 283 q 636 68 705 122 q 534 37 593 37 q 487 39 503 37 l 487 3 q 541 -1 515 -1 q 762 102 681 -1 q 822 279 822 179 q 736 514 822 431 q 591 572 675 572 q 406 458 483 572 q 338 256 346 369 l 369 245 q 414 283 382 282 q 448 241 446 281 q 359 163 448 184 q 300 156 330 156 q 148 217 183 156 q 136 262 136 237 q 212 354 136 324 q 297 369 250 369 q 338 366 323 369 q 264 544 338 490 q 178 572 227 572 q 73 517 102 572 q 65 481 65 499 q 103 430 65 438 q 115 429 109 429 q 168 468 152 430 q 218 503 184 502 q 283 449 262 503 q 293 401 293 426 l 285 401 l 283 401 l 8 401 l 8 357 z "},"ච":{"ha":791,"x_min":18,"x_max":762,"o":"m 84 218 q 244 20 84 71 q 391 0 309 0 q 708 155 613 0 q 762 363 762 243 q 647 662 762 547 q 401 764 545 764 q 111 623 210 762 l 156 623 q 401 731 247 731 q 633 614 548 731 q 694 423 694 530 q 547 182 694 244 q 395 156 481 156 q 163 237 193 156 q 159 263 159 250 q 205 334 161 308 q 350 365 258 365 l 423 365 l 423 384 q 309 563 423 532 q 250 571 281 571 q 122 519 157 571 q 110 476 110 499 q 148 426 110 434 q 159 425 153 425 q 218 471 202 426 q 290 518 236 517 q 365 467 339 518 q 377 408 377 439 l 377 400 l 18 400 l 18 355 q 197 365 60 362 q 129 328 160 355 q 84 218 84 289 z "},"ඡ":{"ha":791,"x_min":43,"x_max":757,"o":"m 627 385 q 500 412 575 410 q 524 541 505 484 l 533 541 q 666 418 658 541 q 666 401 666 410 q 662 363 666 382 q 627 385 647 376 m 408 411 q 407 429 407 418 q 476 532 408 505 q 461 414 464 473 q 408 411 429 414 m 43 225 q 237 18 43 65 q 395 0 308 0 q 681 96 595 0 q 727 222 727 149 q 693 332 726 285 q 705 404 705 372 q 616 560 705 519 q 537 576 579 576 q 590 661 559 624 q 707 731 631 708 q 754 761 747 743 q 757 779 757 769 q 724 817 757 807 q 708 818 716 818 q 574 745 637 817 q 486 571 515 677 q 372 453 385 551 q 369 423 369 438 q 376 376 369 400 q 461 381 422 380 q 543 240 463 262 q 574 236 557 236 q 659 274 625 237 l 659 269 q 422 153 659 163 q 387 153 404 153 q 122 237 164 153 q 114 274 114 255 q 186 363 114 334 q 304 382 232 382 q 336 380 316 382 q 342 431 342 403 q 255 563 342 534 q 197 572 228 572 q 83 521 114 572 q 71 477 71 500 q 109 426 71 437 q 122 425 115 425 q 183 471 160 425 q 187 479 186 476 q 240 511 205 510 q 301 454 292 511 q 302 437 302 445 q 300 412 302 429 q 275 414 292 414 q 71 320 130 414 q 43 225 43 277 m 576 273 q 500 380 503 275 q 644 320 610 373 q 576 273 617 274 z "},"ද":{"ha":604,"x_min":41,"x_max":541,"o":"m 41 224 q 296 420 43 419 l 452 420 q 376 515 435 499 q 351 519 363 519 q 296 480 313 518 q 236 442 277 444 q 182 477 193 442 q 180 491 180 484 q 243 563 180 540 q 308 574 273 574 q 484 454 439 574 q 502 387 495 423 l 388 387 q 214 263 231 387 q 212 229 212 247 q 289 75 212 125 q 368 52 326 52 q 486 100 434 52 q 506 123 496 111 l 538 99 q 434 -91 448 -7 q 431 -127 431 -110 q 541 -274 434 -243 l 541 -315 q 465 -324 498 -324 q 323 -232 351 -323 q 316 -183 316 -209 q 397 -12 316 -110 q 419 12 408 0 q 311 -1 370 -1 q 69 111 134 -1 q 41 224 41 161 z "},"ඩ":{"ha":856,"x_min":20,"x_max":792,"o":"m 20 378 l 20 418 l 343 418 q 297 503 340 475 q 260 515 279 515 q 202 479 224 513 q 149 445 183 446 q 100 479 110 445 q 98 494 98 487 q 167 566 98 545 q 217 572 193 572 q 377 464 340 572 q 391 378 391 426 l 296 378 q 142 301 178 378 q 134 263 134 282 q 205 167 134 193 q 266 156 233 156 q 392 221 376 156 q 395 240 395 231 l 395 275 l 433 275 l 433 240 q 510 160 433 176 q 552 156 530 156 q 703 260 658 156 q 724 380 724 313 q 625 642 724 538 q 395 735 533 735 q 142 620 239 734 l 96 620 q 403 770 202 770 q 697 633 586 770 q 792 342 792 514 q 678 33 792 111 q 567 0 631 0 q 419 72 473 0 q 415 79 416 76 q 263 0 350 1 q 87 103 141 0 q 61 214 61 155 q 141 365 61 315 q 165 378 153 373 l 20 378 z "},"ඪ":{"ha":856,"x_min":20,"x_max":792,"o":"m 20 378 l 20 418 l 340 418 q 294 505 338 477 q 259 515 277 515 q 201 479 222 513 q 148 445 182 446 q 99 479 109 445 q 96 494 96 487 q 165 566 96 545 q 216 572 191 572 q 374 464 336 572 q 388 378 387 425 l 296 378 q 142 301 178 378 q 134 263 134 282 q 205 167 134 193 q 266 156 233 156 q 392 221 376 156 q 395 240 395 231 l 395 275 l 433 275 l 433 240 q 510 160 433 176 q 552 156 530 156 q 703 264 662 156 q 722 376 722 315 q 675 552 722 463 q 559 480 629 481 q 434 562 468 480 q 422 632 422 594 q 476 798 422 715 l 476 799 q 689 621 594 753 q 792 336 792 479 q 670 26 792 99 q 566 0 624 0 q 419 72 473 0 q 415 79 416 76 q 263 0 350 1 q 87 103 141 0 q 61 214 61 155 q 141 365 61 315 q 165 378 153 373 l 20 378 m 463 637 q 562 524 469 528 q 654 593 617 525 q 509 739 590 692 q 495 746 500 743 q 463 637 467 705 z "},"ධ":{"ha":845,"x_min":43,"x_max":780,"o":"m 43 258 q 122 52 43 126 q 252 0 176 0 q 401 79 339 1 q 559 0 463 1 q 758 178 705 0 q 780 346 780 254 q 655 663 780 541 q 396 768 547 768 q 85 620 197 766 l 130 620 q 389 735 236 735 q 636 613 544 735 q 709 395 709 518 q 624 176 709 229 q 548 156 590 156 q 426 240 442 156 q 423 269 423 255 l 423 307 l 382 307 l 382 269 q 281 157 382 171 q 254 156 269 156 q 118 244 152 156 q 107 308 107 274 q 176 457 107 403 q 279 492 221 492 l 293 492 l 293 528 q 201 513 243 528 q 71 384 114 481 q 43 258 43 324 z "},"එ":{"ha":788,"x_min":22,"x_max":722,"o":"m 60 218 q 220 20 60 71 q 366 0 285 0 q 671 144 579 0 q 722 324 722 224 q 665 548 722 444 q 652 570 658 559 q 488 753 593 673 q 430 791 457 776 q 374 636 374 726 q 439 496 374 538 q 507 476 469 476 q 624 544 591 477 q 663 384 663 480 q 528 183 663 237 q 369 156 460 156 q 132 263 133 157 q 174 334 133 305 q 308 366 228 366 l 391 366 l 391 384 q 315 547 391 498 q 222 571 275 571 q 96 517 129 571 q 84 476 84 498 q 122 427 84 437 q 136 426 129 426 q 191 471 178 429 q 255 518 209 515 q 334 465 308 518 q 347 408 347 439 l 347 400 l 22 400 l 22 357 q 171 366 66 365 l 178 366 q 103 328 136 355 q 60 218 60 289 m 419 646 q 442 739 419 696 q 595 585 538 669 q 521 533 572 537 q 426 600 449 533 q 419 646 419 621 z "},"ඒ":{"ha":788,"x_min":22,"x_max":785,"o":"m 621 684 l 621 860 q 716 785 699 812 q 728 739 728 764 q 678 677 728 685 q 665 675 671 675 q 621 684 637 675 m 60 218 q 220 20 60 71 q 366 0 285 0 q 670 142 576 0 q 722 321 722 221 q 678 502 722 419 q 652 547 667 522 q 621 593 629 583 l 621 650 q 681 639 650 639 q 776 693 750 639 q 785 735 785 713 q 708 854 785 811 q 661 878 693 863 q 583 920 605 902 l 583 639 q 430 768 505 727 q 374 612 374 703 q 439 472 374 514 q 507 452 469 452 q 624 521 590 453 q 663 382 662 453 q 534 186 663 243 q 369 156 465 156 q 132 263 133 157 q 174 334 133 305 q 308 366 228 366 l 382 366 l 382 384 q 302 545 382 500 q 220 564 267 564 q 95 510 127 564 q 84 468 84 490 q 123 420 84 429 q 134 419 129 419 q 191 463 176 420 q 255 510 212 506 q 330 456 305 510 q 339 408 339 433 l 339 400 l 22 400 l 22 357 q 171 366 66 365 l 178 366 q 103 328 136 355 q 60 218 60 289 m 419 621 q 442 716 419 670 q 595 560 537 647 q 521 509 572 513 q 426 575 449 509 q 419 621 419 597 z "},"ෆ":{"ha":803,"x_min":43,"x_max":741,"o":"m 43 281 q 118 514 43 431 q 247 571 171 571 q 392 476 351 570 q 537 571 434 570 q 712 437 659 571 q 741 281 741 366 q 669 57 741 140 q 543 -1 616 0 q 492 8 517 -1 l 492 43 q 537 35 514 35 q 661 140 627 35 q 675 236 675 183 q 583 414 675 382 q 537 420 562 420 q 415 316 427 420 q 414 292 414 304 l 414 256 l 370 256 l 370 292 q 263 420 370 411 q 248 420 255 420 q 114 296 140 420 q 107 233 107 266 q 172 62 107 115 q 248 35 206 35 q 292 43 271 35 l 292 8 q 241 -1 266 -1 q 73 125 127 -1 q 43 281 43 197 z "},"ග":{"ha":842,"x_min":45,"x_max":776,"o":"m 45 274 q 130 53 45 133 q 275 -3 191 -3 q 441 83 389 -3 q 467 180 467 126 q 401 313 467 281 q 358 323 381 323 q 330 316 340 321 q 420 430 347 397 q 494 445 454 445 q 666 328 627 445 q 678 243 678 289 q 601 71 678 129 q 480 34 551 34 q 448 37 468 34 l 448 1 q 488 -1 475 -1 q 720 110 639 -1 q 776 288 776 187 q 689 514 776 434 q 543 571 628 571 q 326 420 395 571 q 286 256 293 347 l 321 256 q 324 282 321 266 q 355 290 342 290 q 400 239 396 282 q 328 161 400 179 q 277 156 305 156 q 133 235 180 156 q 109 330 109 278 q 179 495 109 433 q 294 538 229 538 l 309 538 l 309 571 l 292 571 q 98 461 168 571 q 45 274 45 380 z "},"ඝ":{"ha":897,"x_min":7,"x_max":831,"o":"m 68 203 q 140 45 68 106 q 264 0 194 0 q 372 16 319 0 q 377 57 377 24 q 365 125 377 75 q 361 165 361 145 q 423 251 361 241 q 439 252 433 252 q 518 187 506 252 q 519 165 519 176 q 507 96 519 146 q 502 57 502 76 q 507 16 502 24 q 614 0 562 0 q 799 94 742 0 q 831 220 831 148 q 762 372 831 313 q 728 393 746 384 q 766 465 765 415 q 684 566 766 543 q 632 572 659 572 q 486 481 528 572 q 467 385 467 438 q 467 378 467 382 q 468 370 468 373 q 594 382 525 382 q 758 302 730 382 q 764 269 764 286 q 688 165 764 195 q 625 155 658 155 q 559 167 571 155 q 556 201 559 190 q 469 292 544 277 q 439 294 454 294 q 331 231 359 294 q 323 201 326 216 q 320 167 320 189 q 254 155 307 155 q 149 209 178 155 q 138 255 138 231 q 212 354 138 320 q 293 372 251 372 l 415 372 l 415 389 q 327 555 415 514 q 248 571 292 571 q 121 519 156 571 q 109 476 109 499 q 148 426 109 433 q 159 425 155 425 q 218 471 202 426 q 282 517 239 515 q 361 463 336 517 q 370 414 370 439 q 369 408 370 412 l 7 408 l 7 363 q 179 372 38 369 q 68 203 71 324 m 509 411 q 624 518 521 517 q 707 481 685 518 q 712 457 712 469 q 692 407 711 425 q 590 419 659 419 q 509 411 536 419 z "},"හ":{"ha":864,"x_min":43,"x_max":802,"o":"m 43 205 q 140 30 43 87 q 266 -1 195 -1 q 454 85 395 -1 q 486 193 486 132 q 433 309 486 281 q 399 317 416 317 q 361 308 376 316 q 511 437 403 433 q 665 330 621 437 q 684 231 684 283 q 614 68 684 122 q 514 37 572 37 q 467 39 483 37 l 467 3 q 521 -1 495 -1 q 742 102 661 -1 q 802 279 802 179 q 715 514 802 431 q 570 572 654 572 q 384 458 461 572 q 316 256 324 369 l 349 245 q 392 283 362 282 q 427 241 426 281 q 339 163 427 184 q 279 156 309 156 q 130 213 171 156 q 114 264 114 236 q 197 359 114 335 q 271 369 229 369 q 316 366 288 369 q 243 545 316 491 q 157 572 205 572 q 52 515 80 572 q 43 481 43 498 q 81 430 43 438 q 94 429 87 429 q 148 468 130 430 q 198 503 164 502 q 262 452 240 503 q 271 401 271 427 l 256 401 q 73 312 129 401 q 43 205 43 264 z "},"්":{"ha":1,"x_min":-187,"x_max":14,"o":"m -187 461 l -187 902 q -92 851 -170 888 q 5 766 -14 814 q 14 718 14 743 q -43 629 14 655 q -90 620 -65 620 q -149 633 -121 620 l -149 438 l -187 461 m -149 667 q -107 658 -133 658 q -45 705 -56 658 q -42 723 -42 715 q -100 811 -42 769 q -149 844 -109 817 l -149 667 z "},"ඉ":{"ha":785,"x_min":43,"x_max":720,"o":"m 43 293 q 178 524 43 446 q 377 572 263 572 q 671 442 583 572 q 720 263 720 368 q 624 46 720 129 q 509 -8 571 4 q 582 -99 579 -26 q 484 -201 582 -171 q 395 -213 441 -213 q 237 -141 267 -213 q 229 -100 229 -122 q 275 -52 237 -57 q 315 -85 311 -56 q 313 -98 315 -88 q 311 -125 311 -115 q 397 -180 313 -179 q 483 -127 471 -180 q 486 -110 486 -118 q 406 -24 486 -42 q 354 -19 381 -19 q 330 -22 350 -19 l 330 18 q 362 19 346 19 q 393 18 373 19 q 427 16 416 16 q 606 109 548 16 q 639 221 639 159 q 537 401 639 340 q 377 441 469 441 q 152 346 210 441 q 129 258 129 307 q 194 141 129 186 q 307 109 241 109 q 434 151 400 110 q 377 133 412 133 q 288 183 317 133 q 274 232 274 206 q 330 328 274 300 q 380 340 354 340 q 491 267 465 340 q 499 220 499 245 q 346 75 499 95 q 292 72 319 72 q 84 163 152 72 q 43 293 43 218 m 315 236 q 354 176 315 194 q 381 171 368 171 q 442 209 423 171 q 448 236 448 222 q 408 296 448 278 q 381 301 395 301 q 320 263 339 301 q 315 236 315 250 z "},"ඊ":{"ha":699,"x_min":41,"x_max":680,"o":"m 544 620 q 575 574 544 586 q 593 571 585 571 q 640 604 628 571 q 643 620 643 612 q 610 667 643 655 q 593 670 601 670 q 547 636 559 670 q 544 620 544 628 m 506 620 q 553 697 506 673 q 593 707 572 707 q 670 659 646 707 q 680 620 680 640 q 632 544 680 567 q 593 534 613 534 q 515 581 540 534 q 506 620 506 600 m 193 713 q 225 666 193 678 q 241 663 233 663 q 289 699 279 663 q 292 713 292 705 q 259 760 292 747 q 241 762 250 762 q 195 731 208 762 q 193 713 193 722 m 155 712 q 202 789 155 765 q 241 799 221 799 q 319 751 294 799 q 328 712 328 732 q 281 636 328 659 q 241 627 262 627 q 164 673 189 627 q 155 712 155 692 m 41 282 q 202 545 41 449 q 225 559 214 552 q 387 686 309 604 q 444 768 397 699 q 522 830 486 829 q 571 792 564 823 q 476 677 568 754 q 327 578 419 629 q 347 579 336 579 q 568 486 483 578 q 639 298 639 406 q 537 75 639 163 q 328 0 449 0 q 102 102 186 0 q 41 282 41 179 m 99 331 q 186 183 99 231 q 308 156 237 156 q 514 251 452 156 q 548 369 548 302 q 453 524 548 477 q 346 545 407 545 q 168 476 245 545 q 99 331 100 414 z "},"ජ":{"ha":791,"x_min":43,"x_max":753,"o":"m 582 412 q 522 468 533 412 q 519 491 519 479 q 524 536 519 515 q 549 537 533 537 q 647 486 633 537 q 648 471 648 477 q 604 415 648 427 q 582 412 593 412 m 433 410 q 429 442 429 429 q 481 526 430 506 q 480 491 480 514 q 506 411 481 445 q 472 412 494 412 q 433 410 453 412 m 43 225 q 237 18 43 65 q 395 0 308 0 q 681 96 595 0 q 727 222 727 149 q 627 384 726 336 q 689 468 686 407 q 606 567 689 541 q 555 575 581 575 l 534 575 q 608 673 560 636 q 708 734 631 690 q 753 781 751 760 q 711 819 747 817 q 600 761 661 818 q 488 568 514 682 q 388 438 389 541 q 397 377 388 407 q 471 381 456 381 q 654 294 635 381 q 655 277 655 285 q 441 157 655 171 q 387 156 414 156 q 117 256 137 156 q 115 273 115 264 q 210 370 115 346 q 304 381 251 381 q 347 378 316 381 q 353 431 353 401 q 269 562 353 529 q 203 572 239 572 q 88 524 121 572 q 75 477 75 502 q 113 426 75 434 q 126 425 121 425 q 186 469 163 425 q 187 473 187 472 q 247 514 208 513 q 311 457 300 514 q 312 438 312 446 q 309 412 312 430 q 275 414 296 414 q 71 320 130 414 q 43 225 43 277 z "},"ඣ":{"ha":1439,"x_min":28,"x_max":1377,"o":"m 111 170 q 172 281 138 229 q 240 358 209 330 q 397 381 290 381 q 590 298 549 381 q 601 251 601 275 q 552 167 601 193 q 506 156 532 156 q 415 209 431 156 q 408 262 408 232 l 408 263 l 370 263 l 370 262 q 293 157 370 165 q 275 156 285 156 q 193 178 244 156 q 155 186 171 186 q 111 170 132 184 m 403 418 q 288 404 334 418 q 585 533 422 521 q 625 534 605 534 q 799 513 712 534 l 798 513 q 667 385 712 481 q 644 307 651 347 q 422 418 576 410 q 403 418 412 418 m 28 28 l 64 15 q 115 96 72 95 q 153 65 132 96 q 224 5 186 18 q 270 -1 245 -1 q 392 84 355 0 q 526 -1 434 -1 q 667 91 631 -1 q 674 110 671 100 q 848 0 732 1 q 997 79 935 1 q 1156 0 1058 1 q 1355 178 1302 0 q 1377 346 1377 254 q 1251 663 1377 541 q 991 768 1142 768 q 682 620 793 766 l 726 620 q 986 735 831 735 q 1234 612 1141 735 q 1305 395 1305 517 q 1214 172 1305 222 q 1145 156 1183 156 q 1023 236 1040 156 q 1019 269 1019 251 l 1019 307 l 979 307 l 979 269 q 878 157 979 172 q 849 156 864 156 q 716 241 750 156 q 704 308 704 273 q 773 457 704 403 q 876 492 818 492 l 888 492 l 888 528 q 620 572 773 572 q 330 483 457 572 q 290 452 308 468 q 292 473 292 463 q 232 564 292 538 q 180 574 208 574 q 61 517 103 574 q 38 450 38 487 q 73 396 38 408 q 94 393 83 393 q 146 427 130 395 q 157 469 149 434 q 160 480 159 475 q 209 514 172 511 q 254 467 252 511 q 225 401 252 433 q 144 308 167 339 q 41 91 76 214 q 28 28 33 57 z "},"ඥ":{"ha":1115,"x_min":35,"x_max":1058,"o":"m 178 274 q 263 53 178 133 q 408 -3 324 -3 q 575 87 525 -3 q 586 111 582 99 q 826 -1 652 0 q 935 12 887 -1 q 834 -160 844 -90 q 833 -183 833 -172 q 914 -312 833 -279 q 982 -324 945 -323 q 1058 -315 1016 -324 l 1058 -274 q 948 -127 949 -241 q 1050 92 948 -27 q 1055 99 1053 96 l 1023 123 q 901 52 964 57 q 884 52 892 52 q 760 119 807 52 q 728 229 728 167 q 861 384 728 368 q 905 387 883 387 l 1019 387 q 875 568 989 544 q 742 581 821 581 q 416 256 446 578 l 454 256 q 457 281 454 264 q 486 290 469 290 q 530 248 525 290 q 532 239 532 243 q 441 159 532 170 q 407 156 425 156 q 260 244 305 156 q 240 330 240 285 q 311 495 240 433 q 426 538 361 538 l 441 538 l 441 571 l 430 571 q 316 574 397 574 q 54 415 113 574 q 35 293 35 361 q 121 43 35 134 q 179 0 148 15 l 179 43 q 77 289 77 134 q 203 515 77 460 q 305 537 248 536 q 182 332 203 473 q 178 274 178 302 m 490 323 q 463 316 475 321 q 628 528 496 484 q 713 541 669 541 l 722 541 q 697 491 697 519 q 735 444 697 453 q 751 442 743 442 q 812 480 795 444 q 868 519 831 518 q 959 453 930 519 q 968 420 964 437 l 812 420 q 566 288 604 419 q 490 323 536 323 z "},"ක":{"ha":987,"x_min":28,"x_max":929,"o":"m 28 28 l 64 15 q 115 96 72 95 q 153 65 132 96 q 224 5 186 18 q 270 -1 245 -1 q 392 84 355 0 q 526 -1 434 -1 q 670 96 633 -1 q 682 167 682 130 q 553 385 682 321 q 403 418 488 418 q 286 404 332 418 q 492 469 361 469 q 735 377 644 469 q 812 175 812 297 q 761 49 812 80 q 724 38 743 38 q 669 52 692 39 l 669 16 q 734 -1 693 -1 q 905 126 852 0 q 929 255 929 187 q 818 500 929 410 q 600 575 728 575 q 312 471 438 575 q 290 452 300 461 q 292 473 292 463 q 232 564 292 538 q 180 574 208 574 q 61 517 103 574 q 38 450 38 487 q 73 396 38 408 q 94 393 83 393 q 146 427 130 395 q 157 469 149 434 q 160 480 159 475 q 209 514 172 511 q 255 467 252 510 q 225 401 254 434 q 144 308 167 339 q 41 91 76 214 q 28 28 33 57 m 111 170 q 172 281 138 229 q 240 358 209 330 q 397 381 290 381 q 590 298 549 381 q 601 251 601 275 q 552 167 601 193 q 506 156 532 156 q 415 209 431 156 q 408 262 408 232 l 408 263 l 370 263 l 370 262 q 293 157 370 165 q 275 156 285 156 q 193 178 244 156 q 155 186 171 186 q 111 170 132 184 z "},"ඛ":{"ha":834,"x_min":42,"x_max":773,"o":"m 123 96 q 159 43 123 60 q 182 39 171 39 q 235 75 220 39 q 239 96 239 85 q 203 149 239 134 q 182 153 193 153 q 129 119 144 153 q 123 96 123 107 m 42 243 q 167 487 42 412 q 317 525 232 525 q 506 450 439 525 q 547 342 547 403 q 490 194 547 258 q 502 195 495 195 q 540 172 519 195 q 585 151 560 151 q 690 263 655 151 q 711 415 711 331 q 601 685 711 587 q 389 761 514 761 q 130 623 213 760 l 84 623 q 395 796 180 795 q 681 663 574 796 q 773 378 773 548 q 700 94 773 208 q 551 0 637 1 q 461 45 500 0 q 425 72 437 71 q 321 -26 395 72 q 319 -28 319 -27 l 269 -24 q 315 30 278 -15 q 380 111 354 81 q 468 278 468 217 q 312 384 465 382 q 132 311 197 384 q 90 193 90 260 q 96 138 90 161 q 164 194 111 184 q 180 195 172 195 q 273 136 251 195 q 279 96 279 117 q 235 14 279 43 q 187 -1 212 -1 q 54 136 88 -1 q 42 243 42 186 z "},"ල":{"ha":887,"x_min":41,"x_max":827,"o":"m 41 179 q 203 499 41 392 q 481 572 317 572 q 770 479 689 572 q 810 370 810 433 q 730 240 810 282 q 643 220 689 220 q 506 293 548 220 q 486 372 486 328 l 351 372 l 351 408 l 686 408 l 686 372 l 525 372 l 524 369 l 524 366 q 586 296 524 319 q 644 286 614 286 q 757 359 739 286 q 761 389 761 374 q 612 522 761 494 q 513 532 566 532 q 269 419 354 532 q 206 222 206 338 q 340 -71 206 24 q 541 -130 425 -130 q 723 -62 650 -130 q 785 87 785 -3 q 780 111 785 102 l 826 111 q 827 100 826 107 q 827 92 827 95 q 694 -145 827 -62 q 479 -203 601 -203 q 137 -77 258 -203 q 41 179 41 23 z "},"ළ":{"ha":842,"x_min":41,"x_max":819,"o":"m 343 534 q 427 481 399 534 q 439 435 439 458 l 483 435 q 530 515 483 484 q 589 533 557 533 q 705 453 675 533 q 716 393 716 425 l 237 393 l 229 393 q 316 532 233 513 q 343 534 330 534 m 41 151 q 195 -136 41 -39 q 454 -202 304 -202 q 708 -118 598 -202 q 819 98 818 -30 l 781 98 q 658 -77 777 -23 q 521 -106 594 -106 q 251 14 349 -106 q 180 216 180 100 q 183 252 180 232 q 339 77 225 125 q 442 57 388 57 q 697 227 646 57 q 701 244 700 236 l 662 244 q 481 168 613 175 q 458 168 469 168 q 260 266 319 168 q 235 332 241 297 q 331 357 275 357 l 762 357 q 669 555 762 506 q 590 572 633 572 q 475 518 515 572 q 463 499 467 509 q 345 572 422 566 q 199 488 250 572 q 167 378 171 441 q 52 227 83 339 q 41 151 41 187 z "},"ම":{"ha":840,"x_min":43,"x_max":774,"o":"m 351 467 q 389 408 351 425 q 415 403 403 403 q 473 441 457 403 q 479 467 479 454 q 441 525 479 509 q 415 530 427 530 q 357 492 373 530 q 351 467 351 479 m 43 331 q 106 524 43 450 q 206 572 151 571 q 278 498 278 571 q 274 458 278 481 q 270 407 270 430 q 342 309 270 334 q 397 300 368 300 q 525 377 500 300 q 532 420 532 397 q 513 484 532 458 q 515 454 515 469 q 464 370 515 396 q 415 359 442 359 q 320 420 349 359 q 309 465 309 444 q 368 560 309 530 q 422 572 393 572 q 557 490 519 572 q 572 414 572 456 q 488 277 572 317 q 400 256 449 256 q 256 316 305 256 q 228 399 228 351 q 236 480 228 407 q 237 499 237 491 q 203 534 235 533 q 123 460 148 534 q 113 393 113 427 q 232 191 113 258 q 403 151 305 151 q 643 256 562 151 q 697 430 697 328 q 606 658 697 567 q 401 739 522 739 q 148 621 241 738 l 103 621 q 350 773 190 753 q 400 776 376 776 q 673 655 563 776 q 774 387 774 543 q 632 65 774 168 q 411 0 540 0 q 106 130 203 0 q 43 331 43 214 z "},"ා":{"ha":407,"x_min":23,"x_max":353,"o":"m 23 146 q 24 175 23 165 l 62 175 q 61 155 61 167 q 122 75 62 76 q 201 266 201 77 q 122 460 199 458 q 66 414 80 460 q 61 377 61 396 q 62 357 61 363 l 24 357 q 23 387 23 368 q 96 515 23 475 q 171 534 132 534 q 345 362 313 534 q 353 266 353 317 q 213 3 353 34 q 171 -1 193 -1 q 35 80 71 -1 q 23 146 23 110 z "},"ෑ":{"ha":445,"x_min":5,"x_max":406,"o":"m 5 415 l 5 449 l 330 449 l 330 420 l 161 296 l 361 296 l 361 266 q 237 38 239 172 q 316 -113 237 -66 q 406 -134 355 -134 l 406 -170 q 283 -197 343 -197 q 107 -106 153 -197 q 88 -22 88 -68 q 264 236 88 117 q 304 262 282 248 l 95 262 l 95 292 l 264 415 l 5 415 z "},"ැ":{"ha":442,"x_min":4,"x_max":406,"o":"m 4 414 l 4 449 l 330 449 q 326 426 328 444 q 225 103 225 271 q 300 -84 225 -24 q 345 -107 321 -99 q 400 -115 365 -115 l 406 -141 q 266 -195 355 -195 q 107 -96 156 -195 q 81 23 81 -45 q 252 387 81 195 q 277 414 263 399 l 4 414 z "},"ෛ":{"ha":1596,"x_min":43,"x_max":1545,"o":"m 298 353 q 340 296 298 313 q 372 290 357 290 q 437 327 418 290 q 444 353 444 340 q 401 408 444 392 q 372 414 387 414 q 305 377 324 414 q 298 353 298 365 m 43 281 q 172 509 43 423 q 399 572 270 572 q 680 467 570 572 q 773 273 762 385 l 734 273 q 589 483 712 410 q 399 533 503 533 q 176 453 254 533 q 127 339 127 403 q 216 190 127 243 q 357 153 275 153 q 544 225 490 153 q 568 300 568 259 q 503 397 568 363 q 463 412 484 407 q 488 350 488 385 q 429 263 488 292 q 372 250 400 250 q 271 297 307 250 q 252 350 252 321 q 323 444 252 416 q 389 456 354 456 q 606 365 534 456 q 650 231 650 308 q 541 43 650 107 q 357 0 465 0 q 107 103 195 0 q 43 281 43 178 m 1070 353 q 1112 296 1070 313 q 1143 290 1128 290 q 1208 327 1190 290 q 1215 353 1215 339 q 1173 408 1215 392 q 1143 414 1158 414 q 1077 377 1096 414 q 1070 353 1070 365 m 815 281 q 944 509 815 423 q 1171 572 1042 572 q 1453 465 1343 572 q 1545 273 1534 384 l 1506 273 q 1360 483 1484 410 q 1171 533 1275 533 q 948 453 1025 533 q 901 339 901 403 q 989 189 901 243 q 1128 153 1048 153 q 1316 225 1261 153 q 1340 300 1340 259 q 1275 397 1340 363 q 1234 412 1256 407 q 1261 350 1261 384 q 1200 262 1261 292 q 1143 250 1173 250 q 1043 298 1078 250 q 1025 350 1025 323 q 1096 444 1025 416 q 1162 456 1127 456 q 1377 366 1305 456 q 1421 231 1421 309 q 1313 43 1421 107 q 1128 0 1237 0 q 879 103 967 0 q 815 281 815 178 z "},"ෞ":{"ha":1495,"x_min":43,"x_max":1416,"o":"m 298 353 q 340 408 298 391 q 372 414 355 414 q 438 376 419 414 q 444 353 444 363 q 403 297 444 313 q 372 290 388 290 q 305 328 324 290 q 298 353 298 339 m 43 281 q 161 54 43 134 q 357 0 244 0 q 613 110 537 0 q 650 231 650 163 q 533 425 650 365 q 389 456 469 456 q 266 399 301 456 q 252 350 252 376 q 313 263 252 293 q 372 250 342 250 q 471 297 435 250 q 488 350 488 321 q 463 412 487 387 q 562 334 540 395 q 568 300 568 316 q 468 172 568 210 q 357 153 418 153 q 160 239 224 153 q 127 339 127 283 q 232 495 127 438 q 399 533 304 533 q 656 429 557 533 q 734 273 719 362 l 773 273 q 631 506 760 419 q 399 572 529 572 q 133 477 237 572 q 43 281 45 396 m 939 425 q 1000 298 939 336 q 1062 281 1028 281 q 1171 354 1154 281 q 1173 381 1173 368 q 1124 456 1172 430 l 1124 465 q 1179 522 1126 521 q 1255 389 1240 522 q 1259 315 1259 355 q 1194 72 1259 96 q 1171 68 1183 68 q 1097 134 1109 68 q 1095 165 1095 149 q 1099 208 1095 187 l 1062 208 q 1057 159 1057 184 q 1135 14 1057 52 q 1210 -3 1168 -3 q 1398 157 1354 -3 q 1416 292 1416 217 q 1336 528 1416 453 q 1217 572 1287 572 q 1093 502 1119 572 q 1086 463 1086 483 q 1088 446 1086 452 q 1115 384 1115 416 q 1057 323 1105 328 q 986 382 1004 323 q 979 426 979 403 q 1036 567 981 518 l 987 567 q 939 425 939 513 z "},"ෙ":{"ha":811,"x_min":43,"x_max":773,"o":"m 298 353 q 340 296 298 313 q 372 290 357 290 q 437 327 418 290 q 444 353 444 340 q 401 408 444 392 q 372 414 387 414 q 305 377 324 414 q 298 353 298 365 m 43 281 q 172 509 43 423 q 399 572 270 572 q 680 467 570 572 q 773 273 762 385 l 734 273 q 589 483 712 410 q 399 533 503 533 q 176 453 254 533 q 127 339 127 403 q 216 190 127 243 q 357 153 275 153 q 544 225 490 153 q 568 300 568 259 q 503 397 568 363 q 463 412 484 407 q 488 350 488 385 q 429 263 488 292 q 372 250 400 250 q 271 297 307 250 q 252 350 252 321 q 323 444 252 416 q 389 456 354 456 q 606 365 534 456 q 650 231 650 308 q 541 43 650 107 q 357 0 465 0 q 107 103 195 0 q 43 281 43 178 z "},"ේ":{"ha":1289,"x_min":43,"x_max":1221,"o":"m 298 353 q 340 296 298 313 q 372 290 357 290 q 437 327 418 290 q 444 353 444 340 q 401 408 444 392 q 372 414 387 414 q 305 377 324 414 q 298 353 298 365 m 43 281 q 172 509 43 423 q 399 572 270 572 q 680 467 570 572 q 773 273 762 385 l 734 273 q 589 483 712 410 q 399 533 503 533 q 176 453 254 533 q 127 339 127 403 q 216 190 127 243 q 357 153 275 153 q 544 225 490 153 q 568 300 568 259 q 503 397 568 363 q 463 412 484 407 q 488 350 488 385 q 429 263 488 292 q 372 250 400 250 q 271 297 307 250 q 252 350 252 321 q 323 444 252 416 q 389 456 354 456 q 606 365 534 456 q 650 231 650 308 q 541 43 650 107 q 357 0 465 0 q 107 103 195 0 q 43 281 43 178 m 1020 461 l 1020 902 q 1116 851 1038 888 q 1213 766 1194 814 q 1221 718 1221 743 q 1164 629 1221 655 q 1118 620 1142 620 q 1058 633 1086 620 l 1058 438 l 1020 461 m 1058 667 q 1100 658 1074 658 q 1162 705 1152 658 q 1165 723 1165 715 q 1107 811 1165 769 q 1058 844 1099 817 l 1058 667 z "},"ි":{"ha":1,"x_min":-722,"x_max":-107,"o":"m -722 686 q -568 867 -722 818 q -415 888 -499 888 q -149 799 -228 888 q -107 686 -107 751 q -218 549 -107 585 q -297 537 -255 538 l -297 566 q -182 647 -183 574 q -365 735 -182 724 q -415 736 -389 736 q -650 656 -637 736 q -651 647 -651 651 q -567 570 -651 586 q -533 566 -551 567 l -533 537 q -707 623 -666 543 q -722 686 -722 652 z "},"ී":{"ha":1,"x_min":-777,"x_max":-110,"o":"m -330 681 q -283 616 -330 636 q -244 608 -264 608 q -167 650 -190 608 q -157 681 -157 665 q -203 746 -157 724 q -244 754 -224 754 q -320 713 -297 754 q -330 681 -330 697 m -777 685 q -625 861 -777 808 q -445 888 -545 888 q -178 818 -274 888 q -110 694 -111 768 q -176 585 -110 620 q -244 568 -208 568 q -358 629 -323 568 q -373 682 -373 655 q -338 757 -372 728 q -456 764 -373 764 q -699 697 -640 764 q -718 646 -718 674 q -650 566 -715 583 l -658 537 q -765 618 -734 544 q -777 685 -777 650 z "},"ෳ":{"ha":583,"x_min":43,"x_max":521,"o":"m 43 425 q 104 298 43 336 q 167 281 133 281 q 275 354 259 281 q 278 381 278 366 q 229 456 277 430 l 229 465 q 283 522 231 521 q 359 389 345 522 q 363 315 363 355 q 298 72 363 96 q 275 68 288 68 q 202 134 214 68 q 199 165 199 149 q 203 208 199 187 l 167 208 q 161 159 161 184 q 240 14 161 52 q 315 -3 273 -3 q 503 157 458 -3 q 521 292 521 217 q 441 528 521 453 q 321 572 392 572 q 198 502 224 572 q 191 463 191 483 q 193 446 191 452 q 220 384 220 416 q 161 323 210 328 q 91 382 109 323 q 84 426 84 403 q 141 567 85 518 l 92 567 q 43 425 43 513 z "},"ෟ":{"ha":583,"x_min":43,"x_max":521,"o":"m 43 425 q 104 298 43 336 q 167 281 133 281 q 275 354 259 281 q 278 381 278 366 q 229 456 277 430 l 229 465 q 283 522 231 521 q 359 389 345 522 q 363 315 363 355 q 298 72 363 96 q 275 68 288 68 q 202 134 214 68 q 199 165 199 149 q 203 208 199 187 l 167 208 q 161 159 161 184 q 240 14 161 52 q 315 -3 273 -3 q 503 157 458 -3 q 521 292 521 217 q 441 528 521 453 q 321 572 392 572 q 198 502 224 572 q 191 463 191 483 q 193 446 191 452 q 220 384 220 416 q 161 323 210 328 q 91 382 109 323 q 84 426 84 403 q 141 567 85 518 l 92 567 q 43 425 43 513 z "},"ො":{"ha":1579,"x_min":43,"x_max":1506,"o":"m 298 353 q 340 296 298 313 q 372 290 357 290 q 437 327 418 290 q 444 353 444 340 q 401 408 444 392 q 372 414 387 414 q 305 377 324 414 q 298 353 298 365 m 43 281 q 172 509 43 423 q 399 572 270 572 q 680 467 570 572 q 773 273 762 385 l 734 273 q 589 483 712 410 q 399 533 503 533 q 176 453 254 533 q 127 339 127 403 q 216 190 127 243 q 357 153 275 153 q 544 225 490 153 q 568 300 568 259 q 503 397 568 363 q 463 412 484 407 q 488 350 488 385 q 429 263 488 292 q 372 250 400 250 q 271 297 307 250 q 252 350 252 321 q 323 444 252 416 q 389 456 354 456 q 606 365 534 456 q 650 231 650 308 q 541 43 650 107 q 357 0 465 0 q 107 103 195 0 q 43 281 43 178 m 1176 146 q 1177 175 1176 165 l 1215 175 q 1214 155 1214 167 q 1275 75 1215 76 q 1354 266 1354 77 q 1275 460 1352 458 q 1219 414 1233 460 q 1214 377 1214 396 q 1215 357 1214 363 l 1177 357 q 1176 387 1176 368 q 1249 515 1176 475 q 1324 534 1284 534 q 1497 362 1466 534 q 1506 266 1506 317 q 1366 3 1506 34 q 1324 -1 1345 -1 q 1188 80 1223 -1 q 1176 146 1176 110 z "},"ෝ":{"ha":1449,"x_min":43,"x_max":1374,"o":"m 298 353 q 340 408 298 391 q 372 414 355 414 q 438 376 419 414 q 444 353 444 363 q 403 297 444 313 q 372 290 388 290 q 305 328 324 290 q 298 353 298 339 m 43 281 q 161 54 43 134 q 357 0 244 0 q 613 110 537 0 q 650 231 650 163 q 533 425 650 365 q 389 456 469 456 q 266 399 301 456 q 252 350 252 376 q 313 263 252 293 q 372 250 342 250 q 471 297 435 250 q 488 350 488 321 q 463 412 487 387 q 562 334 540 395 q 568 300 568 316 q 468 172 568 210 q 357 153 418 153 q 160 239 224 153 q 127 339 127 283 q 232 495 127 438 q 399 533 304 533 q 656 429 557 533 q 734 273 719 362 l 773 273 q 631 506 760 419 q 399 572 529 572 q 133 477 237 572 q 43 281 45 396 m 982 146 q 1063 11 982 46 q 1130 -1 1095 -1 q 1303 172 1274 -1 q 1312 266 1312 216 q 1211 515 1310 460 l 1211 633 q 1271 620 1240 620 q 1363 673 1336 620 q 1374 718 1374 693 q 1295 838 1374 793 q 1248 860 1280 846 q 1173 902 1195 886 l 1173 529 q 1130 534 1154 534 q 1006 471 1048 534 q 982 387 982 433 q 983 357 982 366 l 1021 357 q 1020 377 1020 365 q 1067 458 1020 445 q 1080 460 1074 460 q 1160 266 1160 457 q 1080 75 1158 76 q 1021 137 1028 75 q 1020 155 1020 146 q 1021 175 1020 168 l 983 175 q 982 146 982 164 m 1211 667 l 1211 844 q 1299 773 1284 795 q 1317 723 1317 751 q 1276 661 1317 674 q 1253 658 1264 658 q 1211 667 1226 658 z "},"ෘ":{"ha":414,"x_min":43,"x_max":355,"o":"m 43 330 l 43 320 l 79 320 l 79 326 q 142 456 79 439 q 160 458 152 458 q 221 362 212 458 q 224 293 224 332 q 132 273 178 293 q 43 141 45 235 q 91 26 43 71 q 160 -1 121 -1 q 220 18 182 -1 q 235 23 229 23 q 255 4 248 20 l 335 4 q 334 30 334 14 q 342 111 334 46 q 355 269 355 222 q 255 509 355 461 q 194 521 227 521 q 54 411 87 521 q 43 330 43 373 m 85 141 q 163 245 87 221 q 224 256 199 256 l 224 244 q 224 210 224 233 q 222 152 222 174 q 232 54 222 68 q 220 54 225 57 q 212 50 217 53 q 163 38 184 38 q 91 103 109 38 q 85 141 85 122 z "},"ෲ":{"ha":755,"x_min":43,"x_max":693,"o":"m 43 330 l 43 320 l 79 320 l 79 326 q 142 456 79 439 q 160 458 152 458 q 221 362 212 458 q 224 293 224 332 q 132 273 178 293 q 43 141 45 235 q 91 26 43 71 q 160 -1 121 -1 q 220 18 182 -1 q 235 23 229 23 q 255 4 248 20 l 335 4 q 334 30 334 14 q 342 111 334 46 q 355 269 355 222 q 255 509 355 461 q 194 521 227 521 q 54 411 87 521 q 43 330 43 373 m 85 141 q 163 245 87 221 q 224 256 199 256 l 224 244 q 224 210 224 233 q 222 152 222 174 q 232 54 222 68 q 220 54 225 57 q 212 50 217 53 q 163 38 184 38 q 91 103 109 38 q 85 141 85 122 m 381 330 l 381 320 l 416 320 l 416 326 q 480 456 416 439 q 498 458 490 458 q 559 362 549 458 q 562 293 562 332 q 469 273 515 293 q 381 141 382 235 q 429 26 381 71 q 498 -1 458 -1 q 557 18 519 -1 q 572 23 567 23 q 593 4 586 20 l 673 4 q 671 30 671 14 q 680 111 671 46 q 693 269 693 222 q 593 509 693 461 q 532 521 564 521 q 392 411 425 521 q 381 330 381 373 m 423 141 q 500 245 425 221 q 562 256 537 256 l 562 244 q 562 210 562 233 q 560 152 560 175 q 570 54 560 68 q 557 54 564 57 q 549 50 555 53 q 500 38 522 38 q 429 103 446 38 q 423 141 423 122 z "},"ු":{"ha":1,"x_min":-788,"x_max":-75,"o":"m -788 -191 q -723 -84 -788 -119 q -654 -66 -690 -66 q -530 -142 -566 -66 q -529 -145 -529 -144 l -571 -161 q -651 -109 -595 -110 q -732 -155 -708 -109 q -741 -189 -741 -171 q -625 -258 -738 -256 l -119 -258 l -119 170 l -75 290 l -75 -311 l -646 -311 q -781 -231 -755 -311 q -788 -191 -788 -212 z "},"ූ":{"ha":1,"x_min":-770,"x_max":-77,"o":"m -770 -187 q -704 -75 -770 -111 q -636 -57 -673 -57 q -507 -125 -549 -58 l -549 -140 q -629 -96 -578 -98 q -709 -140 -689 -96 q -716 -167 -716 -153 q -658 -233 -716 -220 q -629 -236 -643 -236 q -469 -197 -581 -236 q -285 -157 -358 -157 q -127 -218 -186 -157 q -122 -225 -125 -222 l -122 197 l -77 277 l -77 -311 l -110 -311 q -202 -214 -138 -245 q -274 -197 -237 -197 q -435 -251 -332 -197 q -593 -315 -540 -308 q -624 -317 -609 -317 q -751 -256 -713 -317 q -770 -187 -770 -225 z "},"ඹ":{"ha":842,"x_min":39,"x_max":781,"o":"m 39 304 q 115 69 39 159 q 263 0 176 1 q 350 19 300 0 q 350 61 355 34 q 350 65 350 64 q 336 122 350 76 q 331 155 331 140 q 388 237 331 224 q 411 240 399 240 q 488 175 477 240 q 490 155 490 164 q 476 92 490 141 q 471 64 472 76 l 472 20 l 472 19 q 557 0 524 0 q 732 125 667 0 q 781 336 781 218 q 661 665 781 544 q 397 766 556 766 q 95 633 197 766 q 83 617 88 625 l 126 617 q 347 732 209 720 q 395 734 370 734 q 655 595 567 734 q 712 395 712 506 q 654 186 712 260 q 578 142 620 144 q 529 156 545 142 q 526 190 530 170 q 444 278 515 262 q 411 282 427 282 q 307 225 335 282 q 296 190 298 208 q 293 156 292 170 q 244 142 275 142 q 113 245 153 142 q 92 358 92 297 q 134 502 92 446 q 193 536 160 536 q 227 492 227 533 l 227 465 q 313 323 227 359 q 388 309 347 309 q 529 381 490 309 q 544 444 544 410 q 487 559 544 524 q 426 575 460 575 q 334 521 359 575 q 324 477 324 499 q 373 395 324 420 q 422 382 395 382 q 502 426 477 382 l 502 422 q 453 361 502 382 q 392 349 426 349 q 269 427 290 349 q 264 463 264 445 l 264 491 q 240 560 263 544 q 197 571 222 571 q 68 463 113 571 q 39 304 39 392 m 363 480 q 401 537 363 521 q 425 541 412 541 q 481 503 465 541 q 486 480 486 491 q 448 425 486 439 q 425 420 435 420 q 368 457 384 420 q 363 480 363 469 z "},"න":{"ha":1067,"x_min":33,"x_max":1006,"o":"m 33 212 q 87 193 57 193 q 171 239 134 193 q 191 269 178 248 q 275 369 236 331 q 297 429 297 392 q 256 505 297 488 q 237 507 247 507 q 186 457 191 505 q 129 391 176 392 q 77 427 90 391 q 73 450 73 438 q 130 552 73 517 q 203 571 163 571 q 327 484 300 571 q 335 429 335 458 q 334 419 335 423 q 553 556 419 517 q 670 574 613 574 q 926 465 829 574 q 1006 243 1006 373 q 906 33 1006 99 q 793 -1 854 -1 q 705 18 738 -1 l 705 56 q 769 39 731 39 q 856 107 827 39 q 871 187 871 144 q 745 420 871 342 q 567 469 665 469 q 365 401 444 469 q 355 392 359 396 q 457 408 401 408 q 623 332 563 408 q 659 224 659 283 q 518 24 659 80 q 366 -1 450 -1 q 84 99 175 -1 q 33 212 41 148 m 157 176 q 335 151 227 151 q 551 227 496 151 q 568 283 568 254 q 495 366 568 347 q 444 373 471 373 q 255 294 320 373 q 225 252 244 281 q 157 176 186 195 z "},"ඳ":{"ha":707,"x_min":35,"x_max":652,"o":"m 152 224 q 269 31 152 88 q 422 -1 334 -1 q 530 12 483 -1 q 430 -156 441 -90 q 427 -183 427 -170 q 509 -312 427 -279 q 576 -324 540 -323 q 652 -315 610 -324 l 652 -274 q 543 -127 544 -241 q 644 92 543 -27 q 650 99 647 96 l 617 123 q 495 52 559 57 q 479 52 487 52 q 354 119 401 52 q 323 229 323 167 q 456 384 323 368 q 499 387 477 387 l 613 387 q 426 574 578 564 q 347 578 380 578 q 60 422 127 578 q 35 293 35 363 q 121 43 35 134 q 179 0 148 15 l 179 43 q 77 289 77 134 q 233 522 77 472 q 304 536 267 533 q 286 491 286 515 q 324 444 286 453 q 340 442 332 442 q 400 480 382 444 q 457 518 422 517 q 549 458 517 518 q 563 420 559 441 l 407 420 q 152 224 153 418 z "},"ඦ":{"ha":925,"x_min":35,"x_max":886,"o":"m 715 412 q 655 468 666 412 q 652 491 652 479 q 656 536 652 515 q 684 537 666 537 q 780 483 770 537 q 781 471 781 476 q 736 415 781 427 q 715 412 726 412 m 567 410 q 563 442 563 429 q 616 526 564 506 q 614 491 614 514 q 639 411 616 442 q 605 412 627 412 q 567 410 587 412 m 178 225 q 372 18 178 65 q 529 0 442 0 q 815 96 730 0 q 861 222 861 149 q 760 384 860 338 q 822 468 821 404 q 741 567 822 541 q 689 575 715 575 l 669 575 q 742 673 693 633 q 842 734 764 689 q 886 781 884 760 q 845 819 883 818 q 734 761 795 818 q 623 568 648 682 q 522 438 524 541 q 532 377 522 407 q 604 381 590 381 q 787 294 768 381 q 788 277 788 285 q 570 157 788 170 q 521 156 547 156 q 251 254 274 156 q 248 273 248 263 q 343 370 248 346 q 437 381 384 381 q 480 378 449 381 q 486 431 486 401 q 403 562 486 529 q 361 571 382 568 q 316 574 340 574 q 54 415 113 574 q 35 293 35 361 q 121 43 35 134 q 179 0 148 15 l 179 43 q 77 289 77 134 q 195 514 77 456 q 222 525 209 521 q 208 477 208 505 q 245 426 208 434 q 259 425 254 425 q 315 464 294 425 q 320 473 317 469 q 380 514 340 513 q 444 458 433 514 q 446 438 446 448 q 444 412 446 430 q 410 414 430 414 q 205 320 264 414 q 178 225 178 277 z "},"ඞ":{"ha":817,"x_min":61,"x_max":755,"o":"m 118 458 q 157 400 118 418 q 187 395 172 395 q 252 435 235 395 q 256 458 256 448 q 217 517 256 499 q 187 524 202 524 q 123 484 142 524 q 118 458 118 471 m 61 620 q 372 770 180 770 q 646 647 534 770 q 755 345 755 524 q 666 49 755 140 q 551 0 616 0 q 422 49 471 0 q 395 79 410 61 q 250 0 331 1 q 94 84 144 0 q 68 186 68 130 q 148 321 68 278 q 237 343 189 343 q 305 338 262 343 q 370 334 349 334 q 453 410 452 336 q 359 528 453 492 q 283 543 321 543 q 243 540 263 543 q 294 457 293 511 q 247 376 294 406 q 187 359 218 359 q 95 408 127 359 q 80 458 80 433 q 184 564 80 537 q 275 575 225 575 q 469 487 415 575 q 492 406 492 450 q 425 304 492 328 q 372 296 401 296 q 308 300 345 296 q 240 305 269 305 q 146 255 164 305 q 144 236 144 245 q 214 160 144 178 q 260 156 236 156 q 373 212 354 156 q 376 233 376 222 l 376 251 l 412 251 l 412 233 q 507 156 412 163 q 522 156 515 156 q 661 286 627 156 q 674 403 674 338 q 582 646 674 548 q 368 736 495 736 q 104 620 210 735 l 61 620 z "},"ණ":{"ha":1275,"x_min":28,"x_max":1213,"o":"m 28 236 l 43 202 q 132 239 104 236 q 209 182 171 239 q 263 100 262 103 q 483 0 345 1 q 734 133 656 0 q 739 142 736 138 q 829 53 766 69 q 854 49 842 49 q 945 90 913 50 q 1013 7 955 28 q 1059 -1 1035 -1 q 1207 146 1180 -1 q 1213 222 1213 182 q 1145 435 1213 376 q 1077 461 1114 461 q 962 378 991 461 q 952 334 955 357 q 854 378 917 378 q 769 336 807 377 q 663 517 751 456 q 830 563 741 544 q 1089 600 887 575 q 1143 648 1141 609 q 1097 697 1143 688 q 1076 700 1086 700 q 872 656 1008 700 q 601 551 739 612 q 476 574 538 574 q 260 490 328 574 q 225 382 225 444 q 227 361 225 368 q 28 236 91 279 m 266 389 q 361 517 266 476 q 472 537 411 537 q 547 526 513 537 q 266 382 388 452 l 266 389 m 452 146 q 252 216 338 146 q 187 266 199 260 q 153 274 170 274 q 236 323 208 307 q 387 222 273 237 q 425 220 406 220 q 522 240 486 220 q 536 250 536 250 l 537 250 q 586 345 585 286 q 530 444 586 410 q 503 456 517 452 q 602 496 555 479 q 675 343 671 434 q 587 180 675 235 q 452 146 532 146 m 353 345 q 391 259 354 294 q 274 343 298 275 q 362 391 305 361 q 353 345 353 369 m 392 346 q 437 415 392 393 q 469 422 453 422 q 537 380 517 422 q 545 346 545 362 q 502 277 545 297 q 469 269 486 269 q 400 311 423 269 q 392 346 392 328 m 852 91 q 779 149 804 91 q 765 212 766 179 q 773 264 770 239 q 840 336 792 327 q 852 338 846 338 q 940 214 939 335 q 879 95 940 117 q 852 91 865 91 m 974 140 l 974 149 q 982 213 982 179 q 979 258 982 232 q 1042 388 987 387 q 1101 224 1101 385 q 1058 64 1101 84 q 1036 60 1047 60 q 979 103 994 60 q 974 140 974 119 z "},"ඬ":{"ha":967,"x_min":35,"x_max":907,"o":"m 136 378 l 281 378 q 178 240 191 339 q 176 214 176 227 q 251 43 176 104 q 378 0 304 0 q 530 79 468 1 q 656 1 579 9 q 682 0 670 0 q 887 176 836 0 q 907 342 907 250 q 781 666 907 544 q 518 770 674 770 q 212 620 316 769 l 258 620 q 510 735 355 735 q 776 597 684 735 q 838 380 838 502 q 755 182 838 240 q 667 156 716 156 q 551 218 568 156 q 548 240 548 229 l 548 275 l 510 275 l 510 240 q 423 159 510 171 q 388 156 406 156 q 263 214 298 156 q 250 263 250 237 q 307 354 250 321 q 411 378 349 378 l 506 378 q 399 562 506 525 q 388 566 393 564 q 316 574 359 574 q 54 415 113 574 q 35 293 35 361 q 121 43 35 134 q 179 0 148 15 l 179 43 q 77 289 77 134 q 198 515 77 460 q 221 525 210 521 q 213 494 213 510 q 250 446 213 457 q 264 445 258 445 q 317 479 300 446 q 376 515 340 515 q 446 464 420 515 q 458 418 457 441 l 136 418 l 136 378 z "},"ඟ":{"ha":991,"x_min":35,"x_max":932,"o":"m 199 274 q 285 53 199 133 q 430 -3 346 -3 q 595 83 544 -3 q 621 180 621 126 q 556 313 621 281 q 513 323 536 323 q 484 316 495 321 q 575 430 502 397 q 648 445 609 445 q 822 328 783 445 q 834 243 834 289 q 758 72 834 130 q 635 34 707 34 q 602 37 623 34 l 602 1 q 644 -1 629 -1 q 876 110 795 -1 q 932 288 932 187 q 845 514 932 434 q 699 571 784 571 q 481 422 552 571 q 441 256 448 349 l 477 256 q 479 282 477 274 q 510 290 496 290 q 555 239 551 282 q 483 161 555 179 q 431 156 460 156 q 288 235 335 156 q 263 330 263 278 q 334 495 263 433 q 449 538 384 538 l 464 538 l 464 571 l 453 571 q 316 574 418 574 q 54 415 113 574 q 35 293 35 361 q 121 43 35 134 q 179 0 148 15 l 179 43 q 77 289 77 134 q 277 536 77 506 q 332 540 304 540 q 206 346 232 480 q 199 274 199 311 z "},"ඤ":{"ha":1356,"x_min":35,"x_max":1299,"o":"m 277 170 q 338 281 304 229 q 406 358 374 330 q 563 381 456 381 q 755 298 715 381 q 766 251 766 275 q 718 167 766 193 q 671 156 697 156 q 581 209 597 156 q 574 262 574 232 l 574 263 l 537 263 l 537 262 q 454 156 537 163 q 441 156 448 156 q 358 178 410 156 q 320 186 336 186 q 277 170 297 184 m 194 28 l 229 15 q 281 96 237 95 q 319 65 297 96 q 389 5 351 18 q 435 -1 411 -1 q 557 84 521 0 q 692 -1 600 -1 q 831 88 795 -1 q 836 98 834 94 q 1067 -1 907 -1 q 1176 12 1128 -1 q 1076 -160 1085 -90 q 1074 -183 1074 -172 q 1156 -312 1074 -281 q 1222 -324 1185 -323 q 1299 -315 1257 -324 l 1299 -274 q 1190 -127 1191 -241 q 1291 92 1190 -27 q 1297 99 1294 96 l 1263 123 q 1139 50 1203 56 q 1124 50 1131 50 q 1001 119 1047 50 q 970 229 970 167 q 1103 384 970 368 q 1146 387 1124 387 l 1260 387 q 1101 566 1233 533 q 1076 571 1088 570 q 901 586 1000 586 q 646 549 757 586 q 456 452 533 513 q 457 473 457 463 q 396 564 457 540 q 351 574 376 572 q 316 575 335 575 q 56 419 115 575 q 35 293 35 363 q 121 43 35 134 q 179 0 148 15 l 179 43 q 77 289 77 134 q 197 515 77 458 q 236 529 216 524 q 203 450 203 495 q 239 396 203 408 q 259 393 248 393 q 312 427 296 395 q 323 469 315 434 q 326 480 324 475 q 374 514 338 511 q 420 467 418 510 q 391 401 419 434 q 311 308 338 345 q 206 90 241 212 q 194 28 197 56 m 568 418 q 457 407 503 418 q 723 530 583 500 q 897 547 803 547 q 935 545 920 547 q 905 491 906 524 q 943 445 905 454 q 960 442 952 442 q 1020 480 1002 444 q 1076 519 1039 518 q 1180 471 1135 519 q 1210 420 1202 448 l 1053 420 q 812 302 857 419 q 582 418 743 412 q 568 418 575 418 z "},"ඔ":{"ha":842,"x_min":39,"x_max":781,"o":"m 363 479 q 400 536 363 519 q 425 541 411 541 q 480 503 464 541 q 486 479 486 492 q 448 422 486 438 q 425 418 437 418 q 368 456 384 418 q 363 479 363 467 m 39 297 q 109 75 39 163 q 259 0 168 1 q 404 73 365 1 q 522 0 431 7 q 537 0 529 0 q 761 180 707 0 q 781 336 781 251 q 662 663 781 541 q 399 766 557 766 q 91 628 194 766 q 83 617 87 623 l 126 617 q 347 732 209 720 q 395 734 370 734 q 661 600 572 734 q 713 411 713 517 q 635 190 713 256 q 537 156 593 156 q 426 218 444 156 q 422 243 422 231 l 422 258 l 387 258 l 387 244 q 267 155 374 160 q 119 244 167 155 q 92 358 92 296 q 134 502 92 446 q 193 536 160 536 q 227 492 227 533 l 227 449 q 319 311 227 345 q 392 298 353 298 q 536 368 494 298 q 555 437 555 400 q 487 562 555 528 q 426 575 458 575 q 331 518 355 575 q 323 477 323 498 q 370 392 323 420 q 422 378 395 378 q 510 430 483 378 q 514 438 513 434 q 515 431 515 434 q 444 345 515 366 q 391 338 419 338 q 271 406 297 338 q 264 446 264 425 l 264 491 q 240 560 263 544 q 197 571 222 571 q 69 460 114 571 q 39 297 39 388 z "},"ඕ":{"ha":842,"x_min":39,"x_max":781,"o":"m 189 715 q 279 760 189 742 q 376 768 327 768 q 686 598 613 768 q 700 562 694 581 q 369 688 589 688 q 212 673 290 688 q 216 682 216 677 q 199 700 216 689 q 189 715 190 708 m 56 585 q 369 652 201 652 q 671 526 586 652 q 713 381 713 463 l 713 363 q 614 175 703 222 q 537 156 579 156 q 426 218 444 156 q 422 243 422 231 l 422 258 l 387 258 l 387 244 q 267 155 374 160 q 119 244 167 155 q 92 358 92 296 q 134 502 92 446 q 193 536 160 536 q 227 492 227 533 l 227 449 q 319 311 227 345 q 392 298 353 298 q 536 368 494 298 q 555 437 555 400 q 487 562 555 528 q 426 575 458 575 q 331 518 355 575 q 323 477 323 498 q 370 392 323 420 q 422 378 395 378 q 510 430 483 378 q 514 438 513 434 q 515 431 515 434 q 444 345 515 366 q 391 338 419 338 q 271 406 297 338 q 264 446 264 425 l 264 491 q 240 560 263 544 q 197 571 222 571 q 69 460 114 571 q 39 297 39 388 q 109 75 39 163 q 259 0 168 1 q 404 73 365 1 q 522 0 431 7 q 537 0 529 0 q 762 187 709 0 q 781 328 780 251 l 781 332 l 781 336 q 758 472 779 420 q 585 781 738 690 q 368 833 494 833 q 153 770 221 833 q 127 723 129 746 q 153 688 127 704 q 165 673 164 678 q 83 636 165 665 q 56 627 65 631 l 56 585 m 363 479 q 400 536 363 519 q 425 541 411 541 q 480 503 464 541 q 486 479 486 492 q 448 422 486 438 q 425 418 437 418 q 368 456 384 418 q 363 479 363 467 z "},"ප":{"ha":815,"x_min":42,"x_max":761,"o":"m 42 243 q 161 415 42 370 q 274 433 212 433 q 321 430 289 433 q 323 438 321 433 q 323 445 323 444 q 270 518 323 506 q 254 519 262 519 q 190 476 205 518 q 127 433 176 434 q 75 472 83 433 q 73 484 73 479 q 145 564 73 541 q 209 574 175 574 q 362 467 347 574 q 363 442 363 454 q 359 393 363 411 q 343 395 353 395 q 324 397 334 396 q 307 398 315 397 q 293 399 298 399 l 288 399 q 125 332 159 399 q 115 293 115 313 q 300 163 115 190 q 407 156 350 156 q 651 225 581 156 q 685 301 685 258 q 587 396 685 376 q 522 401 557 401 q 429 392 480 401 q 426 434 426 408 q 529 568 426 544 q 582 574 553 574 q 705 511 674 574 q 716 469 716 490 q 681 401 715 427 q 761 247 760 353 q 595 30 761 92 q 407 0 513 0 q 60 152 123 0 q 42 243 42 194 m 469 445 q 471 430 469 434 q 534 434 506 434 q 647 418 604 434 q 667 465 667 437 q 610 530 667 514 q 572 534 593 534 q 476 480 498 534 q 469 445 469 464 z "},"ඵ":{"ha":770,"x_min":43,"x_max":707,"o":"m 43 218 q 203 20 43 71 q 350 0 269 0 q 655 144 562 0 q 707 324 707 222 q 650 548 707 444 q 637 570 643 559 q 473 753 578 673 q 415 791 442 776 q 359 636 359 726 q 425 495 359 537 q 491 476 454 476 q 608 544 575 477 q 648 384 648 473 q 513 183 648 237 q 354 156 445 156 q 132 228 174 156 q 121 269 121 247 q 225 368 121 347 q 292 374 256 374 l 372 374 l 372 393 q 296 549 372 503 q 208 571 258 571 q 81 518 114 571 q 69 476 69 498 q 107 427 69 435 q 118 426 113 426 q 175 471 160 427 q 227 517 187 510 q 240 518 235 518 q 316 468 290 518 q 328 418 328 444 l 328 410 l 311 410 q 43 218 46 406 m 403 646 q 426 739 403 696 q 581 585 525 666 q 505 533 556 538 q 410 600 433 533 q 403 646 403 621 z "},"ර":{"ha":699,"x_min":41,"x_max":697,"o":"m 41 282 q 228 553 41 475 q 236 556 232 555 q 298 581 258 564 q 502 681 430 629 q 505 684 503 684 q 581 764 530 704 q 652 810 618 808 q 696 781 689 810 q 697 773 697 777 q 587 655 697 716 q 585 654 586 654 q 389 576 498 605 q 385 575 387 575 q 557 496 480 572 q 568 486 563 491 q 639 298 639 406 q 537 75 639 163 q 328 0 449 0 q 102 102 186 0 q 41 282 41 179 m 99 331 q 186 183 99 231 q 308 156 237 156 q 514 251 452 156 q 548 369 548 302 q 452 524 548 479 q 346 544 404 544 q 168 476 245 544 q 99 331 99 415 z "},"ස":{"ha":897,"x_min":7,"x_max":831,"o":"m 68 203 q 141 43 68 104 q 269 -1 195 -1 q 441 109 395 0 q 609 0 484 1 q 804 103 749 0 q 831 220 831 153 q 762 372 831 313 q 728 393 746 384 q 766 464 761 422 q 674 568 766 549 q 631 572 654 572 q 486 481 528 572 q 467 385 467 438 q 467 378 467 382 q 468 370 468 373 q 595 382 533 382 q 757 274 755 381 q 673 167 757 195 q 600 156 640 156 q 461 243 463 157 l 461 270 l 425 270 l 425 243 q 345 161 425 179 q 293 156 320 156 q 157 221 193 156 q 145 266 145 243 q 239 365 145 340 q 302 373 270 373 l 415 373 l 415 392 q 331 553 415 510 q 248 571 294 571 q 122 519 157 571 q 109 476 109 499 q 145 427 109 435 q 157 426 152 426 q 214 468 201 427 q 285 518 237 515 q 359 469 332 518 q 373 412 373 442 q 372 408 373 410 l 7 408 l 7 363 q 179 373 45 370 q 69 222 77 334 q 68 203 68 213 m 509 411 q 606 513 517 505 q 623 514 614 514 q 709 471 694 514 q 712 454 712 463 q 692 406 711 426 q 590 419 650 419 q 509 411 538 419 z "},"ශ":{"ha":836,"x_min":45,"x_max":770,"o":"m 45 273 q 133 43 45 118 q 262 -1 187 -1 q 430 88 378 -1 q 454 183 454 132 q 376 317 454 298 q 347 321 362 321 q 319 316 331 321 q 418 430 335 397 q 492 445 454 445 q 662 331 609 445 q 688 237 682 288 q 637 244 663 244 q 505 174 545 244 q 486 99 486 140 q 528 8 486 37 q 566 -4 545 -4 q 625 22 594 -4 q 654 35 643 35 q 670 19 669 33 q 663 1 669 11 l 701 1 q 765 189 746 58 q 770 259 770 227 q 686 505 770 415 q 529 572 623 572 q 282 305 328 572 q 275 255 278 279 l 311 255 q 312 263 311 258 q 315 279 313 275 q 346 289 328 289 q 396 239 393 285 q 320 161 396 180 q 273 156 297 156 q 122 258 163 156 q 107 338 107 296 q 195 507 107 453 q 315 538 247 538 l 332 538 l 332 571 q 323 571 331 571 q 311 572 313 572 q 88 449 160 572 q 45 273 45 373 m 529 104 q 590 198 529 172 q 639 208 613 208 q 690 201 675 208 q 692 168 692 189 q 678 60 689 100 q 655 72 670 71 q 609 50 642 72 q 574 37 589 37 q 529 104 532 43 z "},"ෂ":{"ha":812,"x_min":42,"x_max":761,"o":"m 42 243 q 271 12 42 54 q 407 0 334 0 q 705 100 613 0 q 761 247 761 161 q 681 401 760 354 q 716 469 716 429 q 658 557 716 528 q 582 574 624 574 q 431 480 458 574 q 426 434 426 458 q 429 393 426 408 q 522 401 475 401 q 606 391 572 401 q 515 363 562 370 q 381 355 465 355 q 228 281 229 354 q 355 203 228 214 q 392 202 373 202 q 572 279 571 203 q 529 336 571 316 q 644 376 594 347 q 692 290 690 345 q 549 164 692 201 q 401 148 483 148 q 151 216 225 148 q 114 293 114 250 q 237 397 114 380 q 288 400 262 400 q 359 395 313 400 q 363 442 363 414 q 243 572 363 557 q 209 574 227 574 q 84 522 117 574 q 73 483 73 503 q 115 434 73 444 q 129 433 122 433 q 191 477 179 434 q 251 521 206 519 q 320 467 308 521 q 323 445 323 456 q 323 438 323 442 q 321 431 321 433 q 273 434 289 434 q 60 328 110 434 q 42 243 42 290 m 469 446 q 533 529 469 509 q 572 534 552 534 q 662 488 643 534 q 666 467 666 477 q 644 419 665 438 q 534 435 601 435 q 471 431 505 435 q 469 446 469 438 m 269 283 q 395 326 271 326 q 532 281 530 324 q 396 237 521 239 q 269 283 270 239 z "},"ත":{"ha":932,"x_min":28,"x_max":879,"o":"m 28 33 l 60 12 q 118 104 83 100 q 175 72 142 104 q 282 7 225 22 q 373 -3 323 -3 q 574 95 510 -3 q 608 214 608 148 q 481 404 608 357 q 372 423 433 423 q 264 404 308 423 q 461 481 335 479 q 703 373 621 481 q 757 195 757 300 q 709 62 757 104 q 658 42 686 42 q 601 56 628 42 l 601 16 q 681 -1 637 -1 q 852 111 800 -1 q 879 245 879 171 q 761 510 879 418 q 560 576 675 576 q 273 461 378 575 l 273 469 q 210 567 273 544 q 168 574 190 574 q 66 517 102 574 q 49 453 49 487 q 91 391 49 399 q 102 389 96 389 q 161 469 157 391 q 201 511 165 510 q 235 472 231 511 q 236 460 236 465 q 216 412 235 435 q 52 133 104 288 q 28 33 34 80 m 115 183 q 209 343 160 282 q 374 391 274 391 q 510 331 469 391 q 528 275 528 304 q 345 157 525 159 q 210 183 292 157 q 159 194 178 194 q 115 183 129 193 z "},"ථ":{"ha":812,"x_min":43,"x_max":750,"o":"m 43 311 q 144 507 43 429 q 324 570 224 570 l 324 536 q 152 460 217 536 q 107 342 107 408 q 298 164 107 197 q 404 156 347 156 q 636 254 556 156 q 688 404 688 317 q 651 553 686 488 q 537 486 620 487 q 419 568 454 486 q 404 647 404 605 q 460 802 406 738 q 644 637 557 749 q 682 581 666 608 q 750 353 746 471 q 750 334 750 343 q 627 75 750 171 q 391 -1 528 -1 q 125 103 224 -1 q 43 311 43 189 m 445 651 q 545 536 448 537 q 625 594 606 538 q 473 749 571 677 q 445 651 445 705 z "},"ට":{"ha":798,"x_min":42,"x_max":738,"o":"m 42 275 q 152 475 42 406 q 308 518 221 518 q 425 496 368 518 l 425 456 q 311 481 372 481 q 142 410 194 481 q 117 328 117 373 q 244 175 117 217 q 368 156 301 156 q 624 273 549 156 q 663 419 663 335 q 575 643 663 549 q 365 731 490 731 q 122 623 206 730 l 76 623 q 362 765 174 764 q 648 628 540 765 q 738 359 738 514 q 620 84 738 187 q 378 -1 521 -1 q 96 113 187 -1 q 42 275 42 182 z "},"ඨ":{"ha":812,"x_min":43,"x_max":780,"o":"m 43 258 q 122 52 43 126 q 252 0 176 0 q 401 79 339 1 q 559 0 463 1 q 757 159 703 0 q 780 308 780 228 q 697 581 779 439 q 533 764 637 684 q 475 802 502 787 q 419 647 419 736 q 483 506 419 548 q 551 486 514 486 q 666 553 633 487 q 718 357 718 476 q 650 189 718 243 q 551 156 608 156 q 427 235 448 156 q 423 269 423 251 l 423 307 l 382 307 l 382 269 q 283 159 382 174 q 251 156 269 156 q 119 250 149 156 q 110 311 110 279 q 175 456 110 400 q 279 492 221 492 l 293 492 l 293 528 q 201 513 243 528 q 71 384 114 481 q 43 258 43 324 m 460 650 q 487 749 460 707 q 640 594 589 673 q 560 536 621 537 q 460 650 461 538 z "},"උ":{"ha":861,"x_min":42,"x_max":799,"o":"m 42 132 q 179 -133 42 -33 q 434 -213 290 -213 q 709 -111 602 -213 q 799 91 799 -26 l 758 91 q 656 -94 758 -23 q 499 -142 585 -142 q 277 -41 357 -142 q 214 152 214 38 q 408 355 214 338 q 446 357 427 357 l 713 357 l 713 366 q 617 541 713 486 q 498 571 564 571 q 357 503 374 571 q 354 483 354 492 q 388 434 354 448 q 411 430 399 430 q 473 469 450 431 q 547 510 500 510 q 646 456 608 510 q 669 392 666 426 l 350 392 q 94 283 179 392 q 42 132 42 217 z "},"ඌ":{"ha":1312,"x_min":42,"x_max":1249,"o":"m 42 132 q 179 -133 42 -33 q 434 -213 290 -213 q 709 -111 602 -213 q 799 91 799 -26 l 758 91 q 656 -94 758 -23 q 499 -142 585 -142 q 277 -41 357 -142 q 214 152 214 38 q 408 355 214 338 q 446 357 427 357 l 713 357 l 713 366 q 617 541 713 486 q 498 571 564 571 q 357 503 374 571 q 354 483 354 492 q 388 434 354 448 q 411 430 399 430 q 473 469 450 431 q 547 510 500 510 q 646 456 608 510 q 669 392 666 426 l 350 392 q 94 283 179 392 q 42 132 42 217 m 772 425 q 833 298 772 336 q 895 281 861 281 q 1004 354 987 281 q 1006 381 1006 368 q 958 456 1005 430 l 958 465 q 1012 522 959 521 q 1088 389 1073 522 q 1092 315 1092 355 q 1027 72 1092 96 q 1004 68 1016 68 q 930 134 943 68 q 928 165 928 149 q 932 208 928 187 l 895 208 q 890 159 890 184 q 968 14 890 52 q 1043 -3 1001 -3 q 1232 157 1187 -3 q 1249 292 1249 217 q 1169 528 1249 453 q 1050 572 1120 572 q 926 502 952 572 q 920 463 920 483 q 921 446 920 452 q 948 384 948 416 q 890 323 939 328 q 819 382 837 323 q 812 426 812 403 q 869 567 814 518 l 821 567 q 772 425 772 513 z "},"ව":{"ha":791,"x_min":43,"x_max":726,"o":"m 43 218 q 203 22 43 73 q 354 0 270 0 q 671 155 576 0 q 726 363 726 243 q 610 663 726 548 q 366 764 510 764 q 76 623 175 762 l 121 623 q 366 731 212 731 q 597 613 511 731 q 659 414 659 525 q 499 178 659 233 q 358 156 438 156 q 119 269 130 165 q 202 359 119 335 q 275 369 235 369 l 387 369 l 387 384 q 273 563 387 532 q 213 571 244 571 q 87 518 119 571 q 75 476 75 498 q 114 426 75 434 q 126 425 121 425 q 182 471 165 426 q 252 517 198 515 q 330 464 305 517 q 340 408 340 438 l 340 403 l 263 403 q 66 311 121 403 q 43 218 43 269 z "},"ය":{"ha":842,"x_min":39,"x_max":784,"o":"m 39 245 q 142 469 39 395 q 296 515 208 515 q 332 513 312 515 l 332 473 q 290 477 312 477 q 126 396 179 477 q 100 307 100 354 q 184 170 100 203 q 255 156 216 156 q 376 206 343 156 q 389 250 389 227 l 389 282 l 427 282 l 427 251 q 513 164 427 186 q 576 156 543 156 q 715 240 693 156 q 719 271 719 256 q 540 396 716 395 q 426 381 480 396 q 425 411 425 392 q 545 570 425 545 q 597 574 570 574 q 735 505 711 574 q 739 473 739 490 q 699 404 739 425 q 690 401 693 403 q 783 245 772 353 q 784 221 784 233 q 697 37 784 99 q 578 -1 646 -1 q 407 94 449 0 q 247 -1 361 0 q 69 110 123 -1 q 39 245 39 170 m 465 423 q 543 430 494 430 q 655 416 614 430 q 685 463 684 431 q 633 518 685 503 q 598 522 616 522 q 469 450 491 522 q 465 423 465 437 z "},"෴":{"ha":2307,"x_min":66,"x_max":2245,"o":"m 1702 54 l 1736 175 l 1539 53 l 1576 229 l 1374 96 l 1396 313 l 1187 115 l 1169 349 l 993 152 l 951 345 l 780 149 l 745 298 l 595 99 l 556 213 l 476 75 q 423 117 450 115 q 319 66 384 117 q 202 1 247 11 q 167 -3 184 -3 q 75 50 99 -3 q 66 92 66 71 q 113 172 66 151 q 148 180 130 180 q 218 132 201 180 q 224 104 224 118 q 205 53 222 72 q 218 49 209 49 q 332 114 258 49 q 431 183 401 175 q 449 186 441 186 q 492 164 479 184 l 602 353 l 652 221 l 822 448 l 861 286 l 1043 495 l 1085 297 l 1282 524 l 1299 264 l 1535 481 l 1503 220 l 1720 359 l 1676 172 l 1865 292 l 1823 176 q 1864 186 1838 186 q 1964 125 1898 186 q 2068 52 2035 61 q 2091 47 2081 47 q 2108 53 2100 47 q 2089 104 2089 73 q 2128 171 2089 149 q 2165 180 2146 180 q 2239 126 2222 180 q 2245 92 2245 110 q 2184 3 2245 24 q 2146 -3 2165 -3 q 2003 57 2086 -3 q 1898 119 1930 110 q 1866 123 1881 123 q 1702 54 1797 122 z "},"ඏ":{"ha":1085,"x_min":41,"x_max":1024,"o":"m 849 71 q 882 102 856 96 q 913 71 907 95 q 890 39 913 46 q 882 38 886 38 q 849 71 854 45 m 940 104 q 882 138 921 138 q 867 137 871 138 q 895 247 895 184 q 815 401 894 354 q 850 469 850 429 q 831 524 849 499 q 814 574 814 551 q 840 597 815 595 q 955 483 914 597 q 981 317 981 408 q 945 115 981 189 q 940 104 943 109 m 770 590 q 777 564 772 574 q 716 574 746 574 q 566 480 593 574 q 560 434 560 458 q 564 392 560 414 q 656 401 617 401 q 815 330 789 401 q 819 301 819 316 q 674 171 819 205 q 541 156 613 156 q 270 235 331 156 q 250 293 250 260 q 346 391 250 366 q 422 399 381 399 q 494 393 445 399 q 499 442 499 416 q 378 572 499 557 q 345 574 362 574 q 288 567 316 574 q 294 590 294 575 q 231 637 292 636 q 77 517 130 637 q 41 317 41 433 q 91 73 41 171 q 183 1 129 3 q 247 42 229 1 q 252 71 252 57 l 252 76 q 541 0 349 0 q 812 76 718 1 l 812 71 q 854 7 812 24 q 882 1 868 1 q 1004 155 964 1 q 1024 317 1024 235 q 941 589 1024 500 q 834 637 894 637 q 770 590 772 636 m 152 71 q 183 102 159 96 q 216 71 210 95 q 183 38 209 43 q 153 62 159 38 q 152 71 152 66 m 176 243 q 201 136 176 184 q 183 138 189 138 q 125 104 142 137 q 84 317 87 182 q 145 549 84 468 q 227 597 182 595 q 252 578 251 594 q 229 536 251 557 l 233 538 q 208 484 208 514 q 262 433 216 438 q 324 476 309 434 q 389 519 338 518 q 453 475 437 519 q 457 445 457 461 q 457 438 457 444 q 456 430 456 433 q 408 433 419 433 q 195 331 248 433 q 176 243 176 292 m 604 445 q 669 529 604 511 q 707 534 688 534 q 799 484 783 534 q 802 465 802 475 q 780 418 800 437 q 669 434 735 434 q 605 430 639 434 q 604 445 604 437 z "},"ඐ":{"ha":1592,"x_min":41,"x_max":1533,"o":"m 849 71 q 882 102 856 96 q 913 71 907 95 q 890 39 913 46 q 882 38 886 38 q 849 71 854 45 m 940 104 q 882 138 921 138 q 867 137 871 138 q 895 247 895 184 q 815 401 894 354 q 850 469 850 429 q 831 524 849 499 q 814 574 814 551 q 840 597 815 595 q 955 483 914 597 q 981 317 981 408 q 945 115 981 189 q 940 104 943 109 m 770 590 q 777 564 772 574 q 716 574 746 574 q 566 480 593 574 q 560 434 560 458 q 564 392 560 414 q 656 401 617 401 q 815 330 789 401 q 819 301 819 316 q 674 171 819 205 q 541 156 613 156 q 270 235 331 156 q 250 293 250 260 q 346 391 250 366 q 422 399 381 399 q 494 393 445 399 q 499 442 499 416 q 378 572 499 557 q 345 574 362 574 q 288 567 316 574 q 294 590 294 575 q 231 637 292 636 q 77 517 130 637 q 41 317 41 433 q 91 73 41 171 q 183 1 129 3 q 247 42 229 1 q 252 71 252 57 l 252 76 q 541 0 349 0 q 812 76 718 1 l 812 71 q 854 7 812 24 q 882 1 868 1 q 1004 155 964 1 q 1024 317 1024 235 q 941 589 1024 500 q 834 637 894 637 q 770 590 772 636 m 152 71 q 183 102 159 96 q 216 71 210 95 q 183 38 209 43 q 153 62 159 38 q 152 71 152 66 m 176 243 q 201 136 176 184 q 183 138 189 138 q 125 104 142 137 q 84 317 87 182 q 145 549 84 468 q 227 597 182 595 q 252 578 251 594 q 229 536 251 557 l 233 538 q 208 484 208 514 q 262 433 216 438 q 324 476 309 434 q 389 519 338 518 q 453 475 437 519 q 457 445 457 461 q 457 438 457 444 q 456 430 456 433 q 408 433 419 433 q 195 331 248 433 q 176 243 176 292 m 604 445 q 669 529 604 511 q 707 534 688 534 q 799 484 783 534 q 802 465 802 475 q 780 418 800 437 q 669 434 735 434 q 605 430 639 434 q 604 445 604 437 m 1055 425 q 1118 297 1055 335 q 1179 281 1146 281 q 1287 354 1271 281 q 1290 381 1290 368 q 1241 456 1289 430 l 1241 465 q 1295 522 1242 521 q 1371 389 1356 522 q 1375 315 1375 355 q 1302 69 1375 87 q 1287 68 1294 68 q 1213 133 1227 68 q 1210 165 1210 148 q 1214 208 1210 187 l 1179 208 q 1173 159 1173 184 q 1251 14 1173 52 q 1325 -3 1284 -3 q 1514 153 1468 -3 q 1533 292 1533 216 q 1454 525 1533 449 q 1332 572 1404 572 q 1210 502 1236 572 q 1203 463 1203 483 q 1204 446 1203 452 q 1230 384 1230 419 q 1173 323 1221 328 q 1100 384 1118 323 q 1095 426 1095 404 q 1152 567 1096 518 l 1104 567 q 1055 425 1055 513 z "},"ඍ":{"ha":1184,"x_min":41,"x_max":1127,"o":"m 815 330 l 815 320 l 850 320 l 850 326 q 917 457 850 441 q 933 458 925 458 q 996 339 989 458 q 997 293 997 317 q 903 273 949 293 q 815 141 817 235 q 863 26 815 71 q 932 -1 892 -1 q 991 18 955 -1 q 1006 23 1001 23 q 1027 4 1020 20 l 1107 4 q 1105 30 1105 14 q 1114 111 1105 46 q 1127 269 1127 222 q 1027 509 1127 461 q 966 521 998 521 q 826 411 859 521 q 815 330 815 373 m 857 141 q 935 245 859 221 q 997 256 974 256 l 997 244 q 997 210 997 233 q 996 152 996 174 q 1004 54 996 65 q 993 54 997 56 q 982 50 990 53 q 935 38 956 38 q 863 102 882 38 q 857 141 857 122 m 41 203 q 114 43 41 104 q 243 -1 170 -1 q 415 109 369 0 q 583 0 458 1 q 779 103 723 0 q 806 220 806 153 q 739 372 806 316 q 703 395 722 387 q 739 449 730 410 q 741 464 741 457 q 648 568 741 548 q 604 572 627 572 q 458 480 500 572 q 441 385 441 437 l 441 370 q 571 382 506 382 q 728 292 711 382 q 730 270 730 281 q 644 165 730 193 q 572 156 612 156 q 434 243 437 160 l 434 270 l 399 270 l 399 243 q 319 161 399 180 q 266 156 293 156 q 130 221 165 156 q 118 266 118 243 q 210 374 118 350 q 271 382 239 382 q 388 372 330 382 l 388 392 q 304 553 388 510 q 221 571 267 571 q 95 519 130 571 q 81 476 81 499 q 121 427 81 434 q 132 426 127 426 q 189 468 175 427 q 259 518 212 515 q 331 471 304 518 q 346 415 346 445 l 346 411 q 273 419 308 419 q 64 307 119 419 q 41 203 41 259 m 481 411 q 595 514 494 513 q 682 471 667 514 q 685 454 685 463 q 666 407 684 426 q 563 419 628 419 q 481 411 511 419 z "},"ඎ":{"ha":1510,"x_min":41,"x_max":1459,"o":"m 815 330 l 815 320 l 850 320 l 850 326 q 917 457 850 441 q 933 458 925 458 q 996 339 989 458 q 997 293 997 317 q 903 273 949 293 q 815 141 817 235 q 863 26 815 71 q 932 -1 892 -1 q 991 18 955 -1 q 1006 23 1001 23 q 1027 4 1020 20 l 1107 4 q 1105 30 1105 14 q 1114 111 1105 46 q 1127 269 1127 222 q 1027 509 1127 461 q 966 521 998 521 q 826 411 859 521 q 815 330 815 373 m 857 141 q 935 245 859 221 q 997 256 974 256 l 997 244 q 997 210 997 233 q 996 152 996 174 q 1004 54 996 65 q 993 54 997 56 q 982 50 990 53 q 935 38 956 38 q 863 102 882 38 q 857 141 857 122 m 1147 330 l 1147 320 l 1181 320 l 1181 326 q 1248 457 1181 441 q 1264 458 1256 458 q 1325 362 1316 458 q 1328 293 1328 332 q 1236 273 1282 293 q 1147 141 1149 235 q 1195 26 1147 71 q 1264 -1 1225 -1 q 1324 18 1286 -1 q 1339 23 1333 23 q 1359 4 1352 20 l 1438 4 q 1436 30 1436 14 q 1444 111 1436 46 q 1459 269 1459 222 q 1363 506 1459 454 q 1297 521 1333 521 q 1158 410 1190 521 q 1147 330 1147 373 m 1188 141 q 1267 245 1190 221 q 1328 256 1303 256 l 1328 244 q 1328 210 1328 233 q 1326 152 1326 174 q 1335 54 1326 65 q 1324 54 1328 56 q 1316 50 1321 53 q 1267 38 1289 38 q 1194 102 1213 38 q 1188 141 1188 122 m 41 203 q 114 43 41 104 q 243 -1 170 -1 q 415 109 369 0 q 583 0 458 1 q 779 103 723 0 q 806 220 806 153 q 739 372 806 316 q 703 395 722 387 q 739 449 730 410 q 741 464 741 457 q 648 568 741 548 q 604 572 627 572 q 458 480 500 572 q 441 385 441 437 l 441 370 q 571 382 506 382 q 728 292 711 382 q 730 270 730 281 q 644 165 730 193 q 572 156 612 156 q 434 243 437 160 l 434 270 l 399 270 l 399 243 q 319 161 399 180 q 266 156 293 156 q 130 221 165 156 q 118 266 118 243 q 210 374 118 350 q 271 382 239 382 q 388 372 330 382 l 388 392 q 304 553 388 510 q 221 571 267 571 q 95 519 130 571 q 81 476 81 499 q 121 427 81 434 q 132 426 127 426 q 189 468 175 427 q 259 518 212 515 q 331 471 304 518 q 346 415 346 445 l 346 411 q 273 419 308 419 q 64 307 119 419 q 41 203 41 259 m 481 411 q 595 514 495 513 q 682 471 667 514 q 685 454 685 463 q 666 407 684 426 q 563 419 628 419 q 481 411 511 419 z "},"/":{"ha":581,"x_min":0,"x_max":567,"o":"m 104 -210 l 567 963 l 463 963 l 0 -210 l 104 -210 z "}," ":{"ha":264,"x_min":0,"x_max":0,"o":""},"£":{"ha":773,"x_min":58,"x_max":743,"o":"m 743 231 l 715 231 q 528 132 682 132 q 309 157 445 132 q 326 283 326 212 q 320 403 326 323 l 529 403 l 529 442 l 317 442 q 309 582 309 540 q 393 784 309 760 q 430 789 411 789 q 519 727 502 789 q 529 685 524 713 q 564 602 540 620 q 614 589 585 589 q 694 637 675 589 q 700 667 700 652 q 587 800 700 755 q 425 827 517 827 q 180 730 263 827 q 126 578 126 666 q 149 442 126 517 l 66 442 l 66 403 l 161 403 q 184 338 170 381 q 235 171 228 222 q 165 178 191 178 q 65 118 88 178 q 58 85 58 102 q 110 8 58 28 q 152 0 130 0 q 285 92 236 1 q 324 65 298 84 q 488 -22 425 -8 q 543 -28 515 -28 q 734 133 697 -28 q 743 231 743 176 m 151 38 q 103 73 110 38 q 102 84 102 80 q 141 137 102 125 q 163 140 152 140 q 236 121 201 140 q 178 43 228 62 q 151 38 164 38 z "},"∑":{"ha":648,"x_min":7,"x_max":642,"o":"m 639 -176 l 639 104 l 606 104 l 575 16 q 496 -50 556 -41 q 444 -53 475 -53 l 114 -53 l 471 370 l 469 370 l 195 777 l 414 777 q 537 734 503 777 q 574 652 559 705 l 594 582 l 625 582 l 642 814 l 7 814 l 7 784 l 343 292 l 7 -109 l 7 -176 l 639 -176 z "},"t":{"ha":473,"x_min":23,"x_max":467,"o":"m 23 541 l 117 541 l 117 189 q 300 -15 129 -8 q 445 71 407 -15 q 467 142 458 100 l 430 148 q 334 26 400 27 q 267 103 277 26 q 266 130 266 117 l 266 541 l 456 541 l 456 576 l 266 576 l 266 734 l 117 705 l 117 576 l 23 576 l 23 541 z "},"ť":{"ha":473,"x_min":23,"x_max":480,"o":"m 23 541 l 117 541 l 117 189 q 300 -15 129 -8 q 445 71 407 -15 q 467 142 458 100 l 430 148 q 334 26 400 27 q 267 103 277 26 q 266 130 266 117 l 266 541 l 456 541 l 456 576 l 266 576 l 266 734 l 117 705 l 117 576 l 23 576 l 23 541 m 480 817 q 419 920 480 899 q 385 925 403 925 q 308 878 332 925 q 298 836 298 857 q 354 755 298 779 q 372 750 363 751 q 406 719 404 741 q 354 624 406 678 q 349 618 351 621 l 378 597 q 477 787 463 685 q 480 817 480 803 z "},"þ":{"ha":758,"x_min":31,"x_max":715,"o":"m 267 -222 l 267 52 q 433 -14 324 -12 q 644 87 563 -14 q 715 308 715 175 q 617 553 715 475 q 484 600 560 600 q 305 517 373 600 q 266 445 279 484 l 266 882 l 31 882 l 31 846 l 118 846 l 118 -152 q 73 -218 118 -209 q 33 -222 57 -222 l 33 -258 l 380 -258 q 362 -224 380 -227 q 346 -222 354 -222 l 267 -222 m 422 537 q 552 290 551 534 q 442 26 552 58 q 410 22 427 22 q 289 118 327 22 q 266 264 266 179 q 345 507 266 437 q 422 537 380 537 z "},"¾":{"ha":1031,"x_min":54,"x_max":972,"o":"m 435 812 l 435 834 l 73 834 l 72 670 l 92 670 l 107 707 q 149 742 119 739 q 171 742 159 742 l 309 742 l 172 600 l 194 583 q 243 594 222 594 q 315 492 313 591 q 227 359 312 361 q 179 400 186 359 q 178 423 178 407 q 151 487 174 475 q 113 495 134 495 q 54 442 60 487 q 145 347 54 373 q 222 338 182 338 q 401 399 335 338 q 446 496 446 441 q 373 604 446 571 q 286 621 335 621 q 228 616 267 621 l 435 812 m 267 -43 l 853 827 l 807 857 l 220 -14 l 267 -43 m 972 -61 q 958 -31 972 -34 q 945 -30 952 -30 l 878 -30 l 878 64 l 972 64 l 972 98 l 878 98 l 878 273 l 853 273 l 842 241 q 777 194 825 198 q 758 194 768 194 l 746 194 l 746 99 l 553 100 q 773 259 730 222 q 883 414 883 351 q 829 469 883 463 q 815 471 822 471 q 749 426 772 471 q 730 385 742 414 q 604 189 678 267 q 502 100 559 142 l 509 66 l 746 65 l 746 -30 l 642 -30 l 642 -61 l 972 -61 z "},"³":{"ha":506,"x_min":53,"x_max":445,"o":"m 434 857 l 434 879 l 72 879 l 71 715 l 91 715 l 106 751 q 148 787 118 784 q 170 787 157 787 l 308 787 l 171 644 l 193 628 q 241 639 221 639 q 313 537 312 636 q 225 404 311 406 q 178 445 184 404 q 176 468 176 452 q 149 532 172 519 q 111 540 133 540 q 53 487 58 532 q 144 392 53 418 q 221 382 180 382 q 400 444 334 382 q 445 541 445 486 q 372 648 445 616 q 285 666 334 666 q 227 661 266 666 l 434 857 z "},"˜":{"ha":678,"x_min":142,"x_max":563,"o":"m 269 876 q 376 831 309 876 q 460 793 430 793 q 534 869 515 796 l 563 864 q 467 703 545 728 q 435 697 452 697 q 328 742 395 697 q 247 780 274 780 q 172 718 193 780 q 170 705 171 711 l 142 709 q 239 872 159 848 q 269 876 254 876 z "},"™":{"ha":785,"x_min":20,"x_max":765,"o":"m 263 490 q 243 510 260 509 l 216 510 l 216 793 l 218 793 q 270 760 255 793 q 273 753 271 757 q 275 746 275 747 l 294 699 l 313 699 l 311 814 l 23 814 l 20 699 l 39 699 l 58 746 q 85 787 72 780 q 115 793 98 793 l 118 793 l 118 510 l 71 510 l 71 490 l 263 490 m 537 484 l 640 747 l 640 510 l 602 510 l 602 490 l 765 490 q 745 510 762 509 l 731 510 l 731 793 l 765 793 l 765 814 l 639 814 l 555 595 l 444 814 l 340 814 l 340 793 l 374 793 l 374 510 l 340 510 l 340 490 l 442 490 q 423 510 439 509 l 400 510 l 400 701 l 518 484 l 537 484 z "},"²":{"ha":488,"x_min":41,"x_max":414,"o":"m 113 530 q 217 597 127 560 q 359 669 324 639 q 406 765 404 709 q 304 880 406 850 q 220 892 264 892 q 69 841 119 892 q 42 777 42 812 q 104 719 47 722 q 161 741 145 719 q 173 791 176 764 q 178 842 170 819 q 216 864 187 864 q 271 806 263 864 q 273 768 273 789 q 195 631 273 685 q 156 605 183 623 q 61 526 83 562 q 41 448 41 491 l 41 437 l 412 437 l 414 597 l 393 597 l 378 557 q 324 530 368 532 q 307 530 316 530 l 113 530 z "},"u":{"ha":765,"x_min":23,"x_max":734,"o":"m 701 35 l 648 35 l 648 581 l 418 581 l 418 547 l 499 547 l 498 220 q 419 68 491 111 q 365 53 392 53 q 262 155 275 53 q 259 190 259 172 l 259 581 l 23 581 l 23 547 l 110 547 l 110 212 q 304 -14 111 -12 q 479 79 414 -14 q 502 119 492 99 l 509 0 l 734 0 q 716 34 734 31 q 701 35 709 35 z "},"ú":{"ha":765,"x_min":23,"x_max":734,"o":"m 701 35 l 648 35 l 648 581 l 418 581 l 418 547 l 499 547 l 498 220 q 419 68 491 111 q 365 53 392 53 q 262 155 275 53 q 259 190 259 172 l 259 581 l 23 581 l 23 547 l 110 547 l 110 212 q 304 -14 111 -12 q 479 79 414 -14 q 502 119 492 99 l 509 0 l 734 0 q 716 34 734 31 q 701 35 709 35 m 515 762 q 541 812 540 783 q 502 879 541 856 q 469 888 486 888 q 429 872 449 888 q 359 789 412 860 q 260 681 311 727 l 281 654 q 446 727 317 674 q 515 762 496 747 z "},"û":{"ha":765,"x_min":23,"x_max":734,"o":"m 701 35 l 648 35 l 648 581 l 418 581 l 418 547 l 499 547 l 498 220 q 419 68 491 111 q 365 53 392 53 q 262 155 275 53 q 259 190 259 172 l 259 581 l 23 581 l 23 547 l 110 547 l 110 212 q 304 -14 111 -12 q 479 79 414 -14 q 502 119 492 99 l 509 0 l 734 0 q 716 34 734 31 q 701 35 709 35 m 553 678 l 571 703 q 465 826 543 731 q 384 879 415 875 q 309 833 347 879 q 282 800 301 823 q 199 701 235 739 l 217 678 q 387 762 293 723 q 553 678 467 728 z "}}}
